<mxfile host="app.diagrams.net" modified="2022-05-04T13:32:32.203Z" agent="5.0 (Windows NT 10.0; Win64; x64) AppleWebKit/537.36 (KHTML, like Gecko) Chrome/99.0.4844.82 Safari/537.36" etag="0xeBUP1Rk_UUX9E0-bJE" version="17.4.6" type="github">
  <diagram id="lHJSR7Lm2h9Y8z3fZ2jz" name="audio概述">
    <mxGraphModel dx="942" dy="634" grid="1" gridSize="10" guides="1" tooltips="1" connect="1" arrows="1" fold="1" page="1" pageScale="1" pageWidth="827" pageHeight="1169" math="0" shadow="0">
      <root>
        <mxCell id="0" />
        <mxCell id="1" parent="0" />
        <mxCell id="DXpBov2LFMrK3pi4npbK-1" value="音频采集" style="rounded=1;whiteSpace=wrap;html=1;fillColor=#dae8fc;strokeColor=#6c8ebf;" parent="1" vertex="1">
          <mxGeometry x="12" y="510" width="90" height="50" as="geometry" />
        </mxCell>
        <mxCell id="DXpBov2LFMrK3pi4npbK-2" value="音频前处理" style="rounded=1;whiteSpace=wrap;html=1;fillColor=#dae8fc;strokeColor=#6c8ebf;" parent="1" vertex="1">
          <mxGeometry x="122" y="510" width="90" height="50" as="geometry" />
        </mxCell>
        <mxCell id="DXpBov2LFMrK3pi4npbK-3" style="edgeStyle=orthogonalEdgeStyle;rounded=0;orthogonalLoop=1;jettySize=auto;html=1;fillColor=#dae8fc;strokeColor=#6c8ebf;" parent="1" source="DXpBov2LFMrK3pi4npbK-5" target="DXpBov2LFMrK3pi4npbK-7" edge="1">
          <mxGeometry relative="1" as="geometry" />
        </mxCell>
        <mxCell id="DXpBov2LFMrK3pi4npbK-4" style="edgeStyle=orthogonalEdgeStyle;rounded=0;orthogonalLoop=1;jettySize=auto;html=1;fillColor=#dae8fc;strokeColor=#6c8ebf;" parent="1" source="DXpBov2LFMrK3pi4npbK-5" target="DXpBov2LFMrK3pi4npbK-9" edge="1">
          <mxGeometry relative="1" as="geometry" />
        </mxCell>
        <mxCell id="DXpBov2LFMrK3pi4npbK-5" value="音频编码" style="rounded=1;whiteSpace=wrap;html=1;fillColor=#dae8fc;strokeColor=#6c8ebf;" parent="1" vertex="1">
          <mxGeometry x="232" y="510" width="90" height="50" as="geometry" />
        </mxCell>
        <mxCell id="DXpBov2LFMrK3pi4npbK-7" value="音频存储" style="rounded=1;whiteSpace=wrap;html=1;fillColor=#dae8fc;strokeColor=#6c8ebf;" parent="1" vertex="1">
          <mxGeometry x="366" y="460" width="90" height="50" as="geometry" />
        </mxCell>
        <mxCell id="DXpBov2LFMrK3pi4npbK-9" value="音频传输" style="rounded=1;whiteSpace=wrap;html=1;fillColor=#dae8fc;strokeColor=#6c8ebf;" parent="1" vertex="1">
          <mxGeometry x="366" y="550" width="90" height="50" as="geometry" />
        </mxCell>
        <mxCell id="DXpBov2LFMrK3pi4npbK-13" value="" style="endArrow=classic;html=1;rounded=0;exitX=1;exitY=0.5;exitDx=0;exitDy=0;fillColor=#dae8fc;strokeColor=#6c8ebf;" parent="1" source="DXpBov2LFMrK3pi4npbK-1" target="DXpBov2LFMrK3pi4npbK-2" edge="1">
          <mxGeometry width="50" height="50" relative="1" as="geometry">
            <mxPoint x="382" y="420" as="sourcePoint" />
            <mxPoint x="432" y="370" as="targetPoint" />
          </mxGeometry>
        </mxCell>
        <mxCell id="DXpBov2LFMrK3pi4npbK-14" value="" style="endArrow=classic;html=1;rounded=0;exitX=1;exitY=0.5;exitDx=0;exitDy=0;fillColor=#dae8fc;strokeColor=#6c8ebf;" parent="1" source="DXpBov2LFMrK3pi4npbK-2" target="DXpBov2LFMrK3pi4npbK-5" edge="1">
          <mxGeometry width="50" height="50" relative="1" as="geometry">
            <mxPoint x="382" y="420" as="sourcePoint" />
            <mxPoint x="432" y="370" as="targetPoint" />
          </mxGeometry>
        </mxCell>
        <mxCell id="DXpBov2LFMrK3pi4npbK-17" value="&lt;p style=&quot;margin-top: 0pt; margin-bottom: 0pt; margin-left: 0in; direction: ltr; unicode-bidi: embed; word-break: normal; font-size: 12px;&quot;&gt;&lt;font style=&quot;font-size: 12px;&quot;&gt;Microphone&lt;/font&gt;&lt;/p&gt;&lt;p style=&quot;margin-top: 0pt; margin-bottom: 0pt; margin-left: 0in; direction: ltr; unicode-bidi: embed; word-break: normal; font-size: 12px;&quot;&gt;&lt;font style=&quot;font-size: 12px;&quot;&gt;ADC&lt;/font&gt;&lt;/p&gt;&lt;p style=&quot;margin-top: 0pt; margin-bottom: 0pt; margin-left: 0in; direction: ltr; unicode-bidi: embed; word-break: normal; font-size: 12px;&quot;&gt;&lt;font style=&quot;font-size: 12px;&quot;&gt;Codec&lt;/font&gt;&lt;/p&gt;&lt;p style=&quot;margin-top: 0pt; margin-bottom: 0pt; margin-left: 0in; direction: ltr; unicode-bidi: embed; word-break: normal; font-size: 12px;&quot;&gt;&lt;font style=&quot;font-size: 12px;&quot;&gt;录音芯片&lt;/font&gt;&lt;/p&gt;" style="whiteSpace=wrap;html=1;aspect=fixed;fontSize=12;" parent="1" vertex="1">
          <mxGeometry x="10" y="600" width="90" height="90" as="geometry" />
        </mxCell>
        <mxCell id="DXpBov2LFMrK3pi4npbK-18" value="&lt;p style=&quot;margin-top: 0pt ; margin-bottom: 0pt ; margin-left: 0in ; direction: ltr ; unicode-bidi: embed ; word-break: normal&quot;&gt;&lt;font style=&quot;font-size: 12px&quot;&gt;&lt;span&gt;降&lt;/span&gt;&lt;span&gt;噪&lt;/span&gt;&lt;span&gt;/&lt;/span&gt;&lt;span&gt;回声&lt;/span&gt;&lt;/font&gt;&lt;/p&gt;&lt;p style=&quot;margin-top: 0pt ; margin-bottom: 0pt ; margin-left: 0in ; direction: ltr ; unicode-bidi: embed ; word-break: normal&quot;&gt;&lt;span&gt;&lt;font style=&quot;font-size: 12px&quot;&gt;语音识别&lt;/font&gt;&lt;/span&gt;&lt;/p&gt;&lt;p style=&quot;margin-top: 0pt ; margin-bottom: 0pt ; margin-left: 0in ; direction: ltr ; unicode-bidi: embed ; word-break: normal&quot;&gt;&lt;span&gt;&lt;font style=&quot;font-size: 12px&quot;&gt;语音唤醒&lt;/font&gt;&lt;/span&gt;&lt;/p&gt;&lt;p style=&quot;margin-top: 0pt ; margin-bottom: 0pt ; margin-left: 0in ; direction: ltr ; unicode-bidi: embed ; word-break: normal&quot;&gt;&lt;span&gt;&lt;font style=&quot;font-size: 12px&quot;&gt;ADSP&lt;/font&gt;&lt;/span&gt;&lt;/p&gt;&lt;p style=&quot;margin-top: 0pt ; margin-bottom: 0pt ; margin-left: 0in ; direction: ltr ; unicode-bidi: embed ; word-break: normal&quot;&gt;&lt;span&gt;AI&lt;/span&gt;&lt;span&gt;语音&lt;/span&gt;&lt;br&gt;&lt;/p&gt;" style="whiteSpace=wrap;html=1;aspect=fixed;fontSize=12;" parent="1" vertex="1">
          <mxGeometry x="122" y="390" width="90" height="90" as="geometry" />
        </mxCell>
        <mxCell id="DXpBov2LFMrK3pi4npbK-19" value="&lt;p style=&quot;margin-top: 0pt ; margin-bottom: 0pt ; margin-left: 0in ; direction: ltr ; unicode-bidi: embed ; word-break: normal&quot;&gt;&lt;font style=&quot;font-size: 12px&quot;&gt;&lt;span&gt;语音编码&lt;/span&gt;&lt;span&gt;G.7xx&lt;/span&gt;&lt;/font&gt;&lt;/p&gt;&lt;p style=&quot;margin-top: 0pt ; margin-bottom: 0pt ; margin-left: 0in ; direction: ltr ; unicode-bidi: embed ; word-break: normal&quot;&gt;&lt;font style=&quot;font-size: 12px&quot;&gt;&lt;span&gt;音频编码&lt;/span&gt;&lt;span&gt;mp3&lt;/span&gt;&lt;/font&gt;&lt;/p&gt;&lt;p style=&quot;margin-top: 0pt ; margin-bottom: 0pt ; margin-left: 0in ; direction: ltr ; unicode-bidi: embed ; word-break: normal&quot;&gt;&lt;span&gt;&lt;font style=&quot;font-size: 12px&quot;&gt;MIDI&lt;/font&gt;&lt;/span&gt;&lt;/p&gt;&lt;p style=&quot;margin-top: 0pt ; margin-bottom: 0pt ; margin-left: 0in ; direction: ltr ; unicode-bidi: embed ; word-break: normal&quot;&gt;&lt;span&gt;TTY&lt;/span&gt;&lt;br&gt;&lt;/p&gt;" style="whiteSpace=wrap;html=1;aspect=fixed;fontSize=12;" parent="1" vertex="1">
          <mxGeometry x="232" y="600" width="90" height="90" as="geometry" />
        </mxCell>
        <mxCell id="DXpBov2LFMrK3pi4npbK-20" value="&lt;p style=&quot;margin-top: 0pt ; margin-bottom: 0pt ; margin-left: 0in ; direction: ltr ; unicode-bidi: embed ; word-break: normal&quot;&gt;&lt;span&gt;&lt;font style=&quot;font-size: 12px&quot;&gt;BT&lt;/font&gt;&lt;/span&gt;&lt;/p&gt;&lt;p style=&quot;margin-top: 0pt ; margin-bottom: 0pt ; margin-left: 0in ; direction: ltr ; unicode-bidi: embed ; word-break: normal&quot;&gt;&lt;span&gt;&lt;font style=&quot;font-size: 12px&quot;&gt;Wireless&lt;/font&gt;&lt;/span&gt;&lt;/p&gt;&lt;p style=&quot;margin-top: 0pt ; margin-bottom: 0pt ; margin-left: 0in ; direction: ltr ; unicode-bidi: embed ; word-break: normal&quot;&gt;&lt;span&gt;&lt;font style=&quot;font-size: 12px&quot;&gt;aptX&lt;/font&gt;&lt;/span&gt;&lt;/p&gt;&lt;p style=&quot;margin-top: 0pt ; margin-bottom: 0pt ; margin-left: 0in ; direction: ltr ; unicode-bidi: embed ; word-break: normal&quot;&gt;&lt;span&gt;&lt;font style=&quot;font-size: 12px&quot;&gt;&amp;nbsp;L2DAC&lt;/font&gt;&lt;/span&gt;&lt;/p&gt;&lt;p style=&quot;margin-top: 0pt ; margin-bottom: 0pt ; margin-left: 0in ; direction: ltr ; unicode-bidi: embed ; word-break: normal&quot;&gt;&lt;span&gt;&lt;font style=&quot;font-size: 12px&quot;&gt;流媒体传输&lt;/font&gt;&lt;/span&gt;&lt;/p&gt;&lt;p style=&quot;margin-top: 0pt ; margin-bottom: 0pt ; margin-left: 0in ; direction: ltr ; unicode-bidi: embed ; word-break: normal&quot;&gt;&lt;span&gt;&lt;font style=&quot;font-size: 12px&quot;&gt;点播&lt;/font&gt;&lt;/span&gt;&lt;/p&gt;&lt;p style=&quot;margin-top: 0pt ; margin-bottom: 0pt ; margin-left: 0in ; direction: ltr ; unicode-bidi: embed ; word-break: normal&quot;&gt;&lt;span&gt;长音频分发&lt;/span&gt;&lt;br&gt;&lt;/p&gt;" style="whiteSpace=wrap;html=1;aspect=fixed;fontSize=12;" parent="1" vertex="1">
          <mxGeometry x="354" y="630" width="114" height="114" as="geometry" />
        </mxCell>
        <mxCell id="DXpBov2LFMrK3pi4npbK-21" value="&lt;p style=&quot;margin-top: 0pt ; margin-bottom: 0pt ; margin-left: 0in ; direction: ltr ; unicode-bidi: embed ; word-break: normal&quot;&gt;&lt;span&gt;&lt;font style=&quot;font-size: 12px&quot;&gt;文件封装&lt;/font&gt;&lt;/span&gt;&lt;/p&gt;&lt;p style=&quot;margin-top: 0pt ; margin-bottom: 0pt ; margin-left: 0in ; direction: ltr ; unicode-bidi: embed ; word-break: normal&quot;&gt;&lt;span&gt;&lt;font style=&quot;font-size: 12px&quot;&gt;音频加密&lt;/font&gt;&lt;/span&gt;&lt;/p&gt;&lt;p style=&quot;margin-top: 0pt ; margin-bottom: 0pt ; margin-left: 0in ; direction: ltr ; unicode-bidi: embed ; word-break: normal&quot;&gt;&lt;font style=&quot;font-size: 12px&quot;&gt;&lt;span&gt;磁盘&lt;/span&gt;&lt;span&gt;/CD&lt;/span&gt;&lt;/font&gt;&lt;/p&gt;&lt;p style=&quot;margin-top: 0pt ; margin-bottom: 0pt ; margin-left: 0in ; direction: ltr ; unicode-bidi: embed ; word-break: normal&quot;&gt;&lt;span&gt;云盘&lt;/span&gt;&lt;br&gt;&lt;/p&gt;" style="whiteSpace=wrap;html=1;aspect=fixed;fontSize=12;" parent="1" vertex="1">
          <mxGeometry x="369" y="350" width="90" height="90" as="geometry" />
        </mxCell>
        <mxCell id="DXpBov2LFMrK3pi4npbK-24" value="" style="shape=image;verticalLabelPosition=bottom;labelBackgroundColor=default;verticalAlign=top;aspect=fixed;imageAspect=0;image=data:image/png,iVBORw0KGgoAAAANSUhEUgAAAKIAAAClCAYAAAGo8BY1AAAAAXNSR0IArs4c6QAAAARnQU1BAACxjwv8YQUAAAAJcEhZcwAAFxEAABcRAcom8z8AAHuRSURBVHhe7Z2Fe1xHsvbzp3z3Lod5N9kwM9OGmZlhw7zJJg4vZjfoMHOcxEHbmhHLFplllGSSZRDMqe/9VZ+Wj8YjNuz33dt66hnNzJlzuqvfLuiurt6ibnqPzZjXa1Nn9lhlU4/19JrVzuixfH23/VjdbfWze/x9IUlsuGWL8oZu3azbKvRa3dxjuqdVLzTLzzWbutiscYneLzIrzJtv1jKvPy3RlyXKFulrKI2NZvseYLbjLv1pB9FOvy1NO//O7KZb0huE0nfTZEou/HjX3deRfpQce4IlN95iyX0PWnLnPZZcdIkle+9ntstu/a5N9jsovVO8aXdPeGK8SD9ITjnN7Pl/mf3tH2bjXzN7/0Ozd97TZ/82++vfzZ56xux3e/S7sd15t98u3PS999c9mdqpVn6z2joxs0QHrV5t9tIrZn//p9k+Yle86Y67+tfhplde3fdFcs31lnDDVfphLOr5kn3/+Rdm/3x+3U233VGVKKQ3Pf+i8OFue/oNk0Xq7kxZXVVjyXY7me13YPpJpvzrBbMnngot3X5ns97ezE358O57zV573T+KZYlg03bFVeGhdGRxWb48sGGPfQa4qTogmVrvH1Ha2tosn8tZ25XXDHxTyj/VoaeeUeKm/Eg9m6xY4R/5DfN5q5owYeibvvCSJVddO8BNxZ+kc5W1t7f7DXOVldYr2LTcd3/4XsiYTSfWTfWf9RXd1NTBJZufiDetubzfMNKcR/5si6++1hrGj7eqLydYss0O6yOBzjrn/NI3bb3jLsuNe7LfTfPl5Tbz2ecs2XU3W3LWudabhRplbVfoqP0PWf+m7Rrj+b33t/wtt1l+yuT+NxZ1HH2cdXV2+uX9ymefm/3lbwH42Zu2n3eh5bba1vJbbmO5a6+33O13Wb6iot9N67+Z6PfoV2bODD0fRxVYjuCf/8xzluem0G+2ttwf77DcbaKfJnnzq6ur/R7Zkkwu82Yn518c4MhNt97ev/ObdmkE5XSzvhuLcoJRXjeve/Qxs6pqSxYstGTOHEu++saSf2hoipITTwk3Syk585x1N6VMV7OzN4UVtbtJCt11T5BK9DBNffwJswsvEQ8lSzM39KavWeP36rspZdZtt1vuF7/2m1Zttc26HyAWI8WmRkJQ776XWUdHepeim1J6JdaWfa0m0mxhdFACSnOkd4rKFouXFmxhe8GVW/2cHv3fa41zeq25pddmzQ8KcdZCNNfwyhZoT340c0GvTdONFqySXJaym9ZmVi+qXCDULCqYzW3pr/DmiUqU/s0W4J1fxQoPgmfFhGABm9OmpTfI3DDZ/+D+TGf877WfJerdRL3uyu6mW6X8Tgw3y16rGyc//uT3CTe8S8I4ewEK7ImnA3RQbCg4FN14Cey/SioJSsmpp6s1mZ6nZd3d6Q15E79Qrewf6sEXXw7KrLhgldRJ+aFi7pcyjLUFVnrwFtYjNQxA+fC3vw8KC2FQqmRNHB7GTa+7cV1lrrpGN+ySeEKC8ITHxoWRkSncohdjYDtdUySAk9bWoF1/v3e4ofi97oZ76EPAiqLKlCmYOrFZt/wx/TRTXn/T7J77QoX63fAPYnJR7colfSY3SMnFG956e/rNupJM0/fUsviGCUrrRemQtHAz5OPkqeqAeEOJOVsoUy9TEgQyQmS9Jl99XehZlYpU6NZ98KFNf+bZvhu23fuAJb8VpDIlQdr8+8XQof1uePZ5/qTyqqo+6V2mG4OA6i++tIZXx9uia2+wwsuyiTIlmT3bZeX6PNRIKb/9TssjudMbQuWTJtmyc8+3gn6w7NVX19eKn3wapE/xDSt+vVVQXrJvsjd0KiuzwvEnp3dYVxIw/Je/mh2n4djHQw2XilS45iUE8lK1+fff73fDMpkvXTStuGCVSC177bjhxZfphipT/vsXfWogJ1WKbsn9+9+Wl4XBzTqLVCsdgeEA9RvPgo/fcNopp/bd0EnmHjctE6386GMxXsoKpaUOS954K2hA+BZvBCEPpPz8hoW1a60sNjuSeNpJzz8mBQXggQbSR/a6HXz4umZGkj1PCdJGpbdjhZXvsJPldKOctF9nVorw9EjZm0A7CCGIv7T03TCWNbNm2+q/qyZZhVSSHrPk2+/6m90qW8xv7XUPrLmlx1BY02b1WMtiKSe9orTw1lBcKDGUF17bTCkvXmdLeTXoGnQS38+S7pH22eBli6UdBVvRmdiSFQVrW1aw5fq/Va8r1JiVHT2WVFbZ2nHP2opLb7Rll4guvcmWXHKTLU2p/eKbrePym23F5bfY6guuNDvmBLOjjjMTAgelk081u/QKs6ef9WcwJAYq63WNl+9/MDvkiKAsi/s2S+BgJ/U/uAAHyB05Nk7IJj7jO6gYbMXEswDlN+ruotK/kjNnmR12ZJ8gXI/0oIQHo+XhwsOPmD37lyC6GY+liFHBNQ8/qt+I0/vK++IeA1WaZ8Og6dPTSmUr2dhkduQxpUeGPkv22t/shpvDkES48vC33pWUkas9VxYZio4uk9nsxP/4SnxXpmve1rX8hopzD4btPrrnAM+zw4+WodXgVQuVRJ/TUszo7MW0dk+ZO5g5WMh6SPLWO5bIQVtPkA+j8JtE7mcig8PvpQon9z8UjJdizm61ndmfVCeVUEkUA+4S2ia9KBHbEwl7N+ExQt58OyjRAYpXoKk5NOje+y1paBy0IcmqVd5gvzcMOOEUf2ZfJamLlMw616u4knKjkvMuCMYMLZYlMNADE/XCQlW+9dY/WrJ9ZqAxEB58OL2qdPGGVVSmMFBlL7jQnz10JWH7YUeZoeXojonf+oWlCm401sek+vrgl2c5QSVL2EjrFe6NAAerTF3wbOowJCcv0Jeus+TTz5/vl2QL0xrRNMrpFeNt1JVUQdm6fuSZF+nZ/H7QSiLrmDRQBbHVEhnGsauZ0cAIzMk0oHI10ugrjz3Bat//wFqZvSiqZHLH3bayusYKp8gyxawdoCRS8m4X8szrbgh1GIqTyWWSgf+SvyELNVmy1NrEuWih9hGVnTzFVktULD/jbKv5+BPriHM3oo5TTvPPlsmaSI45zhKeMUBJli6zhBkVjKnLJEuH5KTwkBx3ktkzf7Elwkj5y69arriCGSr/4QdrVVcXdtndVkvOLpDNtOD2O2yVVGNB8q5b/xdWdAw+0stl/CJFJPST4/XsITGpC9rVVeVnnWNl8t/zd95tuU8/G7SicLVMFmJenO085njrPOpYmyEnYmBtvK445sEjoojJ2QiXkpU87yJbnDX8frWl5c882yuJUZ176WVVpv/kzXokI7v9jLOsIJt3sO6NxcXPczK+cWVvlhMexU+pSib6Z/o111nZz37Z30IV5Q4+zPJqIeZvXv5a7l2M9dx6FWQw1cmlXSkhPWhhWnb6jDC/ixxGr/9BWKaLYwWhbXcIswe6PnBSZdk3E60cr6FoQslJXM0ddcy6yt4qd0VGav6ddy333XdWW1drK0v54rGsXBlsAzXQORfxdx7CWxKhuIK8xyNGRqv0VZKySB5b7lfymYorGYnpNbUwL1uw7Pobrfrue63zmecCR1Lt5BN/Tvo/fo78g558Wn79tZZQgay4Kia+YwYjLf0qSelevsKar7omTHjJhyiuKJOMtVtvZysjfpjkOuCQYOhiyJ56ptlpIv7HuD1Q33EN1xZzLEt8Bw5vuFHduiytTSjrVTIWcLpswlde4ard97Qp//Vzq1PFO7cRVrjZWIkZF+51wMGW3CgT8KtvzGdiSpQBK/mfVLaYvaDXHavWZYk1z43LZd1WLcdqkRyzXtmvfFbVJEdL1+amdbvTxeu8xQWr0/91+h7HbXnnhnfDtuChNdO73UucoYo6zeu16unrVxDPMDe125rUkHJ5igvaiio4yOAebdmiorHbykVwpUqca5rbY9PgYrMqKE8A46x2kVmlFAJTpmXyAmbo8/IWs1nyCmr0HWuIXLN8voDeUjSNuh7pe2aiitcXBihbLFsp11XUvrxguLTtcmeXdiS2QsbI2vmLLXn/Q+u48W5bcckNtuTim2z5ZTdZ20U32YrLbra2C/X+UlxYubL6vOcPZ63vrhaT1KRP6TAhLzlrspqSxYvT6qxfSg+UtWvMXnvDjFl+Zl53knjBHszODxeTf6/rkGnDIa6FuD/zU5LJpSZj168gPsvtd4UHcqNS8gtChuHBxQfuqvesQOBfx/XQ+B3XDSYP+Z5GYhB39PeZ+ldwtZwgGaReucFumFY8OfgISySgk6ulLdRdiXS4O1y8/vHO8PnpZ1tyyOGWYLCmvxuQ9FzuY51Sl2lZV0Fc16efDbPIpX4MqdIJFadLmHbF70Ddod7wQ4qJz1GDTM6rwiavz++TnbgrJp7P9fjnKusqyLrC3gcEdq/3Q92Qz6XeWDt304kKuBenV0z7N98ye++DsDLAq1xc/zx7HZb1zbcGVThQtzMts/f+Eg21Xq11FWS1iq4t/gE34WanSM/++fFgfPJAXr/8ykxeoLVK/mB+SU16T/AK4Pmc76U6fTE1/o51ANb2B6ok9XjkMa9WqCA3Pzn9QfHFfIZIwHSK3Pj0c5lCEg0D6ND1iq5zUfLZF+u4SdeffX7pCvJM3APJylDBpumWsFJe4sJEDlMi08mdf5aiy/Lu5A/mh5QqXO+ULw/3UUWTf6rLT5fsLIHJZDdZQzNmpBVkTRbxkL1IIy454phg01E5ugZDdJAy7Eo3NYcu/7vuq/snR0p4Z10BCFE18bu0gh9/2r+CYnuiCwgicYtYFUxq65xzAxWfXn/73RCAwhxQuspaqjgnWW+i4czp3C2xxPOz3f07vReUSlfQcXeuJYxWMDPh6wD8AUp3V7etfeAhS7baPnBiy+3MHnpk0N+4GKHnaDy++jkXhOf2VVAclLe5fgXhnvCYMHWG2f7Kq5bgZwxQ1q5da81yoroRxPEBCGS4kVlaLlWSldIar74WuPjon31ltI+LA1aQmyNSGGmM3FzeLylVuru7rbm52cp//DFYyvw+0m+2kXkTAkYGLTj2jGjwyEJf1DaDcdCuvt4r6NMWiJMSpUs+MZXDDfUKYs5nK7jltsOr4OJWn4pxrF+r5w7KQb6UH5Lc+0DABq5jCbDDucbGRq8cvnI5C9GjraAamqB5eB5Lxzhb1KNkBcEQk+UsMcmNTL6WQ5MBOqM4dqtXjukS0ZgqqMHi85Z08zjp9jhZP1AFk4MOC0aDfpCAv4xooVubmpqsrKzMOVfxww9WqZsPWsGlS4MJN1BB6KuRjncc/IP1/AErCEBZSuBikS/YpCV2a6wcczTzZRq1XnGVVX4jThdVMNEg6Vm4yFYxYYQOH0TkJNU1YWoELh6aLqcM2MWy8fxiKsjEjwqVg3MRc076f/HV19kaNajqq6+shzWYOAL12rvnftbw/Q/WwUIPBvBgFaysTp+pCsKgwSqYMGPwlNQbXJw02bo0SPpxLiVmY2ewLLbDrtb0z+dtllRWL1Mc2+6o171s1uNPWqMEcLLDzvJrNAgGKnTx5CnhedwvmmIlK8joQViyoqlR1f3RJ9YwdWp/zkUSbqq//NJWHXOcde97gDW+9JLVfvKJNUpk1H78sTW8PN7WCvDJiaeuFzvYr4izCYGIaCygsNe+g4xifeE6WNZyt/DQNO5Jy337XRitxRUUManZ+MKLtkbd2Lv73rbkwkus5d77bclFl1qPxEXPoUdYjwbRYEYE2iR5XQ4acvd2uQlUbMAKpvjpOu9Ca5BM8hlYdc9AFYTo6roPPrIFt9xmaw4V3qRRVh90qC1WI9dIBQ5p4cxKYx+giy5T9w6hSbpVwcY997ayW261vLys3FPPDD49LCJEcfLUaTZr3BPWo/vMla/Syiz/EMWtmi8nBCHNoDycdRXhb6AKdunLJuYDmXY7+7wwNXz7HZb/QFysHHxqeMrUOpvx5FNW0I3Xjn9teIvlhFcQU4TVpN7ypQoqV6qCa/Vh/TbbWxmVY45QGOqbZX3gQctPnLhe8GGWymprrOn5f9laVkEniCtDFVZTmRzAKEHEHF60WputYM9nn1vj9jt5AETfxCUBEfILwjTwHy2vrs7/9OOAeAQGuUmTrPWHH4eeXKf78U/citHgYA27lEWt0e0V7NCNy1XBvsqlXMzx2fkXqZvvtDwD5pnnLCf1VqqSiKKWlpYhu5bwWvcGESsMDKz2PVPRkq0gY6IsFyrYtWihVcqK6VfBWEkNmtwVV3qYTo64yIf+ZLlPPhXH1N10uSqLEJ87d670/uDVS+bNC+4AlcNxeviRENKX7dpIaKbW1lDBpKfXGi+82HKsmxRXkpUADf38RZeE7r5F3X2nKitw57740nJTJtuc+fMHFidSk9h8ibrel+HoVjgneWn7qXKoteLK8dkll7u7GgaJSquEpce5lphE90ruuIvl5GznblMF6XJVNnfXPdYiThR++iksflNRwop4lXpMpCoTaSM3fBkMqpi7m9dcZ8lAIQUoC1TuG296vfoq2L1kqdUdf2LJRZ4+Ylli7/0sd+nl3t1zpRILkmHIMccU3InEez6nYvg2vJfwZ+uBV6wYc5FwHU47w6wtbJjoqyBl+U+TrOK3u68XMdyPGN2SlXMPO9ISllmFSWPthIBLcdP9Z155z+d8f/2NlpwkPwdruXi0ZomKMz+kHomlXwUpSzS0K3fbozQeU2rZbkdf7bTfSbAy0YMNx1QFS12nnRVC75kBI1SG7xHAcGwgrkFUnI0HwnW2rFdBynIJ5ZqDD/FVqNwvf9OHS+TkbJlTPgWXvTnvqXAxDVYhiO+ZKKJyRx/vMwnFpWQFKWskNubLLpx63Inqcomb//q5tajrEyznDUEs5jAnw9wPoYjEMJcoA1aQkkiudbe1W4dM8uUaVb1PPCmHvjgSbqT0aHCOCBaqqSUmoW+yslQZtIL/CWWLGfN6bM7CXpu7KITvsYjDqtOiJQWb3tLrIYCEBDamoX0103t8FYpwQBZ6CAlksYewwBj6x6IP4YEsEhEayKoUce4s+vxU0215vSfmvWVxCDHkc37LghC/Z1GIWHhWrkayEWxzlS2mtwSGsPrFMh2MnNfaawvaen3hqba5298vWV4wlvZoINeWZmKv1YqqmqQ95xZszqKCVTT2WK6+x2br/4VLEmuY3WvlDeo4vV/SkdicxeoofVYzI/y2TjRV72ctTmy57KKh7I//hLIFq3R1M7rVEJDQbVViWiWreOzqm96dMk2fNQeU1KuB9S0Fm7EwLKIVunqssGqNtc1dZk01rdZQscjqyxfZ1Nwiq5m80Km2TK9TFlnV5EVWq9dp+fBaNWmRVeszruV3DRWLraGy1ZrKF9j876Za55sfW/I36SUc02eZUpAiHRXpt3+TwpWbZ2+9bfb1REtqp5otWBDmQJj2Bw1D+1Ely8jlTSJsMHUvY5CFNpaX7NwLzA4+VBKYadatzX69ZXhlU02Wti7xvvgzp231+XYhNAQrYkPQttCOIdjyN7o/E5moMmYMzjnfkrvvteSlV81kxRtBaMNdylAZPhOZEv5pctAMGAYoeXQvy1ioMQzOofTwUMTvI6ESi/U8hIuava7UfYZL/J56EzvpbdC92frKrC8xvxjcKwaf0qYMzUR8nh9krjFhRa9hjPBgb9AIG1HceKwyVh+Yg2KKiLnMA4Xow2W1sQ6OrYtVBxEjF0PADzs6XEeDmdphkwwrw9HNLn7OcInraRfto524T6wYf/fDoFOeAzMR96eyypL7HrBEFU4YDjyg1MMHIyrGsKFiOJd0xLEnWkJE4uVX+3pocs/9ljz6uCXPPBv21uLNsFYqex0Pp494z+cs1hE9y/V/1u/uUR1vuc2SK3Q/7gvDYTI2Pc8tFaQ1HFJ7EyxiMdOXuVjYKzELUJqJrMqwVezM8wLjkCWlHjIYeeV3tUT/+0LgZVeFrVGsz+LARA+LyRpeeY+3BaEIuIYJdPZhR+I9n/N99Nb8Pkz66B7xPsyvsDqgzrErrrFE6E3kgNkOaWcW13UoAkA7qRPOOCcopqVDxXbJsiZEhTA790lGMmwjUlnyPVoVv+zKMKugxvreHhx5XiMx6/DqayFq/uNPfZkimVLmC5DJjBmWyD1I5i9IfXC98n7GzPB9WU7Xf2fJJ/rd2++EpTa8zOz9QbRe/fl/elRIvcqSY463ZM90SXq4Iyvlg/vxKKF35CWwiJ+W/kxkkp7lkGuuCzIKuTDUg3hAijqmWnxz7R13CjVCDkyL/jzIAXW4KSyA1tQFH2rJ0jARNpbC71mq4X4kAmDNiIbC1DjHQD2oz1NCM0EvZ58bZDB1h4YCCnygjXtIBkts+M6ZdFGjPxPhLr3HQgVOY6mbZSlloG8/lZmTPPhw6HXkFvMO/K+hlbwiU0id40hi+8IQc2RjLdzfn9MyL8wegXZEQDoiXKaKsclDGiXnXWRJXAEazoiTiZTAfDpEo5ayjolwld0vbPVMV2xK3gTiYSKCV5MT/xCigNg7yY3jbBOTOAzR+gZLOmQebWTGDVhYSZKFkRCQ8clnIZgi1pH6ImNv18gh/vX3GuZp20q2GwJcKMhbxScUje6/joloY3b5ssOBi7CbSt2EB9BroO+CS8KGcuQPw4Xe5ZWVBSo9VDz2YIXGty8JjWeWgs0P7er5sXQGnklzc2AmoiUOc9CJlr/o0jAhxrAdiJEY7syxX3yZ2edfen3WMRHVTePZGjAQE5ELyMlDDg9Tg5IvSRTmaESGrRSDy6dRFnb7906ebIX7H/SdIy5aaNgBstkIoiJogDXKQaJjhizLloUlc5QR7iRMRASByptuDft5YGQpfQBfYCI7AT5VZ2gED5+JoA9jlniiG24JZkYU3DDxgw/NmoSaoVZTiooHZIlWi5bInVwqZKyRce1Tqep13zkYCRHDKwGBMKBEbOdwS8LIa56uNn/SN4q8PX/VK7sQjpFRT3thZpYPo2YiFUcGEnZ5w00S0lIWMA6ty7DQzZIWKQ3dZqQuPEv/7HGqmzfPKuW3LsZg5tnFlY/ESGCDH3J4OBEeAxSvKx1IGDNLZA4ItQdjn/bdeLMlzHfzTNofnz8qJkYZuP9BZhdcHHYnIpAZAtBHH5uxz2Q4y7WqdCw9cvDZvUZITGVlpf00bZqV//iDtZFuiGfzzFjxLMFEIlBwx8bAxL5CvWV7OiKxKAAH7WOOAEaRrCGruUfMRH4IAgVrMmYkVDx6G3pQ8trrLltiHqDhFOLXQB6xHb79Lw2hYPsfITu+BXBTMlGFeDtiNRNWlFOAIOM9GFqipS+yARotE93JxycFhTyAjCEEqjCMZ8wKmn2IAvLY1Anz2AFYHByzOZkII5JZsy2JwxoxBUiwPM6R6xsXmUfFxFQWoCF9OZ1A2GgavPCiJSyPYnZkhmlxQebBPEKeQB4r5jGijSiOsupqj4uZ1NgwCib2T20y6oJslEWRyCpwOxKlSTuJUMJ1xULg2fBj1Ewk3p8EJZgx9BQPYQNsRWXYjF2CiUTZMWwbGsQcGBYjn9JQBAIqG1551ebIt27++z8sL6VCJJ5vlh0OE2+/y/ed9q7stN7Pv7DkpZfNpsj0YepuFMUDjAnEg4m0kw23f/lrSAN36BFBU1OnETORH/FjAtrYPQzzuHlkIlNlRWZG1LYDDVvQl1djp735trXLuO3dZXdbKXnbIGRXfvWVLZL96Zq5lMHLe5i4zY62Vl5Gm5TRgvc+sOXHnGAFZlmuUkdjpw5DvBQXdit7lCHbF/qYqBHHkjqr1aNmYkTiQYeF3Du4doRWOBNfCgYrLp2Q2J2Ref2GbYaBTnyn18qvv7GWu++1HsmbXj1v3p13W5UQ1aT7Lz/jnLCDBe+AOsA8XrEb9XnHaWfadMmsal0/7+77rGu3PYL//oyUAWHFg4iXkoXhrBHFZmWP0KB9/5LbinJhbyZxpXTiWIazz3bwI/aFRMMU33jit7Z29hxrXbTIGqdP79tsPygxtHVdmV7rx7/maOz5/V5i5n7WdvlV/hnBjLOeeMraJYdXHX2crT34cN+53X7JZTZr3JNWo3pOfeNNz6/XRUJJotuvvyHshhhNYcJi4SKfWvN20T7ayeI4riDtHzUTo0ZiQoLAC/JOopllkHaL2gX9RjU4L4EMU0oyrRTBSK7XsJ76zju26MabrJuK6pkEWC6R/z5DaKj76COrEmIrvv3Oqr75Ru8/tunSnO0XX27dTH5ss4Ml+x1ovQ88bAU2VWgYjxCDoXTpd0yUEBIL8+IExQMPhVAbdXIfL0bMxFQO+eTsEUebXXuDdf15nLUJDU33PWAV99xnZWoU0Vb5sqBxSzJtAAKRufK8VXz3ndW/Ot7m33GXdfzhdKFyH8nEXazw292tS0b+Gg0nXgsayolkYpfqt+rU0221TJAuafRefOFRcU+FCQ1CML77PsjDaGyzh4xUaoer3ZGB8GNUTATCEqhdQkibhlaDhhxJukiz6GFrDz5s+ZdfsbyGtjNxhIx0ir+TEqr4/nurmvCVTXv9DVt48622Fnmseqw98BBbIJez6fU3bY5kV8eCBdZLncdasDXRyiTEwj6EiaCQpQxWNelQonTHwsTuXX5n7TvubE1bbWsVO+xkZccebzmZO0SreVjdrX+03P0PWO7V1zyaEmTlK0bByJRQOgTYopRmPPW0dRx7giueNdLg7TKvlrS22RjnwfuK5yipqXHPKxrY7jszLSYm+Y6e4kWu4TIRN2fNtjva4h12toZttreKrbcLMbOQPs8feYzlSalJQjaYSZwiUch/+5vlJmhok/NhtKgUTamrtXLJy5njnrCVRx0bNDUJfOSWFZtUoyooEpwEhjBRETAQwsBmi+l5ApIjUKMwKtfhMVG2lZjYde6F1qbh2/irLa1cTPP0q5F4T+ykGJvb/0DLXXyp5WAkiISZBHvKNczJBsxJVjlTRsFIbEkQWa1Kzrr/QVsqEdIllBRmzZLsG63wC8XtQTkAybvvrXNhcfGe/5dvcEpOPtWS3aW0sAmzCBwWE3u6bZWM3dnSjJXb7WhlP//VOuYVE7kGQad86twZZ1tesioy0oe57L/8s8+GtIEwE9OHIc5QL2JYKSIjIK81tbU2W+bTCjEuLAmNoayRECDzGcHXL0iBuAYWE9HGTz0TtkIec7yMajFqoGk4SLzxQAFmm1hw6zezrYp21tfbLDGALCikvyjJwCwxvHfa1XKHHWm5y64QKqVwUjnpDNW9co89Ybnx4y339dfBAHeNXBqdfI+HUyM5RUQ6qRWHCvweqIBXny/EJyax9ocfW4L2hXkaun0LVg/+yZKzzjPbRyaWD98S6MsSMUIEBRD4ywZYlXVMVOntXGmtMmJrDz/Kkyd6fDaMKsXASFzzG10j+YmszKmH4tB2Shmav/c+y8vjyb/9TtDkknlo4zgVxvCtqq62OXPnyv1dNfK4RK6H4diKTM2xNkNAcMynAzF8naQ8mC9E9rHSJ9dzPdlXihjeuJ2Et7DWna4h9WMi9eism2pzHnjQqvc7IAQZDxa2nSVnpuSlkJmXw54/5zzLy9/2YX4XW1/0esttITvS3fdY/rHHrYyJB/dQPrUWMbGT/RAEEDH08H8lb5wxkXgvsePrKwRYsWZNBBeTwvi9rAUTeIDrhtcBwTQmTYiSwONSx5pEUEIcT1QcpWRfMXEdDMSPBoXikzNMpR8TKUl3l62U3TTjxputfGcNVRgzXEZCIBdi/9Due2qoH2E5GIrcRIOLsDGnyAasEWPnPfyIdcpHLeBukc6flHrsXNXwc2uBlblIvOdzMviT+4B1FhiGVoVZ/Rinz2DeM8/5ZLIHFTDdH72P4TIPiszG5GFZokJ2ZcZGXY+JFBa/V0mDzRHH2dBS9t+/FMoGScJUiiIzGeq8R3YecLDl/nCaVV9+pbWImZ3YY8yYIKMwMfqG2wgomidMGhCrI7QRhOW5hVlLBnGRETBtuIyLhJZmIoQ5RUQA+R88IHRdKcnEWHokW5ZKmzXL0WdHRpmGtw/xYoYNQcFM2sbq9Nqy9fa2Uh5AgcYRPkfyCYJECXi6/qYw2UoEFptvyEQpwe978xlC+LJ8zveSs349Byecp9+TmI/7yQfvy2EykJkyHEJDM3yRmTyHrXwDTAIPysRYevTjpRMm2AwZ2JW77ibN/TNn6FBKp0zfT5YoqNb/LepNMvySu7lvOMWG9g0tNR4bTOj3SQ8Co5iaj8R7Pkc7ch3MGvBeJRgzFPE7GEc0Lcxjp7OsiqFm0IfFxFgKa1Zbp8yPBX/5izWq96v3P8gq2AImte9Khf1BJINDs4tq9VmLDPNOVcyNVxo4GMWUucOmot8Ph+JvQRqvfEZnMKXGJMvFlwf7EUU1zAiOETExWwoSrGtmz7ZlEyfaIgn3OfIsmjW06k870xpltM4/4ihbKaVSYGodjbZZKa0DcZKYJwx9MvQxTNmUQ4aNb7/3DN2jiVAbNRNLFYzbgsyPAgYukflzVCm8BNZ1OYljs5LqAZPmq16EuWAmjdQWHaBswUafBe29Ni/dtzKvlRTbiW8Qqp8VNumQRK26KWzNYA9Lrd6zWadjVahE5+rE2A/DFg0OY2LDEBuBuPekmi6/B5uByAjHZiDez19csJnzwgYhNgHFjUC8Ns7ttYVLCra2e8M0cmOXLWbO77G5i0mJF3ZOwcT25UnYYaX37HhiNxUMpcEwaLRMZHdVlons3qrVtf/PM5Gs82Shr50RNgXxnk0+MLN+VmAkDAWZbDWjoTWiIZkIkiMTuV5MhWFT6gITyU3oO7RSBq7HxKWJrR3zrMOmKVs0awhTcY6KqZ3Onrtw7szcRQVvNCiEqZxLAxNhYGkmwuBeMTFsMWMbGsyYLKZNU2ewJY2taJWNPK/XWoX2xWJUk35Xo/f8xrel6drGFj1P7u+Gmnzd2CUcLqeGVYiJJJSsbg5IARV8ByM5g4fsliCsSkhDLs5clFhH6vmww6OZQ+jkxlZJbkMknazR+8mzw/vpy3SN5DkJKXlPMkpoaqs+S3/HIXYkpqwXLVywxtbOWxySTxKL3ZeIcqSU/pbUyOwEY3JiBLulhlO2gGnIPfb2VWs4ozw4rY/NknGYOeNEUxnec4SweRrubYmtWq3xJlNn9ZKVNqex3RoqF1tDedjbVztloVWzr0+v7O1jDx9Ul4v7/tjrt9j3+HG97+2rbLVGvc6cMtvaP/3Rul8YL3dOvvBY9/XhTxPxJVPGOGyEHQpoa2a3iZjgpDEmOEZZ/OALDruAPGOohi4HYPC6fGViy0ThPdeoI2UZdKw2W92+0nqaZ3jG+N5/v2ydd//JVlx1q3VccoOtuORGW3rxTSHD6KU329JLQ5bRds84erNTu963XaTvLkkzjqaHZ/D/ykuut66zLrLCCX9Is4ym2UZHS/yeCdcTTg6LT9iI194QUveT3+ubb33Lh88MjaKM3E5cLU42N5l99lnYoEN4CdvG2Bom78Q3R/5mq6INj6LizZADbo6Etg33YhYZ539DEFG2EAGibI7EtWNG57gTfbIiIViLWaL6xiFT1BWXETBRSqQ9XZ8d94QZp83hBeDL4neyrBhTxEL8P1KKv/Xfp/E4fS7eaCnj6kHxvvHe+Mu0gXgjEPrncfKXvwnyc5jG+PCYyM2w9knpxEYhFrRZVmWbF71Mo/FBix36kRCNyVLW381Sv+tK3GckxP28DTuHNtAmgt6vuibkPZ8prTgMWTk0E7kJSZOYND3rnDCDAuPoSRpSqnJDUWSSowTKIIXvWCxiloZGRWI3Kp8x08M1fn2KpkiRyaWeORTxO9aYaRttPOPsMNmLyzoEIwdnoiNwbgivIFUq2XZh3mgry28i8Z4DjXbXUGKai6kntsayvYOjflAEyKu4VZcDAslVcsSxYegRQ04+HaJ4aTQzMaWeMRLiN965KUBQQsyOk7dskKE9KBOTefMteXm8J2x2BtJLPKRUBYYir1yKlt32CttfjzjG0+QkZ58fIlKvuzFsub3jrrATnnVgkkf7iT36n8/uuNuSW/8Yrr1cv2E7HGvFYnxCIn0pC48dis8qVZehiN/RVt3H8/i+8JIlnI45ACMHZmJbmx/Ylpx1riqlG6c3LfnQwYgK+dDXK5t6SPB2iip24aWekygh4pVly3FPhQRwf0835ggB/fc7638+4zsW27n2Cf2G38JYNiddpHvSaOYFyU1EfccyctRm31lK1u9XJSPJU1iCkaWZiL2EhuLYmuwQLvWggShFg6OC7MjM6Z15boi0YlcUCRFZE8EQjkua/ZY1h6B4Pesr3IN7oVm5N/OEpJNmYYqh7nUZBSNpsytN/Y7JWpZgS+yUKM3EumlhfYPFGTYEMjRKPWQgiuhTBfy4MsQBGy9ZK8G2dA/i+RB9AKWBRH0MYfEKpsTN4pH4jO+4hmv5TfF9+I5rOaHslts957cvj1Kf0YCBtm8t+xJ5zSZ09hkWobE/E/lyhRxa9iSfemZ6kxH0INdRSV5RFkce69FVdr88A6bcWcaksZFhWUag/XHLOLyUhXGWTWM6+JgSns+oG9e8IpeQ32Q7IN6PZ6BZeSbbhy++NCxioYRiKvqRtAlG8sqiGku1TOpmGNmfiUQPEHGqXvT8u0B5JA+jcqQ2Q8BLm5OaNBEqXIYVD0U1lLCORAwhc3GioeJ7otmR0Njop5i6YmPXPcT/HLDZ2BQC7n+cpN9MCNGtMBULAuaRQzp9jstXnk0d/qi6sGhPDgpMpZEyklGl3yYPqFNqavoF1/dnIu4OJ6ayZwUrPo1RHJKokMh3XiGHiHMmSJKJA9CCmUByH4YaDXzltbAIT5aPKlUIv5VIBiIakMccpsFMC6mf6HGI/1nvZQ0kG/3Ab2P0A1vLWNBnsiEOeRDJ85mIYLmVLbYY1HR2Wu+SbSomeIG9StvYipdJ9dKfiYtUKR5M6hR+iAwpvlkx0UtcBwMZvlj77LyCaY4MNYgGgD6GIP4p2yQIBiLSn1TphTHMvhJawl4a7sWu0TLd+1M9g2fRFjoyDnFeWZhirwwTEyCSug8HkfE6dtnSHjowLf2ZyFbbmOtzuL2EvMDQlVmRXCuT5YknAwNBA5WmIcgtjrj4aVIwXNFwhGGMYfppvcK9dE+CmfxA40mTQ0gKz46yMpWfbhqhwZndgZHDkfuRH2h7cgQRMJWWdUzs1vAhw8elMmCB7lAo5KG6KSaMp0whvo/zFZB1aWV9HwhyiQyeU6eFnfRE6qeP3BiFe/suAk75Y0cA2UqoD1odBup/pyclJ2+SYX/0CR4T7gwaipHiSbLNjpaQ+pRUD+nk7jomMsY/+TwIX6aJhmIiD2UIy/7zDTMEDmEMSyN6XA2a8eVXgvCfPj1s+9JjIm2skn2GR8WSAobAToZ3WjdPYITRTp2vvj7I8ahsSrU1EkzccttwWghTgen84zomIlM455td7Z5MZxDbMO0xMjfZJRLUBPrE4RKHLzM+Gr5sshnNNrENVoQW32U1aUrQ4tk6UmfqfqmQhTWSaVtJcptRdjOTuy/LHGtt9UesYyJn8T77XLCnmBoaqFd4CDeTCwdqXeNRGYYtvYwiIZEueRo4GWKkci9jfw2I2Mw1wypcT4NRaMjmv6cMpK683i+/nGhZ3NJoE5ZqOzxhYhceobBYu1FZx0TWHEhBBbSRiQMxkc95CJmOiMyC8anm81wzxBgi1JnUHIviYHtETBYEMQEwlp0DpCxsEyMni5HMFWICwUDqjuy+/c5gldC22MZSbWcOgfnUx6VAUZIq65jIvBnQxscdiIn6zBXJfgfKC7jMtZx7IfToX8VEZCIJHjGOGUbprYdTuNZJjGd7BHmuE/W2z+pAyC/ZgglpuEbROX5vmUMM7eQb1dFtV9Aoot4oRZQqs0uRkSXa77zBznxUvj/AU+nPRGyowZjos78SwAxj3CmYF3edMpxlAyLIs1GkIymJ/nrmzbOeV8dbQQa/n6TEPCPEHCNaEUNd3suIh3QsdC5bOdg+gVyk7igZ2kLOxLM1rDFjSinWPiZqtD762ABMHAyJsXeYNOXEWJgWhTOCGvcNl3H16DZtY26vldxa/c671nX2ueEMDyY/6DiI/6kXszP40XgsoyxuKXDUGxno0vp7WyBiuv08hhJoHBMTuaErEyGCnmKGBHeK3mNtF00lv9fXcUdQ4sYeGLi8t8faJUtXygjuJjZaAjwBDdQD4n+sBoQ/nUjg+SiLD206AeWHmxjdUYb4o+IBC1agn2fS9jEzkZuIfHLyCLl1aoDLp+jSYQ9qaCTS7i5z0tsNt/TqNytWrbKZS9pt9htvWeexJ1oB66C4AbEj0Y7kaMdXHmXpk49oV5JnxBHFqxSlz5xLA3tio7T9Y2NieiOfdj/jrJAPkaHMQyE0HTvWV3WGyoW7DauAxJUyWGfPn2/lM2dYozpmDfYa83dZBmaJpLpc89XX6V1GXmI9yWxnFRXhcJAolmgbbWQeMiZgy/JiVEyk93kle/EVV4YNhKCQIUDP0ZP4qiM0qGHgKjVinhRJteTTT/X1fs7RWgx4uVYDMvHX24S8YZzgONaC28ZS8OdqA5lAaRNto43kSOTwJ54ZeTAmJuISHX9iyKGloewPQhgjC5ErS5YMyyaMMjDLwNraWiurqhQTp/nxMl2gbCgmHriBmEh9mGCdojYwIRxnnvCzmYknN61PUGwIJhK1797JA+sQKKvf04JOlZYbgRHMXj2GcGQg+/mmiImTGoREKavhMfGQDcNECmHH0+pD5k9mnmgbbaStZ6rNe+wrHqS8GBUTU3lA5krfRM33yI5Uk3mGJmagmdMbRoGBHR0dNmfOHN8E6Rsm2RRZVSUmNmwWJrpxL28oIXck2tmVpRwHMYllhYRcYSxUpbwYGRNBID+E1DAmW5MnJSvSh9hLr4bsHbh3wygRgZGBcVepv25GJnppbbOEGCMyvqcg8SUFdmWRzoUlY+oDIkfFRCZc5Sv6fCGyIjJx/BuWTMmtdxR+qYIMZNst228jAuP23P8IJi5fYUmufJ2Whoka0n4mMmvY8GDUTAS+rCvgmHMadPoANwVk7fuCTTqnVlwGUiJZBvreZ6i6evMykZyzGO+sJKZmjtMdd4V9L/AAXsCTUTFRfmTCHONd96YKJWUix7kTp4hgHqAwhGEgCIwM7GNieXlItgapM2Bi87CZKDNoQzJxbVfw+VmaRanQRrT0vfeFxMP40mNi4u/3toRcriQWUiP7mEjYLpt9BrAPowzk2LSsEokMZNM4CYM4pJP/J8lObP7XCJgYjW1W/wjvILdNOl0/4sKkhEaKr+KlkyneVs764jAHrJMxMZEUUmRneuDhddqL3mLGhgeX0MwM4aiFq4W0fgyEysqs+rPPbKYU1WxVpu69922Krmv69wueB2dIJh50qB+Wy3N6ZZ54Hm0SYzCxPExLoV9BQy9cGJZco9ynrcxUnXbmuoW7UTORG5yqG7FlNsvET2TesPVMFcgWEIgSKTZjIgLJ/0ACoSaJhmVnnWsdJ/3BZj3+hOV//NEadf+1YpDP2AzIxK0t0TUFMXGNDOWOl16xLmxY1spZMy86F2BYRZ3hx8MzPRaRSNa6h9Vm1lPgAUplUzAxauHsEO5DX2RiZaVnrJv953HuJ5M4aIG0IGn//IBWQpiZZODZxQyEsVttZ726pkMjYaGUQesdd9saAj+JWWQIsqYz0rLRmYg8GHA4z+8ztCMDBzJjskyskE02Q8Nm1ZHH+P7ntsuusJqPP7Zpb75pKzR8fGY5ToNFBvI/kax6XXXK6Tb7nfesQcpl8ZXXWDcNPFYu2pvvjC7Hd0FMhPkEFsThDBMBDgAa83AuqVjERIQwayBiIplDIgLRwjCsJBMhcuRIkdS/Mt5WEIm63c624qRT9f5Vl5MLbr8ryMXsdFhkqj7rllJZJL+2Vg0mSdsyCf4Cc4/nXmgJwQEkSRpp6ekNgGB9vJ9ieSgolpitadRMxMQ5USbO3VkTR0wkOfn0GVaQ39wx2BAuJqGxTIyskRBvveJqT0rOYc8koazVPetff8MW3XCzy8aECC6UDEwSI7vEwMXX3SjmvWY1upYklmsJO975t+F85bRRIy5ETui3foRKNHH+IRPnHpk4ktm+VWNMTMTQxOBkNSxa85g4cth7q2usQ+bFbIZwsR04EMFEeSiVEyfaHGm/1YcfZb3yCDqPPt41NQkmSUS54I93+NDmrHII1C647XZHX7UUCHnEOo470dMBEldDJO2o0/XLliVCo7SxfeIYjW2GEcHpuD7k5H8uhGLwgIJcpJXyneeIedV1da51h2RgSrh55ZMni1njre3yK/189GSHXV1Tz/7To1b74Ud+VPm0t9+xxhdfdpomD6n6iy+tRmJk5mPjbMUpp1mBeiJubr3dCnq2p8IfTSF+p7wiBBxErwxEsgzBbv0xuX38EKHO5CTOOIfJg0Q9qPOfz9vcN9Wwid96Fs+BUleVopjqCjTOfPoZTzzpZw3ssIuUzbE2T95RgxpU8/nnVvntd041X3xh015/01o0xDrlhhIvxBpM4ezzrPfd962wZMmIZtX7FeLTWW4gAiQykahcdovR9lFPQNAofihiOsiP2dAPGcqdzzxnLY89bjV/+auVCRk50lXBxJEwEsbrteaTT2yOTIkOIYuz5wsyV7r2O9A6Tj3dFl9znc2T3IMWX3eDD2nkZ0EdW9AQ65ad2S0F0Ku6F9CwaVNGUhJ+x2E7MVE5DBQjPYcia+tjmgrjB6lpkaDizzzXCvc+YCufeMrmasjV3H2P5R551MreeCtkpoM5I2Ai5IgsmyJGSsY9+bQn4l1z2FFhgWjHXTwtKssFKJkeQoU1Ono17EmPukoMXvvGm9aDchtLpBkpteobzPB4UJxxUhZrhED9aCNGM2tUTGRY77aHFY47yTquvcHm3PeA1ZBLlgye995vuRdesryMZ0+cNkImQrmKgEj8aJKXz33wIWuT1l554slh6ZQ15+13sW41BkXSevlV1q5RsPLrr61bSi0icFRMlGnmHk5ZejYLQzkuD5DkiMAllAo8GC0T3ejVDQoyNVbKlJhz5jlWfdMtnngyd8ttIZMnmeg0pD0LHTZgEZOGpIwYKJ80ySrFTEem5O8yuXO9MrF6f7enLddQnjnuSWtWh7U2Ndla+eajRl8sTFjMka1L6N3zGsogMC5UkVccXrBFjs2fY0EiQ6tzp11trm5UfcRRntqvTOZHjpR+vD7wkOWEIDJ3+vAsZtIwid9yBgETEZOn1lnd+x9Yq57Vvfd+1r3HvtYuBM6QWzZn6RLrxMBPqz2WElLlV1vy+luShRrGqXnDMghRYi7GXC+ko3JETNwhRaJ+2Ckkcuh57ZbbWG6vfSx37vmWk6/rySZhIiQNm1MDc7kyH56lmDRcgpGTp0212o8+skWSe87EPfezFdffZG1lOVtR6B17Vk9KOnOTyJRKSAuIQkEeaignf5ThLrvVR2Kk0TCxIOR1ilq238lqyf1FCityI8qwzV91TRjKYqDnRLz/AcvL2M1PlGz0tKejZyS+9ZSpYuIHH9giPadLyoUsw92y2dbW1hkzhmMdxi5Dyf+l59lrhJFkXD2Yw94bDrwtjsIYFhOJCpN30LvdTtYhRs4WAmvIAyYm9mU3lozKn3P++pk6Scj71puWmyRNnZFzIyVnooz3uvfft8Uk5GVHv5DIOrDHfafVHUsJyXkbg0YmtC56KchDPDMi0GBaVCgjZWJBxuWKrbe32dtsb1ViYBkojPSrLS2/zQ6Wl2zMX3FVYCKJJUGjHp6TMsh9+KHlJ49SyYiQjVNqa6zms8+t5Y47bSXmjVxD30CZBlWOqfT2hE1FHBcH0wjIAoEMZUYiaQjZwwMKswwcLhMLYiKVnkO6PrLQgcAsE/kM2bjr7yx30imWu/Fmy991T0CiyBPxykzwNPqjNHn4TVllhZX/8KPVv/iSLbz6WlulzuqVZ8QxSGMqyEG8E3lAnjIVkwaSkZ3IQ/FTeWWXDh3kOQATCXxc9ejjNveAg6zmF78OafyyDIQYzmKkv+67v+UuuKgPhc5EbEdp67wan2ftJDJyhMxEw5dNKbOqH36wOTJpOqqqrYA9VzSLPqKCTUi4C0uj+MjpyWjRuE4EBt+cHhmYlYVZJnq48VFmj49bP9y4Z+4ca3/yKZt24MFW9rNfhhyIxUyMjOQ70ptKduTlZeRvC/KRHNuutR9+xPIvvSxGfh0YKTk3XEbGmaAK/aZhxgxb3NlpY87UJIPcGVheGWZqYBxJylMXz9dSiEmMu1FLMbCPiTuaHSWZSaw6iYtU+pjYJXW/SDKi9vAjrey/fzEwEyEYSbLy3few/Il/sPzV14UhnSIyf7uYCiNffNlyMiHcECdRuScrH5iZfQyUXGxqbrK29nbrkk04JmXSLRnIQbec1cKZ1f+U/EORwEgYyL5rKTDPrOKzNSWGcSQUDefwnyDEsiEzjf5Yh0Sp/DYZuFN1Qdl//dwzcpZkYCQYSfp8mSC50860XPRkUo3t9qN6OPe3v7uyQWu7i1c+sEEej2LiUDBOGeKcq9EWN2PQwigRZKD8bA8pFgPDZqB/hWBV2Z8eGx7nDEsxLxIoJa8OK4AsJaT5c/qYSGbO5T/9ZI3nnKfhLJk4HCaKciByH8nHs85xRZNDW6Opo4xkogKt/dZblpN8y8lgRgO79k7lpctAMZAzrTgYjDOuusaygQgFwhkt0xqkhb8I6Q9gXopA3+XAUe9E/R53kiWRgcNhIiuR7FRlK0e6zt3HRMqq+nrz/NrSQJ5bGyrFwCxxDbYkiISR8mb6bEhkJSdkMMwfedTy/37B8jJdfNYH1CEvGcJiIlNjDY2NPoQ572rEBcXB0F8j9LEKqfv3bZBk2CL/UvJjNok/JOMJqWJg3kByMBLfM5yJVxRA/JTftPRjYtf8+dbyxJNWI+Xi5s1QaIRAJNdFRJ5+1joZKffJX9HgvN73gFzEZ93XZtIi9803Vvbjj1YhBnLGVdvSpdY9Ug3M9YSyEFjFvGBVlaPPZ2VAHgtPMBGbECY+Ns6SG24UAk8MDCG50FAIhOK5LIcfHdIjkAUvLf2Y2LN8hbW9+641CFF5aaGcTJ2SjCsmGIkNCSOFyPyJp0hrX255UMnwhvBsxMwgKx+ynIZTmVzFCj2v6dtvrV09283ug1Wrwj4Y0MhyLEyC+B/iO67BbWOrGTutmA9k1yebMWW++CnnMA8mYkgz2YprJxltnHtP+pe4IXI4DIS2Zw+PUCuzzjPOZ9JG92MicnGlZNUsKQgyvXtichhUinHFlDKyL12+Kpo7/6JgkMfhnZLLSz2j4v6HrEmmQpuEfpfkpZ92VjfVkukzwmyzhmVf+gL+l0lBdjkiuPzsUXZYfSaZ9+774Uh4GIYbF4cvQ5nhiyF95z0yYy4IBxlGGTjUEI7EdTvsEnZb3Xu/JeJRdsNTPyYiV7rbl9giVahOtpArDhgzEkZCyEgmKzDITzy5v4so5k0BlaKme+639nFP+oE1HjPNxkrsOKKzPvokhIVw5oCT/idWhqVaQoPZMUrMeEymAeqYD3TloaEL+pidYSfA5VcGQxo7MKYtGAkD4/Usn7JbgrPukcFp6c9EFdYcOiqrbOatt3mq/Cn/NYTNWIoiKukE2V3ua59zvuWuusbKNMTLxchGeTZtTzxl3Wq0b+cAObxCkSGliO/idfwmIg6ZF+UeM9O4ZRy2wEG27DaAISiG4TIvEr9h7ZtZHdXbD28gH0WmrMdECjZj+8cfe+Lxsl9uGRTMcNEYyRmZInNbyVeG+FHHWl5DqlFDvF3yqZuchX+VywVjIkNGQpHhEIxTp/iEqlDvB5axkZHYQgzokaAvEtdj1sBIPBqiPkoETJVkIlBdKw9mgSpaq4a7pkbJjJiRIhD5K/nh+m2lhnjjfgdYuxRPNxu1NaSNEyseEWpgaFaTRoXAcI0ZTfiM77iGa/kN28i4B/diAuHMcy0hSQbbymACazSjQSDEZAPMZxjzbDQyLmRRKc1EFQKUVjdPt3nq4bpjjnMGlv1cRjhMKcWwQYhOqNTvm/Xavv1O1s0BDQSUH3+yGn12SJPCujYBArIpPR0Mq20EUfkJGCI06/36jO9IZMG1/IbEQZy1gszjOHniKWk4COK1FHOGIn4HA0EwDESzNzf3k4PZMiATKWxP6GxssnnSbjASNPlxIsjIYaDSESyqEDVLa7fvsLN1OSpUOfxUtCTrGKztskhOpAUhK8T+cD4AAU+nnRWI/wkuIvyX0A4iE/gNv+Ue3CtGKsR14pGij+upH+iljifrWUR9YFgPYr8OykQKm79XyZedr+HjjJR8dN/614NrbRjOMSJlem2Uj71EFeuOcskbqv+pcHaoRcYix9hXR1gfDHJK35Nv0RkmO4/fwLB4n3j/LGOGS7FOuHWgmANxMJdA4BAe1OBITF+B8WrZbgsljxrOPMsqd/u9yzvsyDLmHlE8mWEO+mAeTK6XudOmodFDBUtVHoqMjQ0ZDmV/U+qewyHuA8MYuo4+fYYWJl8uAVLM9pcewf3KkEjsK2Ik02VLODZYxnKdhHfV7/eycnk2MMvPshIznaEa7hV6z9Gd7dtJBkb5NBRFRA2XSt1jKCr+PZ0A8tnWQRwmyZWwS4nhHkAGFpfhMzEtHLm0sqraWmV0zr7rHms4+1z3tct33NkPTOS8v8qf/cqapZHbt9rOepgJpqdxm/x1MxKBo4Qyk/dHCs7TWh99rCu2hKObOBSWvGMcEjuCMmImxtJN0Lmc/bb3PrD5MjVmyi9ulC1VLw9lprydJYcfaV24WE5HbkZKn4/NSFor9uQQKE+CTXlQbip9+JEl1dWjjm8cNRMBekECF2SulV+7Slp8xaQptkwG6coXX7Iu5uuYNWYFjaVYXjcLPRpePXPoc34YYkLQPhMWJH0jcRq5y8YwfzlqJpYqSXePFYiRYdqc9QcWcjiVBwG93kk9m5pmhRhzEh5xTj+50TZQ2aBM/J9atuDEH45V4oCZ+W29tqC9YHMW99r0eRxi0+On93DATesyDnJI/FwWDrhpnrvu+CWIkzTie851qWnutqomUXr0SPUMfa7v6nVPznJZtLTg57nEcwTx6TnXhbNgOCAnHmcSD8qpagqH5XAmDAfkxJOHOG2Ig3Ny08IRKJxABHGKUV6fcRIRFL+fNV/tXFyweenxTtzDj3iC9D3XxNM/4vP9c7WN82WoO6cWLe8MJxeN+MzV/y0lyxYtizgEKJyeNGtBjwOQzqFDps3s1nuOreoVEMPpIosFoJb0eKmG2b19AKST+AwCSIDbj7XSfThICDDyutGAOFVA07UcUEQbps7stYqGHj+YaFJtt1/HPX3Aqf6xDdTfwQYBONH/AnHTly3mLuoRCAGgQKKOhfFVqTTj6C8ABUiRhBxtAxCRkHQ2B9HRgUjOOQLzInUQ38cjvDiQKXb06IDY68SpV1VNHO7EPXXvhZLKnIAlUJYLbJNqkYgMnF7/jvrxvZ9+pefm68NBUYCTzzkZCwk/X/WcIQnZoPtw5hEnZK0jPT8lTtSaqkHHyVmzFquOsoeWd5nHZQw8KfG/ZSRlC86YgwCdSx4Rx6ZxQBWARBpEFQ24kERIHUDoqlcEgJGqgDBKTL+Gzk1B6Cpa/0/TvWYKLIsEBM5o6kkFCnjsVOcuXGbWLOO3bq5ZzZxAVbLvKmXnVcvmrJ8nm1M2KMT/FdMTm9xYsFxzYnW6ls/n6x4LlssmbDdr5FQx/bZc19Xq+5myERcISK2yExfqmtlcs0DPk/1Yre95BuTPVh1qU+L7Bt3LgYhE7Oi1tWtkFGOhM8Xzn0ZxaZT5u/8HpPYW2E45qa2KRk5HS4Eo4ui5vKQIKg0qT8n/1+dOnKom4jc1sgsBnZ/pB+hEDj5IQITcRkS9LUpsscCwUn2YCkSXLJ3i16JOs+kCR53AUaOOdxLgqlKqhgSKKlGFwJIXSHOivMDDe67hN7Xpb7m2UkCqEFWJ+D3fxe+5t99Pr/H+fOa/pQ4irq0ToZpnz+iwRdMW2IqKBuualLeEZOuktZn4rR8W5uTvNyXxzPS534l++NFs8mQxJq9G1IQJZfL+kLZmZaclvQLqf1jZAtU0UzRb6hKpxgmcHGs6W/9z3uF0fYfxj5pFFUKoPH7HNTg2qNpmScxGqXGI62cuwOkp2Nw2edBLRJJSSCokXrtU/Ipla23tkg4r4MayRt/QZGvz1bbi68nW+sFEm//alzbvpU9s3gsf2bx/f2QtKc15/iOb+Y+PbPrfP7IZep31z49t9vOif31ss/TddH3W9LdAzVzzz4/8u7n//tjm6JXfNuu7xr9yzce6Rp/pHnzX8sLHel6kT6zlxU+deD//hQ9t0T/fsSXPvmwdjz5na+5+2Hpvvt1zs3vyeOjKlOL7TUlsueGV48OuU51uvDms2zE1ygzfY0+END/EdZF385NPNGgmhoTPVdV9YCXHkge6+TGGm06SboGNBrkkl1jKUvyujzSQmPaI74uv606ph8/Uhl6Ia/RB75ou610u4C1YbIWmGVbIV1gy4WtLOJSDxU/O9rnhFksuuMQKJ59uvUcca70HHGq9+xxovXvtH2jvA0QHWs8+B1nP3iK99u57cB/1QPsE6k5foX7XZL4f6JqBqLDvQVZQfRLVJWHFh9B45sP/E4gVp0iso/IZ29z7SHVldYocqJyww94IDkW54GKzG24KYAWonAM14asQzMMpDsztk8KegJlBlunGWjbyHJhQuVI6uEU6k+gfcsy/+KJ5bAejlZV70nywPkqmX5i02+/NjynbbodwhORvtg5HUUbaUu+zVPLoyRK0ZYnPiolr+ij7nPQzv051Yl2B5UDWGFj3+E8iEu5Sr0jUcyvVd0t4qfpDW263bjmTpVV2oLLuTKAm4b9Er7JTPiYNJiCK2WsmhIld7BlD5O0AZcMDkVHD2SpkbaqoDI0gMybrGOTHZh2XRiNRWK4kuJLFI5YqobgiOJYl0NFSdvm1FGVXC0dCBACUut9YT74cC/F86ga/I+/pB95TL6Qn0SlEfhBdcvudIYCBaDykJVmw2E+EKt0AZcMBEc+Mis2S5/C9jOWXXjEPl0H0M9I45JEk8TAhBivACF/6TTvMOy3tpGLGbUjqA8IglI1AKaZS9yxFMWVEKRoUoFkquueGpPiMyHso2y+8ch3BxPQf8WEE2ZG4kNiyb7+XZykpieoeoz05diDyfCQgJ53irVFB0lSicokloBGMsqg6GHnZmINi5mws6uvYDOP7BkD8LHMNAEBtUX9sLt/jKim+t9QYwXrE2u57YAijypLsSP+ca8iLz2mFbk8SPSRbjfuxh9+foWdmqa9eKX+gvvqISrVrYxDPivWgvwh1QFpiMsETTi4krIx9F2yp+laeOuu5Y9hxOXogooJXrZb9JxX842SzF14OwYLEvlFR8lJFG4oGbS5GRvJO1XcOLAFiD0AlkACeA6WCCI8gRg/pTS5+VBLZ5RhQnMN87vlBGrCLHFWFmUGOwcuuXJ8u0eec1UmwpZwvO0+/O/dC3ec83e/sEBfI/Qmk5Hk4DmxXJTEa9aFehL5F4NKmUu3xNm1CvvJct0PVrwxa6gqPyDTyLwkgNCEZ3zslmEaoskcHRNKOsg2iLG/Ja29Ycvd9IbT3wHR/cLQ1+gCwkZnF/R188TV9ZoxxxN5BQglwfgQy289OOT2cKSCQJJz3ctW18tpvDidd0h55kX56phyrhE1D454Mh92QLvrp58JeQHJEPPfX9YnP+Z7rnno2/I4Y8sefCImK2MXA/e++N5xmSbZoDhkTiBOB3U8vpn4Cqu+zka3m+c2RrB6PqXZl25mV5KX4s6EoPhOif9XPfpgH21E0YP1EY0JzfpJgIuplBInrRwZE5m+Wy2tqaPDgKT8857wLPK2rV9TFuEYMQKSyxQ3Z0CTGAHxnBoyJu8WQJIxWJBySRx3r0umq68zU6X5WjcDmUxYccPnncSH9jUDjGw/Y3cGUEpuxsnH32dh7iA37A1HfdenvYqw+FM+C5Dk8j51t4/R8jgUj3ouQdOqHiUN9PRxdnizH35x0Wji4cn+ZPUzJwAdvu8hBsgkACfEMIiRjf6NtqBNSn0OYOa+X48SWLhlWfNjwgcjN2K/JORcwmnh9VAv2E1MBEBJwYzKBe8NsnuMjchcHoB89S46Sg6VeUasAD7XJ4Zps2QFwTBk98XQR0DLbhqB045p/17cFKX2VpPPfQpz9AZHLbiCK18Tf8Hu/X0pxG1PchZOtC/9zPBDP5rfUm6PE2D9xxz1mNwicl10VDpci9J+IS9Q5ahzeIBDiwMQO3th9wjPZIgX9TkKArQjSLt4WzohiBoUsbIOUoYGIN8y8ETtf8JKeEWM44YVRicoDGLHhG6vB3DeCEOJ/NuWRcVKSzw9PZSSyyoEkQbIABjqfXK0OLFG24wckgQAgRIrg6Efp59nriil7XTFlrytZhyKi3pHioKB9jz0Rzji57kZLzr3AkmNPCHvu6BdAGXlW7J2X4vFYiHv6NJxwAPBxzNBG2MvUkxUckrBh0g2w7j04EHFIZHj6llgOH+QAVakJ73h2qPepg7ShpSo5WsoyLt4f6StbjwNbk5NPlT11cTj++E7ZJlJpbo9J0vihY1l1GDvfASkpk5KfraXP/TBYqVE/6Zxs8eSHeOddSz74KJzCy75pDnH8/nvPmJxIKxCenORkI3MeV3llhvSez/l+clm4ni3EHLD4pe7DmTUffKz7vxdWMXjeS3ouatzVdgrOTD293iXMBD+xWN+5LfqIbNm77rHkeoHyQvHllNMsIQmTvPtEpoonNfa+yvC1FN9HSxEHAFGgZP94wvHUV14TlhbJY8SxCn5+9/orNIMDkSwA8oodhDScPBMAADBEFRBBsiEaFu/jDdL9eWVkk7STSXByQJ5zvgaDHAsMYwx/nIMIJOoIsCLgsmqQzqUjMSs4lfjNt8PR+uRY//KrwCiOzQdEVdUhDVlTc8gUzUBcuCgkcyIfB2HoBA+QBHn1mpBmIhLv+ZzvO1bq+uXhpNBF+j28nDU73HdqfXgOzwOs334b0jayjZuzHDmnlowL1Jczx2ImwkybfNDRXtpN+wEmnQ5fAOU1EhpIyhNPscRXrmS+MJeb5e+G6juAHsGOE4PJpH7j0JDkRjmB1JNzggY4gnZgICJCyWFUWWX22utmJH1it4c8YwcHIIxALFmxEVJkDgRjJHEd8IdrVDFnxS4T5q0w5DkAHvUUwQVFSRJB6FJEnyFpAB55SFjl+eob2S2TzLd6T5PTxbIVJ6Fy8AhZHJh6YADG8K5sKFVWrQygYvpK8bUQ94F80V735zk8j+fyfMwf9jWQwQK+cxbx16ov+QXIP/Cq2kF7aFdsZ7atELyAD/AHB4xE/0yvoCZZvmOqiDlQvG/4nOV5qX4ZKdGPERt496xrn6rn4njRDyTeLspTQBkYiCxyI0q/+FKGsgx9tpnjHQNCHoZa3hAN4F4RhNHOZO2TaRbyj6J6WaHxnTuyN/wgvZThEYB0BFIC5vM/qmv8G/LsPw5hWWTZJX07k64s4pPihNUA5kGxWwDbUMDa2IXnUw/qQ72oX7sEgerrUnSaJHRe7SDci+3+HJ5FO2kv7ab9EZCRNxC2MU4TU1Bk/EB1S6v4VjKmtABLBGPsi7H0aRbc3IvPmFfGgWTt2k/GFK6KDoQoDURGLaO0pjaMQrzPI+Sc8BBcdR7C/5GKKzMcir+NgIYhMAYGMU2BAX7fg2EOjj3Gzth01MdMm3QAXiWdwOeMOLKWyJ6zvEZe3GIm9WhSmRtqXXRTFz+oloTB9AkDafr0sI4PKGXHugqHP/AheujwB8kYbUuR25Pwk+kVvFom2TmwjakuJCT9EO3+sfYrxP2Y/MZ7Z8EAZ5I+Alds++Ok97SUBiKdxooJXvKTz3gawWTv/cP51ESeUNlSlRguZSvrUy/7BAeESXEmlZnw1Sh2ZwISyKLt5/ZfhtwuwuDn2BSpsqSxybcRJjhZkup+GKSaFOn/xZKtf6LO81PvsUOxWZunWzJFThH7O8e/nuZSEviglF9OkZfx/TN/CRP2N95qydmyu9FA2OIIhGz/lOq/4RI42Wo7S7YUyZPHXvU5U4J3MUPWCmdpWR+ISEPO2wa1b8kuYYGbuDUmT7dO5wtHA8Rs4zTiyNbtlTtEI4X7Y8PIAfGEooxmGBq9SDEu2EMpAPtUr7xaDZakutYS1rqpN3ZXZqT9f11Q56hyHCiCi2unykP/MdjCUXUDSOddSryPvOX947K3CZ694qqw9MicJKbRrgJklIyjBSQ4QXCRXRKTjsiru4UncmnVTVW91V+pSbQ+EDGkQSsBDIh1on0R36xWMIse145LPXgwolGxYbvtFeb/jjk+JG29+dawSvNMagPCLKgPgCIAiQdJLgGOL8OQd+nXKk91tdoTGrRe2dy23yYqNNO9dpweTBIWHj79PHjfL74c+Acf4SmU5TG295/E/1tuC9FSHGC9n+y6YoemVL8ORlE1QwARHMlG9aRtOIyYTQMCEW+OY9a/nCC1LK+L4FWS+1Ap7MPRLN/FxvA7AH3w4WEt9fKrfA7QHRHsGpiFPQODxDSfitD/CctkZKMDgDC4qSkkvyVf4uaw+8Q8t9vEK/LT+nQEDgavvIeH1GtzDAKeSz3IIUnuHqltdxAYwNHjjoCEz/Cbz+A/Do00oM/9MVPBlBn9Rd8h3UYqGenvKLwAYpzklrlnE74OUzloYJX1gYi3zJQGKWDwlhkhGJojBSKVFvWtBUO772nJQYepkWfKG5Yz8tCfwtHQSN4IQl5hEiDUq08yc1CvVE5S3xDm47D/yHKfVnlDF+4bqV/B3mR+kKP8ZLok8sj78lyy2M/ru++F41SZI2TekDnHTWyn+nMKGiirZUcKkG43//hTODmPeqb8dT4730W8ipJn/xpsdJI7n362JQcfESbEYx/S92nfluz3LHFtxAwLICR+Yc2ftX0GB+k3UkEyMBDJFk3CE0KfRgNErtEo8onNXQVGnB1O0SPxqFSxr4QANuwYJB6MYKRGj082jEf2fP5lWLGYIxuITsVQVzU3Radyfw5pKgj4hXnzrFBeYQXZpQXqTYTOFZIcRPAwYUyePV7PUOeRnZYkq2qLDyL25wBeBlAqATZmyfLHBwGDh0FRKT6yuoN2+Rc2ooDo/BYokY7qC58cp32PPu4H9rGHKOEMOuZ01a8J84NIx+FioBiIhNEh4NBumxKI/sqMPgES5KC/937PENnnyWWlIExhpKJC3pOk+UGjmNGM3YO62QSdGAu5X3vl+HQvXGRdubx1j3/NumVG9Ap4hYMOtQLr3FI3dM56bUcNkUKPyX8WAXAGcB6YzMWkGCIAYIMXTASmfzjAcLq8bA521QBx2zEOfvhPfyAVeQWYZFwiYITdgQRXEPCLJBwVEMUTYi43CRCpJN9B/M9vmKMiIoZomHsEQhwSPLasFCTKhFdAybwly1zqfJ9QJ2NSWtkNXXBwsk4O/8lV8wwOnZK+HRoEHTJROh9/wtZccrl1pWerJlszJbGtT2dxWqWvItA5vPKemYXfbBu8RfiCbcQgZOqCo+SxjeDzJi4uHZHKxAoyKEjcztEp0btGCNAP9AvCgD5inwpZUgl0IfHmgXJisBvp3+jEDKSmNysQ6RAqx/VEPjM1QyOYBhr3ZGhonD6IjX9On8GMt98xmzgxuPayBV0KbiKDv1cMWSO1v0yOxsJVnTZv5kybLxC2yY5dKSnICZ+9O8vEiMtXaqPbv4PxoU+N6T1bCJhAxkNlR5wAsamLq2oGH3xlP/m0ejPWfzmOixkJFwqp7Rj7iP9xWtFkV0synnZ62FQFGGkb9B8DRCoSiQ7SZx5RfIJsJjxj7CkilLE9UpXsIIxEmDkgFFOSxsagQvBIVZ1IG6sUJCU42aVDEnDx0qU2o73dps6fZ3X5vE2X6lp87Q22WrZNgcFFvJ2DMJX4WR4UE9/DJ65nOyee4+FHhzV7wqJYWdjEJcvPhBNelyx108c4M5gjfQAj/QH4skS/CYzJverHK6/2o8E9KpvJb9qY7f8sDzYpECPDY4V4IDu+jjlOHrd+SzQ08YE0CJFPQ+PI4/+XZKcQzcsGHBb7sQc3gdpCMvRIAq5atcqPGWqRuqqfPsPKZ8ywKRoM5T/+aI2qb+vlV/rRvQ4kJvQHkwClCCD+Ot1PTKwggRsTvrKR5lTdKIX1XvhNxD1gxG5k9yWzGPRP7CP6jfld+pFtpYCJ4FdsRnBRjIHYdt5vUiAiLSBGCI7JkRr5bDhiMhxjF9uIxsQ5whj1jDpmlh0Qoo7lGGzsucEsAJdI8s6TN9zc3Gx1dXWWr6m2n6ZNsx9F5T/+YE3P/8vaJAHWsqmJdiMRaedogMgGd+wrImH+U4CI8yczxM0g1DT94GpaGgrgRW8aFQ04MSuIfrruxhAPQCQPkeH0e8TAZgcin2E30GnZJTsmq5krjCOLVwJs1TimERKiewh5Ip1rhzqHyeANYBcWOyKo4G7duxiAtbW1foKdH8ZWVWmT6uttUkO9S8Qm1bHtymusa4MB8ZD/LCDCH/gts8RjC+gHFjI49obpHYJL6K+iSW/vV5wv+hne0O/0/2YBIg+MpPduF+61n59w58GY5LEhFg5piCqmQRGMaljy8qshApqgUAEi2IV69gYAYSwAMdqAK1eulBZqs7lz5/qpf30A5Cy2sjI/UnGKgDhZIJwkVVX+40///wORwoDFHme9mkOrJqk/WMPnHKYIwEj0o6SiL0TcpP5lTpi5YeaIS9mLmxyIomS3PXy/hE/qXnZFCN9n9DCKIgjj6JJRTEaqhGQ/rEDMn2+JVERWgo21ZJ2Q1tZWmzNnjjXK9qupqfETFAGeH0eZHgwYJGLV/zwgqrj2YJ6R09Kqayz56mv1j5xHnJdoTmHj84rjwtZatsLiiBKxf8Ah4XTIIkxsfCDGzogEw8mEwHVnnGWJbMNEtgTHuPU1IHpg2BuvvKZR93EIzW9sDgGgPHcDFJiKCkYC4oQgASMAkYAAENDF1yzl/ocC0QvBLnjRhJURTkcED3GO9Bf9ltFqvm87XQb0CXv6PW5tzeKC2YWNDkTQDvFwHoLRetSxIZKbTF9sf8QhQaTTABoC4aCwOYkNSRUs3c0N0cgwYpjFR3CR9OR91gnBC0YFZyVgpGIARvofDUQcF/bYsBSIlqKORO7QX/Rb9KCRkACTHYSc1ne++pt+p//BAW2O2IBXmxSIGKuEgxM+xEZwjFk2jMeK8xpXT/DI3n3XN9J4+HuMooERoyhRAnZ2dpZ0QgAeKrgfAAFmZaWVVVeJqp1ysg/LBNpJjQ0ipm/+BwKRjV9klWUulzBAptVYYckCEQmJcCGChjlRUq+wckbYGDigzZsNiKy7HnhomOjEm2IpDycFEFJxB6IaQoNelN2BMTxliiUzZ7qR7M8sknBDlWgDAsA4DxglYATgYNKvzzYsW/daJnDiMUeJ2LzBgXhoBojL05ao0HY6BK0QaYT8GHPheTgtK1b4ts9EPPFsHtiJ9F209ZGQ7CpkH8x9D1jCSZInn+b936eeNxsQibSOMYYskLMngopSaYgGxIAGFto//iTs/2WbJhmkRsD4rBdc7IRkATggECUdK77/3mo+/dSmvfmWNcg7rB//mtW9955VfvNN8JynTrUKpm9U91a1Zy1LWhsCiGw+Yzcb680RiKTURQr52dP5sGeac7DIP8i0yig1xaiKQOFBxuQ1Yk8MuwcBIn0Xp+A8hYqEC5898FDY537qGWG7Khv7o/cMnzYLEA85IsQZXnN92MJIRQcCIvsrKqtSbzlVy0MAMc4DRgBGJ6RanYYNiPpdTwVDTNHoe6Re+aRJViVpNFU26qzHn7CFN91ibZdd6WBrufc+B17VV1/5PSq++07v/x2ACIBYWRlNWhWA+Kutw8oKUoMUKN9MtIIctJ61a61r3nxbK2B2PfcX62GmQRIzIR8Pc3kkxGSzFEG3mwKQ6gMCfT3mU3aiB58AREDYD4gijm1lGoddliRgYosBSaI2ORAjGHkwFWDviYBoxUCk4gMBkZFXFN5VDEdswCgBR+oFR1swBxhlClROnGhT33nXZj75tLVK5XYedZx1ychee8DBtkzMbLn7Xpv22utWoesqv/7aGlX/xWrPGiKVARQh76MBokCYbLWdFXSfXgGx68sJtmr2bFsuab5EoFz62DjrOOtc1eMQz9HtNhdLgXitSCYCFDQIN3qJQGTzGacRABb6i77LAhGiLx9WP7N6Ruq+LBDxljcZEIsk4oBAhAaUiAKiRnuMYM6W6ITEteAsAIfrBfcBUYRKrlSnT337HZeG7TKyAVhBoCqoDauOOMYWXXu9Nf3jH1b1+ecuGRtefsUW3nqbrWJvDbl2AFVkMGAcCJDxO4i1aaSpeNUt4HcIiIvfe9/m5PI2c9Jkm/vyq7bohptt+WFH2dodf2vJjuLpoUeFrZfknEQqAkTMl41d+iSigFglIKqf1peIMTxMfSmJ6PUkJ+Yhm0siFgMRqcFh1dFGfHZoG9GXlTr7e8wcKRa94GInJDsRPSgAI3E9UhOJqPc4IDWffW5NcqIW3nybdR5/kvXI00sEgK59D7Sl555vsx79c7AXBcTaDz+wWU88ae2XXWGrBdRejHHaDrDgQwyAiIDsA1/aAWRa1fUFPWOtgLbsokutRYOg4f0Prebrb2zq+x/Y7Mc0KMTjVfscYD1kN8Pz/IMGNCemf/Zl6CxCxjaFapa9GmzEhbIRqwIG1rMRBcQ+G/HhkDKP/S3YiCQX3axAzHrNbEskdu3p1Gv2NcsUiCyi93nNZSHzAtMYAl5BFerCBiwhAbMqeMQkMDogIb0v//4Hq3v7XZstO2zpeRdaF4G7AEBtWXX40bZYA2nGM89a3bvvWfVnn9nUt962WU897VJrhRjehfp09ZMyGgKQ2fdObJH4vXXvf7Ct1AAlnGy2QDhNtl+1bC/uP112IZ93HnWs9e4saSiAJwceEpKGsrekts63R2yS804kADi7JFnR4XO7npOHRQcBkfA97z/6EcFCv2a95lPkNWNHs6gBHiI24MMmBaLPIxKJfZLZJZeFEwTIu0LFPYGQXtUYTxrEPKJUE9tV8RR7Fy6ytfIgO0StAuCcefOsMSMBAdOQKngwikAUmJmeKRODq2SjEVmzQHbYipNPs26plILagnRE8i0Rs+ZKqjcIDLWS3jViWr0ANFNtWnzDTbb8jLP8um5JMdS6q2xSsumV99377G+rDz/KVpx2pi2WDYUpMO21NxyAUL089dkPP2Jt4hUg7KED4eXe+4VssSRRkgfvjsqmkIQUnsMyHwmj2J7xw0/Dn0ckORbzyOBgswKRh/jKynFhZeW220PUDRIwu7LCjDwNIxOXwLB2Ss46ptXbYj1v9syZ1tDcbDVTp1o5dl2qgkuCaySUBWJVlZXplamZOqlFJNKCW24Lkk6MdFBJuvXI1FipQdV6zXU2S45E/avjrfajj6xGoJwmCdn0wguSks9Yy/0P2oJb/yiw3eiSjVfA3SJJMevJp9wLR6Lyuxrxc+rrb9gMgXnR9TfaCmmPLqmy3h0ljXnuQYeFjBriefKJTBfxwif6N1UBiHIIEwkCX29mu+dgKysaXB5rCj44bWCzraxEe8jtI6kq7EQ8J9YeWYPEkOUIdiodSQ1hs1SXJE3nW+9Ym4zhuRO/tUap6WoBpFxAcZsulYQblABj9KAFcuYSAVfzP5+3+ZLgy845z+cLYw5wdh4i8VYed6K1XXqFzX3wIWuUkV73wYdWLY+68rvv5IV/6544TlAf8Z7P9X2V7MDajz62Rqm3ObL5FstT75D0wB7tVUclnhRdKpkI8MuussLTz1phwldWmDGj3zbUTVJwhpYuDZurmMtkDnF86bVmtxeZYiJ/zpnqbwAW1XIWFxt9rRm0Zx+4y+4efeFRGOnqChu1bZxGDd6VGgIguzWqVqkR7bIvWv7yd3XQi1YjiVH++ReWk6pGbZYBmFSKOZUC1Wgpvafbi6LyyZOt+ssvrX78eJstJ4U5w5UnnuJAcekoZyPZAQm5r6vi5Wee41Jy3r33ubqdLonfKJuXCXFUL6+NL71s0//+D5s17klrka2MlFwmdbv6yGOtmzA5+MemKwGwIPu097QzrOf2O61Hg7NXACjMX2AFPFc8WHXHpgAi5qFH35B5jP3aX31jCVs3sOeRgIAvFSRuYrHt4x6207Kqov7GrgUf/TAhAiebFIiMbnVc4ofCHB/UMzm2JQUKsiW6Bb5OjfZ2OkcjqUnSpUYSs1xALZOtNkW2SE7SI6eOwKHIgmY9MG0AAoTYiy4dpf6ZvK5Bconxs9XmRbIDl519vq066nh3Znpl+ySeCTU4Nb17yAsW81cdc5yt+MPptkwAXXr2ef6Kml917Ak+CY6KL+y8mxXkhBT02x45Od37HmBdfC8PuuveB6xLz+z+5lvrkSouLF1mBTkMWIURhBsdiABe0tATiqrfXRripJC1CxBiWsUECEhF4hGJvCFpKycyqL+TvdnzjAO3Pi42PhCRGFEUS1V7FgAOH8SN/8MZrmrW3naHdcjFb9N95giAjQ8IgDJwy2Vb5O64y3IPPmw5Scfcq69ZXkZ8XoDIixG+9rsRgegU7y/Kles9gPzhB6v+4gu3A6dLAszVYFl00y229MKLrUMjf40ckC45ZT177m29u+1hBTG38Lvfuxdd+O3ugXivz/keILL7b9UhR7hKXqH7rLjjTlv5l7/aaqn4tfly65aH2rt8hRUAg9i/ScAXC6IQlcwyK/mOmMT2qJu31k27QTETBJ4zUTeetOmacMYKCfSZ1gIT0WSL2NhUQHR7KlYAMP5OHSHPj/2/KyUpWi++zGZLujRI9VQDQNliOYGwTA5CTkZ9Tp/l9Yy8VFlejc8LBPnvf3RQOEiQWBsTjBBAxC5NJSSgLGcVRoMCUE6Vh4/qxsueKZt3rgZPkJjn2aojjxEo9+mTlvAADxiPeak86wXXXC/v+0GbLY3QosG2WMxfrratkg3Y1dbmKph5000KvmzBQcEhWtRqVt8YDuxhRoO53qxdGNUz8aXsWcEHyCb7ZLJfpobT5gBiEL8BjOTU7lZFOvVZqyTjHKmuBkmB6gsutvy111uZPOkyAbJMQMwLiHkBMa/3edlReXnYeTU0L7skrxGZl+3mIBQ4NjoQi6kPmCK9YrPiaZdVypHS/zgk9a+9bnMe/pO1XXK5wHis9ey1ryTgni4BVwmE7WI2zk2T7MaGnyZZs4A3r7XVlsoBWS3+skayiSZlBi8sG7a3mzU0hexcJP18+VVJPwGv2FPmPZ4yu/jIX0PIH1N24KIvUbxoswBRhFTs1vvOnXa19h12tpZtd7AmUc2uv7PyAw+23CmnWe6SyywnKZK7VVJQgITyADIlJGNOz8pJ/OewF9XZvo8EUEhCueosBZqNRYDfny0QiqYQMDt1qk2eNtWldd2HH9nMJ5+yxVfLuZG91y0t0CP+dMmpWXX0cbb06utsgRyZed9+Z/OleltXr7YOST5x9j8DgCqexGq57EL2qfxIgqYPPOFV33QbhFRMJaOfuCXp7pPthH3hmAKuCL5IEYQbFYgCWgQi0xs9enCnpGD7jrtYy/Y7WdM221vtb7a2il9vZXn9XyaRnZPNmJOazkt65K+/0fKAUPZh/k5RlI4CaP6uuy0vzzUvwzhIxgmW/+knAUP2okvHTaCmByAcmylT6xyIzG8y7TOD1RZ50B0CYlcqEXvlFXcff7KtlqPW8cqr1lFVbZ0rVhh5UZGCm0X9ZoqbAJgCMglcEjYhCX8yex91LA/ZpWC6goIUhADik0+bpx1hXZkAB+IKmLzGJBtsn/fGAiJTD73yALsk/TpEbQLg3O12DBJQwKvYalvLCYhQfsttLK/P86pQ/oCDLX/SqQLjZZaX8R+AKOABREAIGG/TK5/JBsnLFsu/+qrlP/3E8j98LzAIjACxIkiqUmDZmIT9OKWuViSJKPuxTh03Ux7/4suvtJWyE7tZ4mTZj7lUzvkTEHvHv2a9ur6welWfF7y5i89LyiYk2MSIeYyOCUEMAA4QRnWMswKR+4a96cQQkFGWIGGcE8CX+gYbH4icCwcQNQJIPrR22x1thQC3WOCbLarX/9UCXzkAFOUzrw5EJCOvqmx+f4HxZIHxUknGG28OkjFVzU68d0Dq9Z77LP/4OMv9+9+We+89y30tu3HSpP7e9CYE5Dog1rkjUyvVzHr0Qtm+K44/ydbss3+Y4mHdmkgUTr8iT2JDY5ifS1m72QreMXOTS5eFc2Om5EJ6Y+xBB2CY63UAxqka/mfiGudEkt+kjsOpswAMxySjkosBGGlsQJQBmwFi4dwLrevgw6xDTkmrADZb0q5er1Up4HICWhmv6fs+SoGY+9WW/l1OEjS3z36WO+Y4y517vuVkX7m9iOcM/VGOizsxKRjxsOUQ5J5leme85T75zHLf/yDVKHBkgbgpAImz4ntbqnwwsGJCdPcMDZYFV15tS048xVbKg1x7xtnWc8fdLg09Ap20ypsifGuQ4qoYKUjsZ9wqytJdlIJMyWSkINl5PSbgz+MsUZ8kF10WTnPVIPMzD5kdILoIkJUCX5Y2BBALn3xq3VLNK8+9wNrkdMxVBRoFqppf/sbKAZiA5gDLgi9LAJFrINQ1r1LVud1kN6pCuTPPttxV17gDk79DIMSDjgQQcWwkKXOSjrnHnrDc85KOkjI5vOqfSkzxZMG5oUn3dQ9apkGZgJibNNnKJ36bToK/bHM1WNokPTpeGW9dcrR6ZXv5hnV5pZtNGsYgBhIX4JD4RPVHlrz8ivlxIVEKIv2g9OyaRE6WHw0s88IDMA490pLdZXpI8o0tY2wKxIsExD8LiJ99PgQQCcmaPdvWfvmlLZe7vuCCi6z5gIOsVqq4/Oe/shwEEEuBbyAClKjpX8t2xG7cbY/UiZFHffGlPr3jkhAQYj+mqtolJmBEYj78SLAdX3rJ8rLR8l8BSDkzqGvAAiAjKIuBtAGIFR8ngCgiMqhGUrKpvt5aZs2y9kWL3THppvNhLupwcxRCxnBGOGGBjiawlqPV3kw3zAM6nBIoOiV8BjDZOE9ol/ojOYOoa/kGLFIM5ZQMRACR2E0IIJKLnRPESHOHfUr+SwaMynpARJV0z5tnHd9+Z4tlqM7QD2sPPtTKBcQpP/ulE0AsCbjBCAcGIPK/bM2cvO7c/gda7rgTLX/O+Za/8ho5MrcGaQhlbUcIkN59r+X/9GgKyJcFyA9cQuYESF8adDAiJZGOAEggjUAdBUXQQTESqFL2Yq1sxcbmZpuzYL4tFvhWiGfRM95c0zOughkEJCvgGDUCj4mg4eg0MnzFs/wgJCHH8AJEpCO24COSUuKzbweWqeFbXwEh4ItOSSmwDUb8hsAOiDMAjz0+bC3guWxX5djldMCuD0QhtLutzToqKm2RbLMZN99qtUcdY+Xb72Rl//ULm/LfvxgdEFNVHf/Pbb2d5eR15/bY2/IaeflTTrO87Ie8KuqeNNM7eNEZVe0UAYmEfOoZqewXLPfWW5b79FPLT5wopyad8lFHBAkZaWSSMoIvRoMjAdkrzZ5posYJ3mUfDdHkbOzaLCV1QgguTubJBpzWYMmkKWaffxnOHozzgtEhiVKQGFGianhP3ChHzBFpffrZZodnMnwBQhYsRioJIwFEzllRX/v0Hxlnpd08vIxzfJYOds6KSq+M2zVSz0u/nGBzZSfWn3q6VezyuwDE//q5OyDrAW0klAWlPG93ZPba13JHHWu5s86xnByA3M23BNUs4EFZ6dj3uRyD3D33W+6RR4NTIymZk9rOTZgQHJvJkwUiVGqYnHapCSCzVAxAKCMJASA7BYkWJ2o8ApANXZsDgC75WJfu7Ayb4WXPu2Mk6edH75LcCqdDAOwXgsf7SJKCnjZE2sWDF86/KCRs93yHRcGtowUhhDonfTPE1BbLggCf8xE1mP1wprSUBCJSsWfZUlspNbRQjWqWeq7e9wBJQnnIqY3YB6YIqJFS/C0qGxIg8zv/1vJ772v5I4+xvDzQ3OVXCpC3eoCES8giQPoyIfRH/Y/0fOBBn/bJ/+3vln/lVcu/J1tSgykvNeAb6QGe2lTSwdFrlIJTUjUMABsaGvoAyD6azSEBkRlxDtBIrMmshtrhZ/Fx8OVrr4eAY6QdUi5KPwDIZ0hFvOF//TucdMDhjERHESXFITwxujqq4ZE4JIMRQEQt42mzp4lpIMwEgivY153hY0kgUliQXyNbo12e4ex777NpJ59qlRKveVSq23s4HykgSwFtuBTBiP2IpOV/qew8EvLo44KEFCDz10tlC5QOQADpoIzABJBydjS6/XtWaR58yPJPPBlWaojuAZSffmb5r7+2/LffOjhzkyYFqYn6RRIKjATnVk+d6tHibFtolfro1MjtBggpbzZaoWOY7mEul2227FeRzedTL3i+TEITmPDJp+EAJCacARtTMBDgA3RxVQQCiExKk3r44T9ZIj4lnJ1zDBlfD0gBk9qAG0IK8tt4n3gvAiNYkWFinLrLufM2ZsqAQOR4h26J/hVTymyhRtOMG26yqceeYJW77xHU6S9/4+TAKQWwkRKAzIKbZ0hCuso+/KhgQ0qF5KW286rL+qAscm7idwJl7v4HLffony339DOW/+fzLi1zb71tuQ/k7Mi2RJVXCJy1U6ZYk+zAFg3AtkWL3AvuEgjZ2BVtmb7XIUvRdfwOAmzcD8Bh30XAYS+1toZwLDqqoTEkzmRvzxdfWqKBlBAxjeQDbAAQ4EGALUq+PvAJmKR9Yc6OsC0yMpx9bjh2jol3bDZAAgAjCEsBa6TEfXaQJEQaYmfyLBJ6Ski4104ie9qZkYaUAYFIwVZcPXOWLZMUma9R1XzlVVZ7xFFWDkCYqP7Fr9ct541VMkLxPlHi8orKlg2Zx6k56FDLazDkNLpycmxyEvUeTibVnUMKRufmVoEQxyZOkPO/QJqTes9JuhMHWSbbNy97pUIdVquB1iQJ0/LxJ9YuQHZKMnbVT7MC0x9seSWlsgalh9LjGJA1CxuNiWK2XxYTn/M9e0DIJcPvxHyPgCbNCucvk/6tvj5ERHMgEKngSEw14atwqv67Ah4ZdVFlSD5WPNgDFKVfnAcEdHI83C4UCD1h/uNPhAhqTo6/+FJLZOMnTJ3EA8MBy4ZUwVC8D/fcPj3Bfs99w2Q4aQqp1zcTw5QSJkZRGRSIzIf1arSiopeJQS3quMYLLrLq/Q603DZS0UhFl2ApGEuBa7QUQRlJJkF+h50tz7QPUpJ5yONPshy2pJjNSo2vYyMJsSmZewSYEEAVEMsEyCnYnAInwbm1d91rzQJly7gnrF2MWqkR2/3aG1YgJu9j2V6cQ8JKBEedyflxsGhEJ3J+PKWe7DRPFFBZnSHe63O+5zqu53c/6Pey6Rxon30RjvUl4kXerQOO49Pk5fY5GpJ03nkALko9wrPwdgGm7y/WK58/81w4KSqC79LLfR4wOea4EMYPIIgZjEDZUODLUrw3AAeErMIcdpQll10ZjjyGj0wrIf3TSexsGRSIXqROClJPazSKl3z+pc2Vims45zyr2nd/n1v0yW0AiX23ocEYKYIx/g8o9ez8TruElRrmI8X0/Jlnh8AKpoBQ3QKeT4in5LGQomqBs/G+B2zuw49Yu6QH2xi6nvubFTISpl+Ho1IgIlSYEonEiQhOklp9lH6WvY7fxXtwT8ifIWChTiPx7FIU6xUJYDL3hweK3UUaYWkI3y/EBjYkH14qk8hZoGwMAELcE1WMUwIYcXwEQo9b5BjeLyakklBmyACmzdBATEthjZwXeY/LNKpR00140hptgGLK//m5T+2E+cWNBEYIEKKuo+p2aazPtpX6FiPyYkB+/4Msd+TRljv5D3J0zrUyScsypKUkRbXUduO99/u+GQegRiobuvqd+0KnR4o2GIRkgqJqHAnF32bvF8+ejsSz1wNl+M493aee9qU3u/eBcJwthyidc0E4moylMxyCYrvPaSNJwEjxeXjHZEsD/GwvZV6SNuPZc5a2TJbByrCBSCl0d1k382jy3ha/9rrNlH1WJ5uNOcacvN4yJCN2I/YjYCkFpg1JW4p+k4LzVwIlJGCWbbuDlUmF43mXH3KYVR93gjWcfqbN1Qhtv/Z667ztDusWIH0agzzfSBYCP1EhAAegZMGBA5CVklkieACp2Y+Krom/5T4RZNyf5/A8PdcdC+pBfYh6QtIRxUPgwY2SeFdeI6knb/e0M+XxHp+ufKThWDgH2WCEjQW6LPEMpGBcSwaMe2swsI+FRK0crcYUE47J2v4ecqkyIiCGkgQnRp7dUun9+VIRzZI4dRoFlawhCyBBVacSC5BEtbqxiPtnSc+s1Od1cnSatt/JWgTKNjk7neq8LtWzcPKpZvIgXXVwkqjA6fNqpOJlG6zUtu/LJh4TYIyTeiE4FLCwb+MZqcVnBSCI7bJ+bkykVGr697qO658S8Xvuw/24L/fnOZzoLnPBn0/gKZKOCBXOMSH+79gTg621/8F+aoOrvb5VD4EuEu83NgDjM3ieHEgHv4SQmwIyC/xQcNr/9TdhmZGcPcOcZRgFEENhdr9HHuGqpum25MsJNu+ZZ635qmus7qhjreJ3uzsgffL755KQUYUiwbIA2oAUI4EIzq0VNctkaBEQ26UyOjViuzCgYSLqi2RBqDImcknCebjsGTYCsQ/jJIGUpEIkCgAMTPoCDNZgWbAnt4+kkweKon7IfgaA+kjvmbjV4PTruJ4zZy6+PNyHnNNnnx82pvMcBgWpWng+9aA+1Iv6UU/qCwjofCQeUghCAvFZMVg2FsE7non0I4gBALJ9+KRTAgAZfMKBcaQa+YyYnhpBGTUQY/H5xmXLbZUqsOSLL22+1Mx0dcTUY48XIH/v0qnsv38hG1J25M9kR6K2mbyO0kugGQ0Buin6PVQmIji3RuBr2mYHmycpyPaFTjGuS51F6rm+kZxu9gr2U9qZfAezsW/oeFQexr5Uu6+7svTFRiGOMDvw0BClzEoBWykJm8dB6CM+4ztI13H9AVKjgIv70HlINkDGc3bX86JTEeuYrVusX6zjpqD4PJ4N6N3+2yG8YnMiAZkblN1tf5MEBIBsOyANdWF9j3g4ZUxAzApdXxbUSFjd3GxLJ3zlm4dmyHudKvus8vd7Wn4bebq/kYeNqhYQ/VXEa/y/D5xQBnTF5MG4oin6TZmoUg5SvUA4R4xql7pYpU5kQ5cDcCAmD4ek0tf7fZZQkQNSieuzVOp5A1Gp328Iyj4jgr4UMShoEwPqVNmoN8uMwM5FBU+fHg64LJqgHmkZs0QsLhzhz9zj2jlzbMWkydb6xhs295FHrPmKK23aiSdb9f4HunPjcYkCU5gYl02JXRmngbKgzAIwBSFULqrR+0YAuN2O1iaVsVKjFwC6Ci7F+MEo2ylZKu6UYorSqx+VuC5LpZ4DlarXxqD4POpCfZF62HsQth9ql3lHtAHTMGx/uEZmx59l3xI5M3mKPOHZA84JjqZscCBmC1sWCZ5YJbG97LvvbPH412zeY4/bTI2oposusfo/nGa1RxztE+RVUlEVrDEzUS6bEvsSlT7l//zMCdWe/9kvrfJnv7JaAbdJgG0RYJcIjKukNnpkt5BfsM+L+19aF5QaVauHZIn4fzt9DwiRdJgJmB2HHx1iEc+RbXylnKbb75InLyeLde3vfgj235IlGyWN8kYFYiyo7d41a6xn6VJbI0m5sqralw0Xv/Gmz0nOeeAhmyl7o+nCi63+lFOt7kiBU3ZIJeDc+bcO0Koddrapoun6f97Ou1qbRu1Kqc4ujXDfQYed9b8UCDs3El727rJFo92LlMuCDocMTx3PXd48c6okYGIVyGMGOZCJdXBCtsaofgcrmwSIxYU8L71y7Um7sWb2HOucVm8dubwt//ZbW/LJZ9YqRix88WVb8NzfJEHH2bz7HrD5YtTiG2+ypddca52coXzJZdZ70aVhbo1okv/RdFFK/C/PnGmpS/Hw5bVzpO0tt/ucJPOmvlGeuUwSxb/3gRmnwxLRU14ezstWf/i6OvlwRuj5jqVsFiCWKh6cIvuy0NVtvatXW7cMYKJ/1ra02NqmZuvS6OzO5az3xx+s8M1ESybIU2Mt+NPPLPnkUw8U8J2HhBn9j6bPzD4TX/Bkv54YQvI1yI00yARakIiTmEYcDFY72CzHWS/DnO/bWOU/BojDKgGtQUVAGMr/SwNT5NNmBtnQxez/ArtruXXo7IvBAAAAAElFTkSuQmCC;" parent="1" vertex="1">
          <mxGeometry x="16" y="411.48" width="82" height="83.52" as="geometry" />
        </mxCell>
        <mxCell id="rnhqWEaBhVXge-ZifJEZ-1" style="edgeStyle=orthogonalEdgeStyle;rounded=0;orthogonalLoop=1;jettySize=auto;html=1;fillColor=#dae8fc;strokeColor=#6c8ebf;entryX=0;entryY=0.5;entryDx=0;entryDy=0;" parent="1" target="rnhqWEaBhVXge-ZifJEZ-3" edge="1">
          <mxGeometry relative="1" as="geometry">
            <mxPoint x="456" y="485" as="sourcePoint" />
          </mxGeometry>
        </mxCell>
        <mxCell id="rnhqWEaBhVXge-ZifJEZ-2" style="edgeStyle=orthogonalEdgeStyle;rounded=0;orthogonalLoop=1;jettySize=auto;html=1;entryX=0;entryY=0.5;entryDx=0;entryDy=0;fillColor=#dae8fc;strokeColor=#6c8ebf;" parent="1" target="rnhqWEaBhVXge-ZifJEZ-3" edge="1">
          <mxGeometry relative="1" as="geometry">
            <mxPoint x="456" y="575" as="sourcePoint" />
          </mxGeometry>
        </mxCell>
        <mxCell id="rnhqWEaBhVXge-ZifJEZ-3" value="音频解码" style="rounded=1;whiteSpace=wrap;html=1;fillColor=#dae8fc;strokeColor=#6c8ebf;" parent="1" vertex="1">
          <mxGeometry x="502" y="510" width="90" height="50" as="geometry" />
        </mxCell>
        <mxCell id="rnhqWEaBhVXge-ZifJEZ-4" value="音频后处理" style="rounded=1;whiteSpace=wrap;html=1;fillColor=#dae8fc;strokeColor=#6c8ebf;" parent="1" vertex="1">
          <mxGeometry x="612" y="510" width="90" height="50" as="geometry" />
        </mxCell>
        <mxCell id="rnhqWEaBhVXge-ZifJEZ-5" value="音频播放" style="rounded=1;whiteSpace=wrap;html=1;fillColor=#dae8fc;strokeColor=#6c8ebf;" parent="1" vertex="1">
          <mxGeometry x="722" y="510" width="90" height="50" as="geometry" />
        </mxCell>
        <mxCell id="rnhqWEaBhVXge-ZifJEZ-6" value="" style="endArrow=classic;html=1;rounded=0;exitX=1;exitY=0.5;exitDx=0;exitDy=0;entryX=0;entryY=0.5;entryDx=0;entryDy=0;fillColor=#dae8fc;strokeColor=#6c8ebf;" parent="1" source="rnhqWEaBhVXge-ZifJEZ-3" target="rnhqWEaBhVXge-ZifJEZ-4" edge="1">
          <mxGeometry width="50" height="50" relative="1" as="geometry">
            <mxPoint x="382" y="420" as="sourcePoint" />
            <mxPoint x="432" y="370" as="targetPoint" />
          </mxGeometry>
        </mxCell>
        <mxCell id="rnhqWEaBhVXge-ZifJEZ-7" value="" style="endArrow=classic;html=1;rounded=0;exitX=1;exitY=0.5;exitDx=0;exitDy=0;fillColor=#dae8fc;strokeColor=#6c8ebf;" parent="1" source="rnhqWEaBhVXge-ZifJEZ-4" target="rnhqWEaBhVXge-ZifJEZ-5" edge="1">
          <mxGeometry width="50" height="50" relative="1" as="geometry">
            <mxPoint x="712" y="430" as="sourcePoint" />
            <mxPoint x="762" y="380" as="targetPoint" />
          </mxGeometry>
        </mxCell>
        <mxCell id="rnhqWEaBhVXge-ZifJEZ-8" value="&lt;p style=&quot;margin-top: 0pt ; margin-bottom: 0pt ; margin-left: 0in ; direction: ltr ; unicode-bidi: embed ; word-break: normal&quot;&gt;&lt;span&gt;&lt;font style=&quot;font-size: 12px&quot;&gt;立体声&lt;/font&gt;&lt;/span&gt;&lt;/p&gt;&lt;p style=&quot;margin-top: 0pt ; margin-bottom: 0pt ; margin-left: 0in ; direction: ltr ; unicode-bidi: embed ; word-break: normal&quot;&gt;&lt;span&gt;&lt;font style=&quot;font-size: 12px&quot;&gt;HIFI&lt;/font&gt;&lt;/span&gt;&lt;/p&gt;&lt;p style=&quot;margin-top: 0pt ; margin-bottom: 0pt ; margin-left: 0in ; direction: ltr ; unicode-bidi: embed ; word-break: normal&quot;&gt;&lt;font style=&quot;font-size: 12px&quot;&gt;&lt;span&gt;变调、&lt;/span&gt;&lt;span&gt;EQ&lt;/span&gt;&lt;/font&gt;&lt;/p&gt;&lt;p style=&quot;margin-top: 0pt ; margin-bottom: 0pt ; margin-left: 0in ; direction: ltr ; unicode-bidi: embed ; word-break: normal&quot;&gt;&lt;font style=&quot;font-size: 12px&quot;&gt;&lt;span&gt;3D&lt;/span&gt;&lt;span&gt;音频&lt;/span&gt;&lt;/font&gt;&lt;/p&gt;&lt;p style=&quot;margin-top: 0pt ; margin-bottom: 0pt ; margin-left: 0in ; direction: ltr ; unicode-bidi: embed ; word-break: normal&quot;&gt;&lt;span&gt;AI&lt;/span&gt;&lt;span&gt;语音&lt;/span&gt;&lt;br&gt;&lt;/p&gt;" style="whiteSpace=wrap;html=1;aspect=fixed;fontSize=12;" parent="1" vertex="1">
          <mxGeometry x="612" y="390" width="90" height="90" as="geometry" />
        </mxCell>
        <mxCell id="rnhqWEaBhVXge-ZifJEZ-9" value="&lt;p style=&quot;margin-top: 0pt ; margin-bottom: 0pt ; margin-left: 0in ; direction: ltr ; unicode-bidi: embed ; word-break: normal&quot;&gt;&lt;span&gt;&lt;font style=&quot;font-size: 12px&quot;&gt;DAC&lt;/font&gt;&lt;/span&gt;&lt;/p&gt;&lt;p style=&quot;margin-top: 0pt ; margin-bottom: 0pt ; margin-left: 0in ; direction: ltr ; unicode-bidi: embed ; word-break: normal&quot;&gt;&lt;span&gt;&lt;font style=&quot;font-size: 12px&quot;&gt;Codec&lt;/font&gt;&lt;/span&gt;&lt;/p&gt;&lt;p style=&quot;margin-top: 0pt ; margin-bottom: 0pt ; margin-left: 0in ; direction: ltr ; unicode-bidi: embed ; word-break: normal&quot;&gt;&lt;span&gt;&lt;font style=&quot;font-size: 12px&quot;&gt;TWS&lt;/font&gt;&lt;/span&gt;&lt;/p&gt;&lt;p style=&quot;margin-top: 0pt ; margin-bottom: 0pt ; margin-left: 0in ; direction: ltr ; unicode-bidi: embed ; word-break: normal&quot;&gt;&lt;span&gt;&lt;font style=&quot;font-size: 12px&quot;&gt;音箱&lt;/font&gt;&lt;/span&gt;&lt;/p&gt;&lt;p style=&quot;margin-top: 0pt ; margin-bottom: 0pt ; margin-left: 0in ; direction: ltr ; unicode-bidi: embed ; word-break: normal&quot;&gt;&lt;span&gt;耳机&lt;/span&gt;&lt;br&gt;&lt;/p&gt;" style="whiteSpace=wrap;html=1;aspect=fixed;fontSize=12;" parent="1" vertex="1">
          <mxGeometry x="722" y="600" width="90" height="90" as="geometry" />
        </mxCell>
        <mxCell id="brxqgIc1wICTM3kTCyFp-1" value="" style="shape=image;verticalLabelPosition=bottom;labelBackgroundColor=default;verticalAlign=top;aspect=fixed;imageAspect=0;image=data:image/png,iVBORw0KGgoAAAANSUhEUgAAAOIAAADWCAYAAADM+15sAAAAAXNSR0IArs4c6QAAAARnQU1BAACxjwv8YQUAAAAJcEhZcwAAFiUAABYlAUlSJPAAAK9ySURBVHhe3b0HoGVVdf+/35s+AzNDlyZdpEi1YAE1dlGjQf3Hkqq//MwPFRFBxBpNYkvsqNFoRI01ii02NHakWAEFESnSYRozzDDlDfNfn7XO95519zv3vvtmBiJ+Z9bb++y92l67nH7u2NVXX71p/vz5Zc6cOU4bN24sa9euLbNmzSozZ84sY2NjTuvWrfO68fHxMmPGjLJp06YC2IaPtMbExETZsGGDy6FDII8O6c9A75133ukypLID4M1+ZcCHLWySzwSQo33yPdchgz1tZ2Q/s014kcFmDfiQmz17tscFvlWrVpU1a9b4NuXwUE5c0aH40xfYw6f169e7nrlz5zo/ZWqfYiNbmTLko/zMbYSXuEBqm+pJJYetDLUh28p65afkpFtjBcr8gG18VfsykJOfGfBhAx+RzaAOuXnz5rmfbDOub7vtNuelHH3k77jjDu8HeBYsWFC23XZbbx+6KSfFZ7WZMvyUHRHthAcCbEPUYYf+JGU7Az/Hli5dugmnEMCAmBU0Ugjl2pZyiCAgg2OUZ3R1NEA//LKVgYw6S/YEAoIMlDtZQcAOg1kyarDsQcjJd4A9BY98hnzUYJQMkL0cFwF7yKkT2aazSZFbtGiRdziAB/3Yxnf4VQYoRzc2yIsE9MmGiG2Av/CqD2pQjx3aqZiIsKm45LZRh43cd5IB8GILf/GtBrawKVnxSA57tRztUT/IjniwgxztVJn8YVuTBnvkWRCxxYJHPyCLXgg7Wgixx8SlDD3wkYdYGCHZUqq4YE+QT/inWFImOYDOcQxjRJWkGlgwyEF4VA4PqRqvhkLkRehDBj74JZODhm7JQmzLD8mIZF/2ZEeyQPoh+CG1r7YFyU/0wpNJcvDIL4g8RB3BVXtE6AKyITliSUeJqEOWCajORR5gmzrsqJ0gty33Cci8mQC84s8E4JGvmdQW2ZRdTRbkaFMtB8QrUnuo75LB92wnE/LEr8tPyuSnCJkcP+zBRx4i9iyMTDTyAH7NBQA/hD70qw/J40+2lW3CU/sHkUcWPkgx6ekikwFzRnYgQ+U1aj5hEG9NQhc/yDzK57Iu1DIiMMiOUOvOssorFqIa8BB8pXSMDocYGLm+BmV1eRffIKA/Y0t0CfJpWJuB+DIB+PM2yHpqfXm7S64LWR9gsGvwkwdMQiYj/YFOyrNuIHvEEX11vSA+oear/RHEN14r6GIGg8olKz21vi6IRw0Tv/K5bDrYHN8319YwZHvSzwDI53q5YzUJs5zykodGhXgHyXSVd/ks5LrpADnJKg8N8qvF5EFbbwPp6arLgA8eJhp7PYiYa6+lOk1QIeufygaoeXI7yeftGn0TsTY4KA+yXJeBYXVC1jlMR41hOkcB8rWOqWwpNqJcVkMypKpnInIuzmEoKYOBPFSfh4FaL7pE2h6GzNfFO6xcEE8X33QxTEfd1o6QdspLrqsPBMmpHcSa+LMoEntNzHz+loHuTF2QTBdPrU+oyyftEQGrtVbsjC5Hsiz1WVYkG+LN+cwLsswg5IDVfF1yuUz6ZW+YnRrZZi2nspoAtmgnftPpCxcu9Ctz5DlcyrwZlNWDYxAvyG3L7VO+C7XMMN4uwJ/7PEO+yt+cHySXeYS8DW8tq23lM4Gsk5S9oSahrp7WyDKgS9cgwCv/5JfKB+q185ReFHQBIYOBAA06h8GQ5GREBpHTxYzsDEAuH6IBydQkwIcd7MmG7FGOLYiyDOp1wow9laEbXvwb1D7kONkXv1DLSVap/CTNQEfvBD3pA8hiDzn8lH+qwxZlsolPELxQbp8gexps8AvksYXNDLUVGV1DkB/ZnmIqwCP/5Gsth4zksy/w0nfYpA5IFuAn59Q1sIOPikmWQb98JA+JR/zYheQLZeSRka8ZyOEnkAxAB7xd8QT4iFwdE6VjS5Ys2UQljKwOGKqB8nz5XZBcHQhXbKmuEuJYdpo6OVYPEBoDv66sqVx2sYMscrIH4EOOk+9sC8CjQ0Dkcz15OhjKg0pAhsMY2iogg074iUvuLMrhxY4GMmWySUpMIOSy//Iztw0eydI+yQnwYCuTdAJ48RNSP4jwU3GpQb36r44LNogJbcvALnKKJ/nsC6BtXfHET42Vun15nGU5oHaR5lgBxUNy0gUPMpKD5CdptiV+1ctPtU+gHlvqvwzqkGOsYLOG21FDxIBQTUBOq7GQ8nI8N5wUWTVUMllODZWMGi+b4oWybQ3wbFODV7yiLKv2yEbOS7fsyjZpbpMIOdBlS3tQfJJ+UpF0iz/LkmZ7aicke+ov5UnRCdSubJM6fMpyoto3SG0E+JP9lZ+1nGIC1fzaJqW+jqW2qWeQk0pGPiNHPLOc7GU+fFOa7YmyHG2QLcVDiw8QPyn8kpVvpILKxFfbhGQLPtnrtQ9nhKy4hpR0keoHARuivK18xiCezEdjQe3DICCbeWv+2o4ol2UZ1XXpymW1nxlsS7f0dSHzZL56u9Zf805Vn0mQTF2ntNZZI+vKOnK5oLJhOuHpagdl2VfiTloTEG+WyaCMiQKyTFcqZP0g5zO6eJT29vMUDFIAuuq7HKudHIZh9qaL6dgdBHRkPfJvKt1d9bltOXY5Pwi1vmH8dd0o+oH4ZKuW2RIfwKCyqfRA2O6KqZDrsr5hurswHf5h/gD5Ph1k/t5V02GK6noFKu+eVTaIat1Z33QgOUi6p8IoPGBUfcNQtylvZ99z+XRsDpLL5TVyu9hb5D1GrlOZSMg8gzBIdrpANtsaRe+wui5k3lHkpL+LhFFiRL3mTM3bf+Y7BPXufnMgWXTpuHlLMKovo/LV6JKryxSXDLZzoGsZbeeyqToRdMllDCrPGMXOqOjyJ+tXvi4b5AN6iGcXuuRqu5lUplT5GqrL9VmvMMyWZLvGAsg8QHmlyIytXLnSt9jgxLJLEbOYE0pQK2QycRKdywHbEHLi0wkrwGkFXWWSwZ6O02sgw1W+vDcWOPnN5d7AhhQktU+2lEe2lgPI4bfK4FGqk+0uwFPHExnJZciuoItRQHXZHvmsl7xI7QSSJSZqX9antkFdUD9IBkj3sLGSYymIVzZrwI8c8hlZTnlSCBlIftaABzlIqOWUF8jDQ/uyTQEZ+oC0rpNcXS4btRypbI9ZpeUjCFySlXMZOMTg7zKC8voSt+QZUFzOBcgpINiAH9k6+AoctugwBQOdIl0B1LbksQXJDnXyN/spOQhe2gaRl4xs6iqabFAGqMfH2p6AXL6ET6p65LhVJN9yvZ59rEEsckwyFE+RbAL5qSu48kGp4pLLkcEOtxnypJFO7NE29YEgWWwpngLlyNXxFGSTeOJv1guQ4fK/fADk1TZkcx3y2MDHHBcAH74hC5GnTPLyUe3LeuGnbYqL6uDDhuJSAxtqG5A9yfk5IkohOUwDRNpWg+W8CHk1Nsup0TigQJFXo4GcyHIQgE8y8GsbEKQsJz25LRD+SQeAL9up5bLNbI+OgU9Ee9VJsgHluCAvPmSyzdrPbA+CD5si2ksqe8RTJPvIA7Ux+wtkQyQ/8UW+yT+1kTqoSxZIf5ZnWzK1PH6iH91ZRgRvjoeIcuq75NAHZCsTkFztJwRPtpFtZjmRtuGVn5JjG8p8NWU+yfa2aYgI5O3sMMzTQdY5CJkn89YNFcSfCSgYbGf+GrWMSKi3MyQH4Mnbg6D41bL4qnwmlSlVHqAHSFbokhXUXsprOVDzZ2Tfu9qqeINBPILqoS6dytPn+FTXieo6UG/XyPXKkyqfY5DLRBlsKy5d6OIfpKcu67uPKGRHlQ5DVizZqeSo7+oU6WIFUXntY+YfxJMhG5lU3oVBuqaSE7rqp5IBXXYpG9a2LmArE5CeWlfNl0HZVPazbJcOkOUzT5YFXXa6yiRXy2YaBMloIdGkqmWG6RBqW9rOfoEuP5UXehMRZtGWQIayMeUzRrWT9Ymyn7kcdLVBZVPRIEzF01VOWfYr54Usp/psR2Ui0GUrY6r6Ll2y2UWCZDIyj1L4atkM2e8iQfKDdIyCLv2j0FR2t9SvQfK945VBynFuKrC6QHWjBOmWE4NsDUPW13WYBWqb2dbm2BSyXqD2ZT+yLSHHpYb4a8qQnOxNBR1hgCyjNNcJtU2hS34QBukYhKy3JtClL9d3oZYZxrslUJ92oSu+YCrfwdjatWtdmk7UBYEMtjGsq2C1QmSQlTH4s0MQx/65XPk8cATZ6Gqw7NQ2gc4pgcqybvhFAvXwctGjtiXdnHh3xQV+LlrUcgJ2kAPyB0hvnQfo4pAcm0Kup41QDcUSIi9fVa6rn/hDKp3ixx5ptgWIi8rqOmSyXK7PftbytA8/2Fbs5C8ylGk7I/uZIVsqz/3RFRMBPvmdZQA+IqfTo8wnuVoGwNvlo5DjCaTb02XLlm2SYhgVQAEmnNLgrwF/vgInIIcMl3OlX0EhLxnksxyN12BUIAApxILAZWBkshw6sdf1NgRE2/ItCiCdkC471zqRq9sm4N+gtz1oly5z17JcBa3lJFPHRKn6AB/r9sFfy6IbPsUcOdqY20I5PtJGoHJA2/LVWqB6xQVSmVLksp+UQ+jAN+yxjQ4IUCcfsSmfVQcft3tIpU+gnnZBQHWktLWr/5DJYwyiDB5SiDEGgayTOvqONtZQ+7CXIZ20DZvaBuj0WChwpDiNoky694ECBVjOqwEKaqZ6QMCbBwYQn0iyIMvV9vCnJsl1yVAG1GjZ02BCZ90utRdZ4iBeEfKyBV9N1MGHb7InUseqjdIDAcUB3pyCzCuiDHS1D98BfN5O/GOC+aDAz43FhrbL4pXrcD1x5LHR4nAnso2f5InNjGSn7gvFU76SVzypw6ccF8lhGx54Jaf2kea2QTkm4smELVDLQeqDQXLU1zLooZz6WgY9wONX2dM4gE+xkJzyvWdNpWgQcj2OqJGS7wIOQfAiLxmgMkhOQbIjvWq8dJGXHlKR0MUrO5kAdfAAUuWBZGv9GeiRjiwLchk82XatV3n5JdlMQO2qifqsQ3FUmeQpv+22FWX5sqXlthXLysoVK8rtK1eWVbfdZvnbyorlVrd0WVm6ZEm59eabyoqGT7RqxfKyauVt5TbjW3Lrrc7H3iHbF7LfGeKp6yjP/Q9y+0gZ1EC2IPHXvBAQT02UA/kpf0g1gQTZGhVZp/SCulzkdbwYjBEc5/MNzN4a7FL5HiQNkCAgz+pWP4EhsLrpheLccHhZIbRSSKcazCqBTclJlpQ9NJ84UKCRpZyUwxM+4oufIMvio/yUPQE5+ZmBLDJ8g1T2BGwgkw8xlaIfP7fZZpu+timVn+RVDuDFFjEln/3EN2KiuGQMiidAP/Fcvnx5ufTSS8t73vXOcsstN3v5nXdGPG0Y9wan+wONtV8IiCLqw8fxcY4GNpX7HHif8rznP7884AEP6PU/emgbfgK1jxR99B0xzT4C5Ijl6tWrnZd68WQ59W34FW3ToaJsAWQUE+KZ+w8+xdP3+s04Ux1y2NPRBMj16vcM/EGOeEJd7bv99tsn+Ume2PWPrhGAYHZKqfJbChxWsKeCGpsbXQcg+0ZdlhkmB7rKhNxe6appKp6u8uxvhvjrOslp0gyCabbDzA3l1ltvKTffbHTTzb5Xu/H6G8oN119bbrrheiu7wfaEN9pEvcl5brrppnLjjTdaeqNt3+wT+GbbU9544w2W3liWLVvmg5iBJL9rypCvw/zcHNR2pgL8jLHpyN0VfmeME0RRdjAT8FlrnZ35VVbzQ5pMGiBKc2Pg02okykAG1AHQZIWQh7K9Lh/RIf4uOfkmUhmAL/uY/eyyI7kaWR7ezC+irvYPks26fZIDWb+oqTCyoxnLSp/rJMXGhBFpY0/ngxs3DqLwjb0kkN8QcmwrHtlf8uKpIV/FK36lQP0AlKr9tR1IcYm2hM8Q2/JTfFkPKfrFSx6SHJCt2ibItjIB8WWbTra7bHorGiUmbQOMo0iNB6qDn3Jtg5xHTs4L1HfxK812JKtgqNE1kKU+8wuUjSJXy1KneEg2+ygZlUkewK/DREj8ORXIQ/Dhp+qyv9TV9oDkRCDXB+xwavXt5aKLLi6vPOMVvnczwbg44/tKZ2Gjt71prPWvRkiWcr/7HVZeesop5SEPeUjZYIeIILeNfA31Q/YXqG21TG5TLQPY5nCvC4NkgHwE2WfxykegNLcLqvWyLRLIIycb2haJx7/iRgZGXfr3CiOBAaXjZZUrZaJxzlNPVGQIOiR9NE4OcGwPYU+rBTzwIyv5PBjFi73cMEDaJUM5MpBkMrIceekT6GTOJfAViAcb8lMyqsOGzj8EyhRbYlmfz1EHZI9txQvAy7b8FMjDi39qp4AsMrPN1gwLyc9//oty6ikn+0R0DVZvHlum1QewOGwimmeeHnLIoeWkk04qDzrmmN5EVPvwV74rxc/cFxn4SUzqflD7iAuUdVIHv2IjOcmIsCc5IDnFM8cUPuxofGZ7mR8SJIstjekMZCHOcXOf9+mmQpW185Acwgn4cEAyXXIiDSaCq0EnWQUNB9QpmeQgPPBmkpx45SMpkI1sFwK5PZnQg15ksy0FGx75me0hIztdbdSk0qREBsJ/8YgkC2RDdkRAvCK2BcVTsj0dd3Lpn7bZADCfAb7HJATEu6ZhiPqNG2nfurJ+XfyGBIT92sccH3zEJ/WfiHJ8ynIi4qK2iYbJqQ+yXC8WSR45xV+EzCB7ysPX1e8QfFo0RLJb25OMl/MHYBiqQX2uE7+QA1JDcsjUckKX3OZAtmhgtiXbKhOfiACBzCfKfF11kqshfpBlMiSfAQ/lxHM6yDbUfkiwLdPZDF47x8OGU6Ht3bY4/euR+G1j06ZYSERWGwINst0uZNmQD5DPftd8okHIsqPoqUlQvqsOaDvbANrO80G8ymu7C76cZqezcqGrTBjFyCBsrlwN/JMu8pmGQbYl14Uu/wbZypRRl3fx3PUIe+a5/w0SmIxQKuPQdODhKeXG7yrtj/3XKp+R2y1S7GpQp0Uk13fxDoPsDMJ09QlZp2x0EcgLaban+i545GCGaqWiDCmWDMh8XTJA/JDqcVj8KlMq3VmuhnhB1jEM4sv8SrOt2mYtJxlhkEyNXFbL1OmWostP0KeeatGIsKnSitkfs9KzBeU2Cbm+pgzJDotBl3zmJ6/ymrc+YpBctin5TCDnxZ/lBPGALDsM40wGDs9QpmPWmnBex8dQPtZ2Jc1qiDHlkWNb+kkzSS7b4Vhb8kA2MuFnLSdSY3OAREB8skEem8ihu/ZRfkpOssoD5BSPOi7w5PMH5XNckBF1ySkWILdlWuiNgeGDYVSgJYiBabFs2pf9zW1TW0lpu/hE2lbMxS/KcpkkD7KMdICp5IhntiV/JZf7T7LI5D7LhBwy8IlfepDLforc3tq1a62+//JqDTkmAkqlCFkIowI8arAgHcjQEOkRJCNfcr38ALIHAfHS4CwD5CMQf4Z8rOXULtmFsj3k5Kso68BuF5CpbWkbW8jVemQLoo0CNnMfkCoP0DNzpg0iU/eLX/yinHLyS8ott9xieqw9zX3AFths/PC/hk1so6uJmx2u2lLo2YMOPqS85CUvKQ9+yEPLnVaNLRGQD/gM5JfKQW6n4pLrgbaRFySHjHTKtqjLHlA9yHJA8dM2kF3xqT010CWbIOsYJCv/xlatWmVp7GU0iLMCwITh6o8LNPWQtrUCkJfTgAECwQdkRwSUCgqEZAS2IWzJT7ZzkMhza0OylImwwxUu8jWQo3010IPcoPaRV/tkUym2tChlm9RnuRpaRRUXZCkj5bEq3bqRTvLowUduG/BoVgbtWrv2jrJ2zWq/j3jGK17uT9TM4AqqT8TJ8QhUg81s8A/+jY3tQw45pJx88kvLwx72MJu4bay1t1Cs8F9txc+8WANkqM8LikCeevW7dALFQFcmgcpkQ7FUOUAnemQr25N+Yqm441eG/BSyvMYKkE21QXMoQ9vjagSK8+VYEc6gGOPw1oQi6uHLclCWI4WwRYpcl4zkALy1PfzMvPIZorHUQ+hXHnugy57k5Cc2ZZe09jPbA9k3yah98GRbkgfZTpYF0g8/tvEPQicElIdo4+WXX14+9alPlRUrVvi2gNy4HT7eFUD3jBn9tyrwF58UB8WVWxuUIZP5czvxW3KKjbYZE1kmy8leJmTRV9sToU8xFX+2J7lsF1uyJ37JKIVf94kzIY8/+XZWlvfXoCCUK7iZssMoqgngHHzKiyhDDpKdLnvwiWQXSDYTEE+WUSqIF0wlC1GvNolfMrUd5eFVx0lWBOBRHDIBeGSjS64mIH/YMfnrSTyaZvSTCy4s73rnO8u3v/1ttyd+4Hn7H7KN/CTAX9Ng9C6oujrzz/auuW0gt0v9DeFPPUYg+Qy/eKVDcpB4s1zNm/Mg82c5UPPnsQmyTfkrvtzv0gFflsl5kHkzjbxUIiwHc16Q0Rp1mWRreZB1ZL4u3oxsI+dHkRWyrUw1uspqZNlh/JlvOOAx8tFPZ9vAtOztq1aVL37xi+U973lP+fnPf957o8Mlkl6L6gh2iFumwag50K+4130hGgVdPtayXfqG6Z/KNjYh8dX6p4qb6pUOskd5zZt1jzQReVFUyMIZzOou1A0D8KKHlSKvHDXgEUkGypCcyvN2pkE2QM2bCeCjkPXL/y7gb5cvQq7Lbat5YONm/MaNtgdktTZeXui9+Zabymc++5nykY98pFx55ZVl9e2r/WVdtEqP9FLoiR2ihlWhf2tLEL4GyX4XDYLGATx1PHJZDZXJtpBlByHziE96pCunyoMsk2XJ1zJZTsiykN++EFRY051GUlbXAXRAHKYBl2nKROLPZeiUDiAeldUNQabrkCATvHlyZ/l6W0APMvlQSXl45U9GrVOHWl1yffIpL1nxQyD4rT2Fw6SYeFRxOMpe8MYbbigf/ehZ5T/+40P+itLaO+7wcxB2mqapZ08xEvwRN02+TZZCvhY3ZZ7m7VHQ9hfQoR2kvlKZ2teFXE++7lu1JbdH5UD9VseR+kHjBYi/y3bWl+uB7HXZBTkP8IGyPMb65HXVFCbvTIOMCWqIkI2iBOXIwCMdADlORkmB5CDJqTwDPZQpIEBpl4zy8oFURB3Ua3DiFTK/ZDKkowa21DZ0Z+Cn4oKsdANSyakMwNf6SZ3F3FLPm63Vt99efvSjH5UPf+jD5Wc/+0XEwsR9T2eT7IgjjihnfeSsMndBXDnFv6CN/hb+ZZddVl5+2svKrbfcUmZwAQfbfe0iD+FT65cD/73M2tJM1IMOOaS89BSumh5bNloVbcEekG1BbWN8DIolC3muU2xyXGogB1+OI2BburI8RF2Of5bXzoQLLLKHvHTBh808piUPv9onfUB58SmfMWZKrSyuHHFpXI4IGKXDuSyeJ4Ec0xWgHBAZ4U1lriDJMckAGiJ74qdeAxgiGJKRPPy8xY091ZEqCAqEykjhxUdd+q+R36qu/aR93DZQ4AV4aBsfNQJZL3Xwc86mbfSqnTyFr7gApdQrJjyoHbcXDHZCyCcuvvTFL5WzP/c5f1l3Yn3/QBifMbMccuih5cwzzyxz5833iSkQy9kzZ/h9xJe+5CR/wbd/Ioq3lbHK/hT/q4l434MPLieZvgc/+CFl/UTs9Yg5MaHvalBPPGkjebUbkMdPfSSKeoHYIkdMyatOMvS5+lrlQP3eNcbgJ1WecvFghz7Pc4F6yWJP/QcJ2JJc9p88cnx9gTTXya4/9C1H1FA1tm505oUA9cj54GnkSVUGJJdJ8rInQs4da3iUDuKXjBYDBQpSkJWityZkhNpP2ZWdWhbIni5TQ5RJTrHI8pLLtkTUEzc+8oQM+WuuudovyHz0rLNiEm5of5cCHpezlM9XhJ1+f+NjUOi3GLbjpkJdwfZAZge6eVEYH2WPFGBPPmYC8NSELDFR7Gp5eLId2ZJcHX/JizfL5MkpWzWBWlZ9mWXkH4TdWib7CyRb65i8r28gwVGQjXXJYagGfMjVyI3L6NLRBclm/kGy8pW0i2eQXIZ0yKZIOknFMwh1vbaZjD/9yU/KO972jnLON84pK5YtL+vu4Fsp6GTBskFhk2vCBofNNi9v/jtkG564UEN3m08QvkHahr+hUGJ940Q+SrthNpQbyheQTyKVAeKVkbcz7yDZmhhLqgdZjvouSLZGl70akq15lWbU8r2J2KUYZMXDAI8oo96WnUH8oKsxwyCddToK0F/LTcfmlgA7tS30skAtX7as/PAHPygf+vcPlXN/dG5ZtXKV8zK4fJ40slxIs3nUp0d5pT4JTS8pk84ynnreqR9ImeaG2n/dML3KdcREfmZ0+QpqvoxB8e6Siba2Ewqemi/Xd6GuG8YrDGqLZGUzbwtTTsQM8eSGZcWD0OVg1lFDdTUJ2WZORV1yXXtfIevOyPJZP6SyLmSbtRxU6wTiXW/nT7fddpvfnH/7299RLrrol34YlTHIX4epM609HlIsUGYGPL+1gL/+zCqLQweyn10+1/XqI8WEMvH4AtSBWkeWQQ86M4+QeUUZ9TZQ2SBfQJeujFyf+XoaVYjjOhYWqY6GRfDbw0fRMAySkVM1KXiZpAcC4lPngZpPRDntEH+mDHjxU74K0pMhvbJZo9ad+ZSXHbY5yefc5SY7B3zPu95V3nvme8sNN1zvZdy893v53aYcuGfqPNWTLvJZF6mg5EWVbg5oP0nbT7JJPsdS5UBtzmC752Oqk6xkMuUYZ75M4qtJOmpZoHLx1Ly0qQvSC2pZ6RayTScbAC4pB/PEE3ThQ8hKdQKtslxHHllSOUle25IVVCdSmUA+TyjxERi2qeNqVvYVYFcyCkxGPWAg8Um2lgGUcXEA2VxPnrahR9vKk+KfbKAbkP/JTy4o//a+99te8BdlzR1r/AIM8Ek4AJu4+mmYMWNmOeyw+5UzbQJvu2hxn2374/cgf8E3a7h9cevN/vwpHLBt2sQfZ7cC/2+bzVXZSbbN72a/ylXTF590kn88ynrDbSqWoM+HJlWbVSYepbkfspziKT6gPGlXnwPklBekp6ZsT+MlQzzYgmq9WU5tRCa3CWg7Y2zp0qWuDcXcosgMyjPA84d7MxiIXPrPwZcDrPIQ29Rnx5DLl/AFeAgehF0tDHIeP7kMDGpZbHGZW37m+trPDF127mofPurWRg32NFAXWICIp9oNlOpSPIT8SjsU/R87FP3kpz7hN+g3rCNmyRcmygDkiXj44YeVD37wg2Wbhe1ENI6yZvXqsvTWW8vvrryivPrVr/Zvk3o8XW9emNi2AWN/NREtUyF4wCH3u1855WWnlIcde6wVtYsLbaKNud0Q9dy6yfFUSuz5eBlyQPxAcvUtA3iQY2z6kUNTR5ls65YB5aSAesVf40z8gNhgizEjW0D2aB9yNehz2iY7QPK0i1MO5NELr4C9vheDKUCJSNsAPgg+OaRt79TGoMoxDGky4niWAci4E4koky7ZyfYAfPJPMioTH0S78naXPWQoFw+2RNquZURZLlOWkc1sm3p8Iy7XXntt+cxnPlM+etZHy+9/f42VrbH6jTbUbSAan5OOTdsx0YGIqdtobBFz+mBioy1sZg8e3k20as+7Xi7ImA0RaijtkfH2bfu/yINoV/+tGKA45BTKcYDYFklOMpkkl/nZVv8xEeFTn9N2KMvWNrP+TID6PMYyAflZE5A95AG+yZfMm7cn7x4McrQLchTkPEAhq4WCgiNyhjqBulo2Q/XQID/uCmS/sm2VDYLilUkdJlCWwUMJv7rkEpuAHylfOPts/3r2pjubCWj1kA0Z/2cO9CblJFhZ+I0NbMbtDPoAAjpcp95PFfDN+LnvGCprvVbuf6dGdknxy6TyUQGvYjgKQncsMEuXLimXXnZp+cY3vl6+8IUvOHHRiyeK+Nw9yBNgGGQ/+5LzXW3KvrMgaEekfiD22XbWMek39DNkNKOrTMq1GrFNx6uclDrZUPlUgE8yW4JRdGTfMn8O/Ch6QI4R+UzoYBL+7Gc/K+9///vKOd/8Zlm65Fa/DcjTLpp8/PP/kTjVQNfGJr5M/Ojo9ikUDoEgQD0Tj36ZaYexNCX6Bj2p/fwbrZmdQI/6XOmoGIUXHlGLTeWmm28s3/3ud8ob//mfyutf//ry5je/ubzpTW8qp512WnnHO95RzjvvvLJy5creGHWpafgmqB9Bllffiph82ALEHqIc25Dmg2jSHlFGupCdEKRIKzDnRXQ+eVYDjvtrx5VKX61T26Q0QDyylZG3FWBBejKPdNRlQHZEoOYdhiwnSB4i+KzMrNT/+I//WH7ykwv9ge0Nzc+j4X9r15MKrU/inWkTa86cuWXePD5eO8Mnoc6nsKfztXV23jl7tp2bMWE7zn02HybbIZ/bLchmHaMaWTZTK5d1lrLW2vbxj33cJxy3e3hThdsqtH/16tvLOeecU97ylreUL3/pSx6PDPQK2RbIY080CFmWsc+hKIse/QDY1ikaenJfk/dzRIRJNYNr5L2bHCKviYYcZRjhDXFSiEnJL0xpdVAqm5CgRgPKlQd1eZc8YDvXkcdebhfymcQDap2ZT6uaSOVANpUCtVd5YnXllb8rb33zm8q73vH2suyWm8omKzepMpPdIYOLczZ08M+K7rQ/EOvlJi6GNHaxwZvxdPLs5sKH9nbz5y/wiwL0C33A4eisWTzzG7+ktHGCvacNEL9wFacNY36hhXwbc8ViGGGXi0RjUIqH0hx/8oLiBAl5O6filXzoDls8j8v5LwvbV7/237bIrSwzZnJuvN5jO2uGLVQWWysqV195RTnzzHeX//7yl8yBjWXu7Jn+uRDZEtiWv+QzAbUH+4wDgb7WRSONEfpA/UBf8etgHLWwzXiAsIOuMdtduwUM0ZFe6I1t4Y024yiQg+ThJ8UoqzDQHhCinHpID0dLN3V+vpJsqbEKeg6A+JABlMuO8viowS+IB1+xST4DWezlwEsmE7LiV5rlasCvBQyfLrHzwQ9+4APlx+f+0Lf9fNAmiVnk/ABHjaxTOG9zF/nTf8AiX9A7ezY/sGp+GN/MWfzs2Fg58MD7+kPfGyY2ljnWH9jBvzk2CHh96qqrriyvetUr/ReheHdx3Vp+KoE+DX8zbAp5Ovn2BQjeQ/2q6cvKscceWzbkDxcb5bjkOOI7yHWZX32k+lqH/CTPuFq2fEl54YkvLL/69cW+t6PcgmKH+WFHQI4jtZ133rmceOKJ5XGPe5zFbQ6sfcAP9Z3rMpDKRyiXMfk0B5hslGmseT/bNim2KRMvY5W63i8hW4Ftx8TSrhNQJnBJFqKhcpQUZeQ53MI4hFGAHmQwpDrKmEhyROcyajAQL3ykqpM/8ONn9g/gD40lGN6wFESALQ1MZLNN37M0ctJLPfk4rGsPZygTDz7SvqwLUI8t5DhC+MEPflC+9MUvll/96ldlta3anKPZkm1y5qcPBaYTf5WqhMFneS+wDjZ7TEDK5ceY7dUop+3773+AHZ69vcy0Q1AexqaeeC3gNoop+s1vflPOOOP0csMNN/QmIu86op825HaMMhHve9BB/vbFQx7yUJ+IgD6j3zXw8IEUEHtiQkwzvB1mGxlktdiqryDJkQfws33VVb8r/+f//J+yatVtHiPVj4+FDjUJ/tBVyn777euT8biHP6Jst/0OPTuAPLzELfc7UB1jBR9VrzlD2zXOaAfjNI9vjg7JU0c5cuzAKLMYxexHMc5gTASzBFAu3kbQ69gmr0mscvhlFKKcQEPYEh8y2IogNYOr0S+/SEXUybfsKwTgl41M6MtypCJ0Sn/mh7I9yYpAlhFRRru4NXH22WeXD3/4w/4K0rq1vMBrbWCa2R7MNEe+R4LlzK799zz62MMxCSM2MajwoZ0n+LnRjkj4Bd82trQBn+bPm28yxCd0bNgw4Tf5vY2Nhs0BfmBL/kCKJ7pJ2RZRr1jKR8lTj4xA3v2zctmBX8TenAtf6+woTF8v8Eb6f/oHaieYV9mfq666upx11kf9R3l0aoWf8hlQVvuKrPxgfKttxFd+ksc3JiRl6GBuUK65gBzbTGjGqtt1qwYZASjMjSdl9iswlGEABaQAxTmFj/pMzH5SdHdhUHnGVDzTqVd7awwqr4Gu2h6yBJ69zsc//vHysY99rFx37e+tc9gLNANjjL2NBonF3f+ih+kYJWwRQ+JJ3KID+RIYhz5a7fMAjb09A4Q8caZu3M4l0TlzFr/hPmEDj0MpvqpmC6df1EAR2oyr126l3YBdMfL2VzEYBGRENdCDz7S5C4pzjjdxID6Q9UTyyf74AxFsQ22eOvi4qEP/XHzxxR4zAR9A9pE8sRURb8BEIi/fyaNLKdB4186BlDaS0qdqz6SJSAUps5rJR4oyiDyO4ADbKIKXizKUMQC1UogEjMMryAHZE3VBvMN4MuAXZUiWlHZIX62zSxaoLNcrlU7OGS666KLyhje8wS8i8HvzrNa2EzOwB4RMDhn7w6tI0Q0WB/ZkNmYmJtircN4dh/XEXX7CTkdrknpcbXJO2Hkhh8lz586xw7Q4VfBDKEvnzOFw1hZOm78sCPyCUwwmJi66iQV7V8XDqgZAbY+YiVFy/TQdELsuyF5NHGrPssPyPXfbs+y4447W7vl+yM/+nYiCfl8gbDRttZhxu+Oss87q/fIxsRRp7OIXY5qxTd/CpwlIvzChANv4BS9P8yAHsYhCap/mhewgAyZNRBSxW8WIALPOhRCWE+LFSWQZGExeJijOwEs5cjKYoTLZhgahS0eWgwbZAdKd+UfFIJ01OB/8/Oc/X0499dTyve99z4NvlqyGv+StM1ipbRBAnH95vWWYlIBOWrx4sV9hU+dinsNO8hxaul7znz6Ah1ehkFO74CNlwCDMrQuXaQaD++EEX6zuXXB9/Gv0ureeNnWeZeBPvZiCaEs0NPNOJSdkPtrNPdQFFqdHP/oxvgCBVk+00Y4XGoqYUU3c8YJD8+9+97vl3e9+d+/qJnq1wLHNeNZ80GQC1LMNUQfII8u8IJWMdlitb5PhExEGKdTJJiBolMtJOhtHQTrJ9ImIw2zjAKAcUvAhAZ1Q5gFK5XQmlYMsAyhnO/NmqD7bUR5dIMtJzyDCd6UQl8Ovt8PP9535nvJeo5tvvIGhWSZsz8PVUX9u1CbeJi6gWCp5JkaU0YGzfLFjAYub8tpr4e+4bccVuIgZFxPiYhg/QmoeW5+t94tmXKRhUMo/Wum2fJt8EEMx4tBbi3sQfxep3kxGmSm9k/Y1qPmUB8pjN/c9qRaSGpQpXvDCxxjjsFRlf/mXf1UOP/yIMm/+Ajv3ptzaxdC21ENvYdy0EV9xuvHDiNs37OW++53vlM98+tNlw7r1ZYaVTVisV9tRxR2r7TDe5gIxxA5+MBdI8UMp/caiR3/QZzrvpAw5tbEGfojGzJFNCDH5SFHOpNOqwDYTDWMYgg/F7JIpl4PwIsM2zgE54Q2vIAcAPEqV75LJunJ9LlfnZmRe8iKQA9RlWzFQmVJ4oQ22cF3661/ZueBHywUXXGiHOUt9MXM/6EJXiQwjwuLkBRb4ps71mZ7Zc6IzcYHJhE30a4DSJ8jRD4iwPcvO+9bbYSyA59BDDy3vfOc7y/xtFvb8c1uYsvoLL7ywvPzlp5Ubbrze3eHwLngCPikZvFZ5J3tpkxmP5vYQ/BYTGyuHHnZYOfmlJ5djHvwQq4g40m7k4FNs5QvjCwKq8/YbxJO3M1Qu3V5rRdJ7ySUX+ZNK559/gf9w6p22UMHL0QL/4IvY2wIQ0tZGG7tGjOV7775Hed0//INN6MP9ijJ96C9dG5A3Bd4n2EIXV0DJ0w/qI4Ac2+jURIy+i+sn7rsR/CIw4+STT36ddr+a1Sgir8kItJfEGd07QYmc4jzRV+hGDgLohuAXoQPIDk5DyKhR+AOvFgg1GmSZLIte5JCBFxnlsy1SEXLUs6iIF1Keevb+2SZ59K1aubJ8//vfKx/+jw+XH/3wB74NPNh0dvzvkR7Gtqg5D6XRDbQpTty56qk44D97P/jYA+oiTUxGnd/F4ERmp512Lk972lPtcG3bXtsg6mnf9ddfX779P9/uPXc5eW+ILR/f4Zn9j5IK5ic8u+66q3/BbZ9993X/ZZPYKZ6ZaA/tIp7yjW1iSlyIdz1WkKFf4UFOfTBrFv0XeQ4xOQrYddfd/O0VfmQHOR/k1gB0R480/3AeqA9sT8kbMJwrHnLwwT2/5lucucg1ZnnKGN+ktE1+kWfMQWxzRMOphXzN7dQ8Ixa0TXFBzp+sgQDMDAYESSmnMSikMdqmDoWU4ZwMIi/DtQ5IthQk8SGHLhEQf5dctiNZpeLNhAwE8CnbkpzsKMCSgZCRPKD+lptvLt/42tfLu9/1znKBrcIE1NTQrYVfXrKMy+mfv/83Zocz6LPDn3FuI9jE8gewrS7sxwUDIcqwG4dR+Ao49GESeb0RKf2hcrUt4hNXWtdzu8L8xjH++R7MCe3WT5uMLGdJIMZwJzwSLscg7798L4TvbR8orrQhD1DylKltNdAD1f3mX6nDnhG6582d75+TfP7znl/22Wefps72QhY3a5yntNuf523sUTbPJjQXfQCHqP/91a/6k0nY4/6s2yVOBvzHF3xmUpHHF0CKTuaD+2dyItXBj6+KRSZbpGPXzAyGgZmKoAKAAngYaHQ0Hc7Kxx5QRkiHQfWkIvRKd4Ycy3U1T20TP0Euq2UyxC9kO106Mj/PhrJn4d7gG97w+nLFFb8zf9sLHpKu9UD4TaxjIMa5xTa29yKNlTLO+7i9EBM7FgCuiCJD38CnlDLqQ5ZThsmxEeo21+hJDGcLOE9IdKntanumGl1lgNIeDeABsbiF7oMPOaSccsrL7OhgJ59wuMeEh4cJxbjivJrxzh6Pp4544IHxTN1nP/vZ8stf/tLzxNWt238dxqtchG4dCRL7UaC25NTfvpAB5cWQO488xiDxQJTXJJBnUpFmGcl1YVD51gZ2MoHaR5DrCfSvf/Xr8tpXv7p8/KMfs/OQO/32AHvBeE0JARey0WGT0yco53pxtBETMC59s6ixqtaLTkwkrbJxQcAnmW3DE3uRONxctWqVHxoxMRVn/nUh2sTK75rMx7BnVnpXETkfbGo3G4qX2rM5CF+D/HDeiCgPgjcFHovvbJtgBx50UDnjjDPKXDvvpitoY/yz+DV7P3xcs+YOjyFvZXDOO8f2jstuXVK++IUvlIsvusgXRPjoDbfetI0+YvHUopfbqjx808G4BgMKOL5lsGhwaIaTxzCDAD6MdBnKDgG2pSMD2ZpXoHxQ3SCIf7qymVeyXWXEg1sT//mf/1lOP/20cuEF59tEWm0T6Y5gJBYmRkR8KjTxQY5zO3QQByaMzilcwHi5OkqZ4k4+Ohi1nBvFYd/6DetdD3qZxJynwx/9EH56Hlcae70yOFAIetueNKDMDlt9JeHwNXimAjr69QR6thLwQ750wkWwHX7ES8ugw0AHOOxmgQNcs7j//e9f/u7v/q7suMOOXjY2w45G5ti5vcWThQ0CXBijuWtWr7HEFtZZ4+XSS39V/uc73/K+2bhxg439uT4paZbmAntU9oRqK6louiAuPhHVADqPyaaAxQrenosBDGk7d3aXI+Thy7wQeaDOySTUeZH0k2cgtoPRurDJq07lddoF+SUfxcvkudnOB//jwx8q//b+95Vrrrmm3OYXZThs557qhOU4xzL7JrPRyUUdqEEfh690Pnq5yEDnsufjsBMb2Ia0MGpvCOgH+KhjEnMIG3VYBmovA6V/4cOe2kY+3l/sVRqxHeTX+kXTAD4oboJiKajefbDxptMgt2tYe8eact111/nDEOede66/NM23dfiRVfZWvCo2CGojIA4bLVbch33CE55QHv2Yx5RFixfjgJ3zzTA9E2WdLWqEYLZNzAXbLDBnY7HlC3rz588zm6vLD3/4/fKjH/3AYs+haDxVxmOGugiDTQi56IuYpNEP7XiFAKl8rMugGaeeeurrdIxLYCA6G4XqPIARHIBPkxNCCbw5uKRykPp6QmtiUi+bWU4OijfbY1t2IAa3UsprflFvIBpPTdikHj58BaQ8x8irS5/59KfKZz/zaX+LHlscOWqI2dCyP6abf5ZtwuUgSzuImW837eL9Qa76qQzCHj4Qe1Jvp9ny8xyr5z4hk5F8Blum1fSOl1122aU87Wl/5v7QLsUUYPemm24q53zzG/7LUSbhh9PSEHsjH5MVJhUYomznnXcqxxzz4LLHnnu6b7IJcj/k/ge0gXbCzwTjEUCecjn7C58vX//618u5P/pR+dlPf1ou+81vbE3YWLZduLAs3Hah99NG+tsWIuzwJQJS9ClmsmPNLYsWLSq73Ote5eqrr+pdSV1n8sRi3CZlvLWiJ5TGbJHiltAMf/Tv9tWryorbbvNbQpxL0g/Az0eRb+QyYd99NDuKhfKUIwdP9rMn+9rXvvZ1nKiiWOctahzCGqTsjhlQBDUTfFqpY7WOp22060dGE10yOKLOEK8mlOzBl2WVh4fDsi576NVhg2QgdKE3y6BHdpFDt/wjYJw7/Pa3l5f3/9v7/dMLPKNJ57KCMwxFjjQRVeq8TTrXdOveIBdp8Ila6vx80ATpDMrwRxcVuFEeHUmHxkTBt340K6rtCZmIxx//RBtIcV4JEWfahH727N/42td8gZGeSNAd/qBvMibbBDxa9qAHPbDsttvuthdpP5GCvdxviittoj1xdTeuvDNBPv6fHyv/ZnE+77wf26S81l/mveb315RLLr7EXx+bawvXve+9lx+2e7/ZHmqd+tImMhMlbmdovNiiZjGcwx5vwXzfO1566WVluZ1eIMfzt/NszLPnpC2MN3+rhdfQzC/6Sba46nzIoYd4H/knSKwvGGPz5s23cRYPcWvsgDzGMhGXPC4VEwib4wqQOkYznRRhnALUZ6IeIp95kNFqoPIMyYq3i5AjhQeSnPKC+IWaR3n5Kn4IGxC+sg0vcSDPfTZW6H94/evKD77/fT882mgd7o+ZmblMQlwKaH21fYKVxMURU+l66SAWLTqZgcteBF7iTRq3KuKbM9ikA4mj9oRNcxzwi5ABLBLIMHGRUz+QKgZ9SjqABxAHuP0HuZOBKnxmz41/UJRHHxNP2YUoFw+xoOyTn/xk+dx/fa7cdttKH6AcslOHl1ykufG6G8pH/uM/ykc+/GF/4sV6zggdjC0ja/P4DLNnofZbGg00wMHRRx9dnvvc55bttlts8dhgE32NLearzb7V0wYWPBsL4SdHImbDVN90083+yCJXyeG5019dY+ywh2N8M5Hbdud5AzSONdYyKBcBn4hyGJDXthilJAsKeRs5HMEhOSXUcrIheyIh54Fs1/zDSBgkB0gZqLSRQcsK/YEPfMC/d3LFFVf44Qodtt4GOJTbIZ+4IRzlVWyMWHXRzerJiqhnRXUryH3zAdAOUlL2gGy6/l55u91NYdNa12sf5bQvt3lrIew0+RH0y0+1/7e//a0din4trlraoObxMvUFfJrIy5YuK58/+2y/tcCN9xrwdiMWNyb4/e9/dHnyk5/sezLOA5FZZQsuP3W39g7b+9nhLvZ8EbBmsCdkQeS3KP/L7HJvUbBWNLkWarvikOOR80JdP64JM4hZgSPt4gG5XPySEcRTU64T8Cf7NB0C2M22Qb0NLza0t1hne6lf/+ricvrLTyuf+dQnrcNX+OcWWEo4FJphqy5EJ0j/JrlsK6U/PM3q3KzSlI2xbROMvSB7Kg5p6GwmPK5il/hzX+v2VTYgzIeebqOuOA5DjsEowP9BmuOiU2prF6VYCKPYh4fDuR//+Mf+pogftm80exssjnfiFOMuJpG13jY3lRUrl5WPf/Kj5ZvnfKMsXXqr6bC6jXb6YzH2oxPjJd4mZWn4E30cMdlhhx3K4x//BL/pz71bjjLMiP0nxnZea0rotvXrOKzkKMLKWAwt/t/61jnlhuuv9aMidMfRgunFrm9bJsWgC11xyuQ39FWhVJRRbwsqz0YElQ2SBbVclz7KhumYCoN8Y5AzOZYuXerB/qd//Ee/NbFixXJ/hhSLfjja8Gc95FTW1jWpyLbxGzvrrIN5C4KBwTn5ggXx/RJWYFZmruYNQ22rR1Hr/5VSSl2G+BvG5q+lmxHWnlXX6dkeKJuqv1TPIV+cO5uM/XP/XB+yLHqxCfF9miVLl5SPf/xj5QLrI/aM3MPlYk44gYaGOUG2iPUOO2xfTjjhBD8yWbRoYZlv5496NJOHu1kI/RCUxc98cmX2n880sjfmYpejbrQx0VzZ8pKGRymoY6Nt4Df0BTFl0t5JgB/KqzV8qgNZPvNmkpxkswygvibkQC0jiCfzK1/DJP0c5Jqrry5f/e+vljPfc2Y599wf2/nhat9LmpTJscLC29JAmIkOMz0woWMyxsk8NrgSGhfH4kpe+DlESRe8fZznqL3EqI2l9PbiMFD9lC3shKnvXVEE6o9sE8p9znjiyMDj3NTrIYYMeeRkfkPc4vjsZz/jF3E4vEVX6Aj9dQPbOIyXhQsX+88DPOABD/A9Ikcm/gEqi7/3hfVLnKdnxEWa884/r1x66aXxNobvZdEd9W6WnDIJrX1n9jhAOgRX6vcRGRhsdF3RYZvVBKfh4xCLVHmMU59lJIdx+LjKyWpD4CBdkUJOVznz1SeCiz/ZVrYnPzOhC8AXF0NaoowGwwOv27C43Hj9DeXTn/xU+eAH/q385jeXeWDjZNwCZJ3DV74YHhZGPxTxwxG3MhmUD6oLUBvna7pgo/uB0fnqxOFaBiMGBAN8nsUzx5V2YxcKK5MHzGS7cQA23J/Y0yimENv0kfquvTgVfU7fwgPvve997952t082QU0XHrB/hDgF+NWvLymf+9x/2R5yqevhpjsvPDOZeF2M1PNGs8w3YkAs+FzIjjvuXJ7z7OeWbbddZEc95iPj33z1+6sQbnCY0OfOJv+B2AvOP78sX77c+wx78ZJ1S7QPKBYam+S18BAXzTlSCLkZJ5100usoJHh0Hk5LgQjDBFIKUAahgMmGjGQlj3F0ylgtBxQgOQ5pEsIjZ0khyqiHD1nJyB5yuggiWxBl1MtHbhBffvlvyjve+Y7y1a9+paxaeZsfkuglWVY8AkdZ9ExGDIvNQ+wNREKslpuvE0IHb0M8+9nPKgu2XdiLSQzy4ovh73//+/Ktc75Z1qy+nTsuAVt42nMq/+v5Np2MOEsqZbfddi3HHXdc2W///S2u+pxHDLg8XkT0D/X4Rgo/X+LmKjVjxU/SDL4gun32lJT47CBjf2OhvPnmW/y8GvssZIwN9mjYXNsQ+dlzbSGyOMyYabGYMdPzu+62m7+uduXvflfuWHuH2w5rjW3f/cqaLZ74PT7Dj5b23ntvf6icMeW21mLH2urti50E44yU9qkf6G/FQXNAKe2x+hgUzQbWe9A2Kc7CQ6o8AQcElYEggl9lguqA5AXV1Ta6CD50Y0MEaBR52RDY1irNvaXbbdJ953++VU4++SXlW9/+Zlm3drV1EHGPQwaXYQ/FuaH3fejjB1viR1v69U8XaofauXURRyeKASnEld8NG/jiGLcZ4nDQVhmOk6ytsRdwv2i+U8hNRUD3QXO52pf7EpBSTz/h50EHHVQe+9jHlu22245aryO+MQ/itIDyINVZHxtxC4JJ/MUvfcnLOdfk/ql/egQ/OHw0mjXTJsLM+N4Ph0FaZJ/61KeVfffdj262SWZ17jfjWfbCJsdB4/7WzJjtFW8qP/zhD8vKVausjvHNImc8FgPaRPtoF/rzGCXPZAT1+GabedQ/8zoQwQko0CKAskHIfIKcg2pk51gpRNqzsZqwLZvih7AjfiDb2f7VV13lv5b02te+1p+YmTmTiWsVRqyCY+M2eDYh3y4SLRrGrYjs/zAaGcYKe2477dP9Lgahw1cYUY3g6fJDJFnPknbw59j3+9OWs+fgedDjjz/e3+HDNjUsmKHHBq31hZOvEuhFEp4xfzCBe4zcBmF8MODVTT0vjW9TU+bCRmT3sT3box71KDtU3cHHIkdJId+TTEQS94F5BI/H71AVPjVqPTcaumIxtmTJEreEEzwsmycITAQEBzi00R5Q5YDdr14hqcGuOz7fEPexAGNBNihbsXxFueXWW/wK2pIlS/0nqm+3Qyc+o67VQ0AFKxu2Ql/oBGzToXvuuWeqb33lEOGsj3ykfNSI30ngDW5uBMNFx/NYE50QWqXbcj3z4TODQmg921ww2JrsZkI/y0ZMDzvssPKZz3zWD00FDq85FKUfLrr4l+W0l/H7iLdYa6x9ZpswKcZtu4GVWbnXqMhAhCJKxewdXl7xitP9Z9n4RAWgzzgsZczk/iNlb6HzVkDfMIH43upHzzqrfOmLX/BxtmmCSYEd9qo25jBnswn+6NfGIWszOh/72MfZEc5Ly4477Wh+cDOh7aXFi7f3Ny7cj6bQ1dn2Rb/4RXn72/7V96xMKh4KoIXtQtz0udnk8JSqxYu3K09+8pPK6aefQY2Ra7N/tu+0sclTPOz90K8xqBjwtBZzQuVAfGO33nqrczF4Fy5cOHQisrfJSoAmYp5cQp6IwupVK/1yMBOPG+Y8RH3ttdf54Fi58nb/6O36CTt5tj1TDIwAqzkTBqhhJEHx+NA//dM/lQc96EG+0gL5Qj0T8R9f/wa/4rbRTrI3ce8ICw0Pj4jFnqNF/6GobMfexfOte5sF+b4l6JqI2yxc5GWAAbZ6jU1EO59iNT/tVJuIt8QPleJA9HEeeNYoym0w4hve1R7KJp+VeMUrXmET8Tjrn1iI64kI1EbGmM6fct/Ae8nFF5cP/Bs/ynOO9U9+agUd+BmnHSHHJKU0jmjo+9NPP7086jGPtjG8CKle3yxetL2f37kHTTO101tu54n/ZePhX20yrl69ynQ1FcFtkJ0Ah75zZs8t++23X3n7299edt99t96k40ificgbTLSPstxGiIlIW0GuI+8RVQMJnFaxTKoX0ekQeSkTZXmBm6PLly3zh2+/8t9f8adWXvXKV5Z3vuOd/tuA5593XrnqyqvK0iVLzNmV/vItT6TQISIeb+IpeBoCcZ+P1ZTFgXoeCaPeDIePIvOTSeaHLnYy2L6dYL43ncUkj8Uih105bXfVbTkI4ZaQQLi7+gDiHIdbDOovk2xStYNtUYZt87+P7E8PTGJL/E+LelwAyqDsl+oYuAfe98DyvOc93yc3VzozYOsjL21t8GTOJz7xyXL5by73toctxmdzbcNITz/5NuPcFtQ5c+eUo44+qhzKs6TymTb1KIAMj75xsYdFxnZefq7IrShQzwX0Z6gMnjx38va4DhXYxTPAMaRbDFrZUEQ9sx9+3QSljDr42PtpkiDPnpCUFW3JklvLJ/7zY+XFL/z78q//8tby4x+fW5YvX+ZPrsyyiTEDh8xhDirsiMRvG3QeqtM+C6jq/NI2K6aRnnCYP29O2Wb+vLLNgnllwXzzde7sMpsJaEIb1vOtEVttTZZVnWDbKA31lqUt9r8l+2dD2oh/G514yqNvR7kFoO/UIVtOoZMFhUVKfcEtEgYRKzkLkV9cMUSbm8HmjQ8Fpsn1+aaxTrbTElo4t2KQacwwDthmbDDBMlFGHTziFXFzfv/99y+nvfy0sv0O25d5tmfhUxX4js/IOZnDokC83cNV8B98/wdljY272TNsnM6a67TR2r8BG7ZQ8yOwvEe6Zi20xtp4Z9lzrz3Kk57yJPeNY1MPhWltiXZyaEss4kFyfOdwlscWedic0yV8gIg/9cRDpLZig7kDseeEdCV/nGNaiEDRcRIilUJSmPNHolBAHuPsbThxZvKRchiLDr52/YlPfKL83//7f8vHP/6fdi54q9nY4A0cCp8QU1OEKsDA4NAH39qn4nl/jM9RbOPBQqRPjqCjK7bu0WBVpf0cFaypBgH9Qzz0gaqtBW6KrzN72Mj9jw3GBuNF40uDDj81tjIx9pDhtaMXvvBFvuAzhlg41bek/X2lLY7mNvnTURdccIHLRntjTCsOiokInXxwi1sg9znwPi5jS0yjs0UdMvy69NJf2xHe1e4T7aJ9yFNHHCAORSHylDMR8U3+QTpU13FaNLIZ4Kw8ykMAp+tdKopVLh5dmGHXzdeuuUp5/XXXeSBYqf1ijQWwd6PW06CMMTt0EPmznL0PxSayPWFLpqPxzf6gwQidRo2/XkyJFTmxM7UlsJc6kW/bfk8hBmJcwo8b96IJO2ynnr7hMn0MtJo2H4wVbGhsAI0PpSIAP3719nCJEGcyPvGJTyhPecqf2p5xxzI+0863zEeOYDgHozvrtlNIunTpMv9gMI+iyTYInnaxYtxCbFO3aNFiv43CghWsyImiTVGOHfJxHsyPCzGheWwRqP0C2yLsYE88bMsvysLTBDFk6kJdjhFWH/aGn/70p8uZ731PueDC8/2wdMOEHUuPMXn82JKwhlCTmhX/l6GyKDfCXkX9frbnBvbHCC2p0ZbVoZhteVkf+lXfY0igPQxm2hGtDmggKN8i5fN5gB2uRX5qSF2OZb+NyXAfDfK3R7aNGsYRtzKe85xn+6NoHJrKkB+O9nyNBThSTp34WPDq8otf/LKcf/75fYNeUCxEwjbbLCiPfvSj3a7bm4Sw17Nr/5i03/oWDyNwT3EyajtdeW2D3kSsBybbmWrkcgLJrpdXRT73uc+VD33oQ+XXv/51We1O4njTiElqaBJgxWunZxf6Q9qN3DDbCCH0euqlbVnP9h8TmhblOCTQT22rLaX/mn7UIumHB/RZW12R/Unwsp7O4egaR0LTLUbxAAZXJvnawL777uNlUPgo5oYcHA3EkdgNN1xfvvilL/qD/LTX5czuINtW7YeGe++9T3ngAx9oh4314bvkSFtC3+WXX+aPvjEpBfk6FWqevj3iKAqAGqbGsSfkPT5e8vz3f/93Pzf010hwuNe5mmjYSHbMpg5O+R88hrbNPRrRuyY10B6jaFfkg4xLFJx/JLAGNch9Sd4nofeZtTn+OHGbgij0+smJ7eYf+SkJkcgLOZ+BL93jjLKguCgytxxzzIP8B0W5DoF/XMRjj+hcZD2DHYg9KxdK1tlO4FJ/xYpxCbrtBahj78n5LLZ4RSoQOj3FRlZB26xste2BOSflpWbYcpuH2RQUC/ehKXPkiprqIIuo4wLBl7/8ZX/KgdsPdLpf+UQ7hzoeLBoFZYSzeVIoL5BNmwMhH93Phtp/Vuf6beX08j8+WPN7fRXb/edIvdh0tr4ZcL26mKBOQ4IvnWLpsinkvPzMFErkQxCf/njkIx/pj8LpaRtY28knEtBVym0rVviRGedvyOCTzuMy5BMJ9UcccWRZtJBv48S4bgEf4zjGMlXxgPim8qMf/ch2Qjf7LTChXza2oRwDgTL3UVeQJuyEm5VHV0NFbHOCCw/nf5ykcqWMTwlC3Cz+9Kc/ZXvD/4zfHODE3Zy9kxcvOTSoZ1YPlLV1xJacf1sz+dslORkxAAggn6zn03j46qnRxIb17pffS+J5xEmB/uMAg4m+4mqcrs753sQ6msMn+rhjLPSgroK8P+Adwk/cOYzkfly+GgjYG+UrleS1h9LVQslIDt84xYlXxeItBR6wfs5znmN2eKjfhDfZRM+OQhV4kPvCn5xfrrzyCjsy49E383MWD5vzMWBeGIgHstn5r11rdtaavXUTZbdddy8H3ve+5s8cv+g1EGbS73Waw5dffrm/mqX2Ef/cLkhXRumDHBPFhXb2JiJMMGvyidiWEvgY4HcYsVuGvvrV/y5f+cpXvLx39dJ85QM9wztx60NXs7i5r3atucN85R1DWxiiy8K/HszfrpXqngaOQiA+Ecggo8804JmMDBL6UCs5TY408vxpt0eLB99cjU+AtOMlJlS8daM+EFEGNDi12GvMccGF/uOiCx+Q4jAT33mr/qijjvb2jeIb54u33nJrOedb5/jHpdyWfyLD7MyPDz9RxruIvmCbb8SG7Qc/+MFl55136e2B+dePiM+ELWpMOl6Luuyy33iK7yxMal8mzSGfPykmbNM3/mKwCMV5T6Fy9jbKuyP8s70KD05/8hOfKNdfd63vDQHirKR0OM/92U6ZUpNtyLZM1HX4lTJK0Nvo9+10CMtWRmgLykA2Dilim8SfrLGcP0dKGYfLjWRvxe+htnTPg/eVDSB+zYg+oy9J6dfeOaJ4/V+0WnmQU+Vr0IsQfQw8tUWQg1I/JfG6jS1538RtC/kkYltjjkfINlofMj74Nizjo4zNKNtsu7A8+SlPLnNtErHA5zGKN0FYl9dmf9PG8v3vfrfcZhNE/lphDC1So3jyKuz7i8IbJsph9zus3Ote92psGPm4hZ00iHL+0i4WF54Y44sBfHJDRyV1+8h7/DuI2PgBPRsSIK+yTAI5Toq5cctx+JW/u8I/DmtMwdADjbDECKeVd329fwyO6ETyREl7VaERC2ijIdfbIERMp6cggkWwPef/JWFMMOJLm71HI/qOdtgfy9egswOpzbblpWR6MWkSUyGahEaB2/Js9CHazAsn36Yv0wQUdYFFlInIhQVfqI1iUm4q8xdsUx50zDHlkEMO9T2OVXl/tsgbsRizGP328t+U313xWzuCW+1+yG9X0FCMjogd2HHHnfyF5Tikp9yUJX4n49fEIq7XXnttuenmm8INW91zO+sUaHzncd63R8zIylTnZZbyZvOvf/Urf1qenyIj0DgmwNOatVy/6k6Iv192VHS3QQidjVZ4+tjYGMHBewgsCk2uBYMFihhREm32eFHmec96Puqn0xPBy7nddddd7+/t8VGoCa4X2B6CsUFei0HupzxAuwAvOrhww033+fMX2KTCUZ/ujrAePawUGe7xnXvuuf5za9h3JHPeUtrv/oQ03zvlPUWelIlyWUmwIrWBt1t44ZrzxNgDpnkwpG2SV9rbI4q6oE5Uyt7w7M9/3h/E9ve4OJ7mUSRzatzIr7YZnx/+uQYLDvlEk9qnOssOdn8IhgjRNTR0i/Tfg0GfsVjGRKgDL+TIWOp7AqgpGgLGG4OOhzdOOeUUf6ifx814q4ZnXdkb4QMDVZMxwxf4IRR+jdtEfLwdNu5menjCJvzz0xH7R//Gg/7BzUUaLtBceOEF5YYbb7Q8L0yzt4o9JnrNJZMPIg/NmjnL72HusguHp41vVi7ycWSkdvBmx/LlK/xtIv8Nf4QScjuGkU9EbUwFjHOCefHFF/tDr3weQKsDjdgaQM3oquCMweWT31ozuRlc2es/9/1jBU30vUVHBPv7eHpRHgS3Z6kWaS5G8DXxb37zG+X1r39Def7zn1/e/OY3l1/88pfOr8fKpgv85oLHAQccUI468kjbW833B9jRxwLjY8BmSZzWMB7ioXPqfnfllX7o6IemvfYL5veYHS30yMaRzeTdd9ut7LXXXo2vTFjFavI4xw7fx2EixgXL7thKR8yVloRxrnJxlQeFXL3h5BPKl1kp54rTooWLyu0rby/f/Po3vd6/iMz6YCtTTAV/AtSP691ISqci/iHfc3AQGU9MvlhlnbwsOmyWX6LmimFcNSTleD8GYfB1wXVkO/cQ6sXLQBs5f+edTvUhxCs/C7aZX2bPYUGK1kK+eHm7Y0ZRNd67PRD6h5JJ8OAGtxriy+TxNQWNHd4x/fJXvlxOf/nLy5lnnlmutEkxYYeI+KYHxEXwMwb1gLiIccf4ZKIzDh/+iEf4p/45PeLNipn+WhsxiItCfl7J3DTikxrE4orf/tZ/xwKZtXesK6tWrzJa6bs3XbGdO3e20Zwye+6sstueu5d99t3Hb3WhXYsHc9z37kxqbz8x5zMtE/4kD1do48roHf6UWb5CSkzoH66e0p5MjM9xOaJL3Aj5JV0jAkRKEHCGE+Br7Xj45z/7mTvhXUefNFsC2yJlchkE6Pi6vPm+7KTyHtkfJo3+RSkT0waWrWh8sp0vOeublRD3oAhCE7uBkLZ7EtXgTXIux2sQxARZX+bM5kNSTMRWmvhHPnLqT7ZarmEUe0ImI3sfHYJGnONwmGsIHBry6fo3vvGNtrf8pp+zaZEQMYABk5GxCOU8/Qcfn7jYY489SrxXypVPpNwTs6sJEj7YMYDL8GM2V191dVm5clVZbXFhnPOFN67AzplnO6J5tmhbGvl5/pTNbrZXlF0tdOj1/2yjnzorJQa8E7l82XJfaIg97WH+aMHBD/RpTIqYe+wwbH7F5W2IwEEohjLg477hZZfF83VcJlcQoOhK/kauBkGJf4M4WqBxKJipriVsO3FYQakFx2+bWGp/nPypB8+PoPseCh8b9ocfT1X/OTWDiIsIvXGa4bEEcVQTz/yO2E+294kPBDMZufUQC2IGW9Tz2ON5551X3ve+95VzzjnH9xjy0Sdxcoy+Y7yJvE+N4N1+++3tHG5/G9Sz3f4kLxvHJcND3L+74nfl97+3w1PFwsaD13sa20xKPp3CZGavtfPOO/tPtsEXE6/1D1AOwgee5rnNFpwbPE9dvhWIPG1UWzIo89sdco40C5IXAdKlS5aWX170S/8OpJf2fItM+6Wzflhpry4I3qZys2A23E6yhb7GVw9aQ94+2ClO9McH9k5Ne1MLiYgvmjbQNCmjVLHLaUxCUvWRaruALU1CBjCHxT0Tgm3zAV9WffYOvAzwtre9za8xsJdAHmicAQ3YPHDFt8AOXTlX3H57vvwWiHt77CEtbcaYwIMcS5cu9yubPuC5kJDg7ordNjT2t7MJz0+6xeLS8IFWtfMq3retvM0//cKXEPCbclKR2iGZTGA8B6ALCghXR3/3u9+5sfYQJJwI9FwdGdOXmBrWDTgd5FuRAve5+TcJd4UzdyOa/mwQ7e2BPrQBGH2d6yq+aaKNo+V8PDSbCZjkSiSHgxxqwrdkyZLydpuM7CGZjNxqYKLFeELGei1RBod8Bxywf9lnn3190LOncSTj2Q3q+Uk9juLi0xZW2zB4NFx/Y6OxRbu2W7zYfwqO89kuRHuDAKcBV111lc8T15D9afJKu9rWvzw0qBvP7Qk68nc2CWnQjJk2442FTw1Y+ILcKVZEiN15S+y9rbQh8naSb8S3IsXjJ4eJsvxkUkPV2Cjv/UY8FxwoM5851LKKaJP9B0jpR1Z0YQl1k+3cA6jZC7b+09xoaHS2TUDtLRykQX6pxoupN4qNiI/V1X1Uk8Iv+11wv+6c8M+VWG9Y307Y/w12KLesvPXNbyzXXHWlf8rCmBqJfkQbWmJi8eTLfvvv51cG4nIT9vGp9YVyiGdCmUw33HCjnbvxU2wzyqwZM8vG9fyAje21jDcTNtAxf8ECPxe1ItuO9hKLXjwsrhG3AJP8lpuXmH9xuI6f9eIyDL0b+ghpF5qJOlI+TR6XaFebWJTLyB8MGp+iPcpTzFLBQdfwYNzTYd3kA41DMPY+pDpXYWDofGbrIc6FdGGFCyj4kBHb/PEh7f0BWCC4rfD+97/PPzmBPJhobvyrHyEBnjk2sXhViYsptAvbsRhp0MtOK0eeiyn6+TfIHyK3CcOVTh6BdFv2jzL0cdFvzz25KNT1onDozMSemiunXJhhG1+ZT+oLiHLaVrcP6j30TUchlC+rxuV/v6LjBrhHxCXgOBdoGzoSbBXRirvV4PqCtGjwoDBXCjnk0RVgfv+OAAMm4x/jhGTAc9RChzM4IS46kAJWbP3gaUAx2PxYYNMnh40RbGnSU571xnaG+WB+cPvhwgsvdOLLfba7sQW//8o9xB4Nv2nLXJsgCxdu69+vJcUe60vsrZq0sZ3HKE/ZLFu23HyNce2/kWjl2EM/LwfcsYZxs84m50bjmVd2231PO/rjXcjQJfJlPW17mc2f1atuL+tNHv2aP8RF/TBhiwzjUmMTIo/9cVXARFBREPdVYjKSZ6VjIvIhnDiU87b9AYCAB0WHbOp9zIjGqW3kebI+BonxTxoYfxzgajFfQ+P3FjUZIdrsMWAx8r7LAdiSYMTDEnNmx4Bj/Hh8qRmgNsJv/6yveAqFwc9TONxjxDkOU1k41XfqPxDt4f7wXL+qyVsSvri4pMH0xcWmyeBCEadV3FeOiRGvMbEn88nIAr4uXmXi4W8+tLXDjjv62xrojsPgIMZ/TcRWC4cmniahYsMcoy2agBB5ysa1myRlRYO0SxVxGMG9KQY5vAqy2Y8ATIJqEm35pdIONPrMJ7VB50z17r/HSmZru/EHATrF+oa+s07PfQn80JQ4GDxRDPpiYRu5bgT4OahNRhZrbDUmutHUMVn9M4/mHxPhsksv808hMiEYrPqNwkwak/4Y2/iYf1+Gc0WuyNL2qRaAmIjt7QWc8XFitlik/Yoye1MbP8SKibRo0SI/DO7p7iABHzkS4/AXfsVfRJnbMz6lkM4l/aqpOqgGdfyDkVnLauFfTW4c5tddnWzb22F/gjBWk+ruGuIysxoJ2R//MRlOwImY2qnzCYanrwvB6hnJ/qHRyGhYaSsDl1TwzmaiWF56/cd2sh3KRPT9FBQwOY8p1BQNQcTc9NtkAkys2+1I62c//anvsZgUXcCeLypud8y/Ss+XtmmXMNm3FozdW26+JSa6yXBbAwR/e0FL8tjihjtP91AfF2aszv/2E/B42z8mYkaXL11Aew/DhOIkt+mgnvnpoLdj962tjfCrSQcQ8AHnqf/t0SiD6A8ZtI4mkNaTEOQYTAWPiAVkKspw/U1+FMAvHaS/v/ba8otf/MIG/jadelrfQ4ZTJvaI2ttM1Tb2tkuXLWtjw39L/bZOwyNQjk+kfDpjKt1AOjUR2R4kp7pMvkf0lcZQB9eBflvGYiJy2MBunD0P/HWHdZXVdYPqN4daXeGrGt8QeSMunKvUW+py/Yc+g/falHNYJxqF7+7QBVldafhskVN5tGdyHupCPmvwxPjip+lMdhi5TvVBIzsiZE+2l9x6a/mlTUTGGZPDycalJg421BYscc7FM6eUYXxy27TwB01s3OBvh8QRUfjs8IGRJ0Xs/Sy0lp/h70LSsGjjZLI/5n+k+MI5XydfA9lR29Q+O0yPy6sUcLzKrptUpF258TroADwzdZZGYc+OHaIO7A2va+q3iPgjWCObHOAwR+2piTqYPRDG297eEFlhF9Xo4oHiTwPL57pMNTp5/E+DnK8RdS7WxIW+4mID517qO0AMaHsXKPWaUETOQXYYASZOPGsqW03FEPTsJTCAL7/8t55yvhm/UxKE794u2rMxFk7asu227K3icLsfk0sYy/7M57rmZxeauHCq5T9gajbcluVJ8RAb7KEt47yuF9WdZGPIxhRXZ/FTlOeSJl4eo5yLsj2uAjYQpAOD+MYJJ88bfA8YK0XYBPhm61Sk7qcXNBsd1Muahi0i09EHK/MkDiV47yyurvWnPgh99GQFEewg30zU2KsB45R8NQ8En6U1JvGgq4tRoF6kxPi9AZwrb4x7Y2kg0D6u3PnqC/swuB7AYktMzUBF8fsfRm6Pe3E2brBltjVBrcrI/mSi0FJf+JS3f7afc595VpOLKlzEmdUMUg1UZLS4+DuOtq0r+j2X0ek0GRw9MAn5yT90IM+YZiLy5E+PbLxw5ZmjDL4wP3/e3Oga9JpMdyzCKu3nK4aKffga84l+YJ7RD/m2hq6ojquxdFItrMnIKsSVKh+DanR45380kNtBTXBqynxbSqEr7BMCC4YH1iairWi9SUhnenCbp+jtH2KC6+g1RP51+VmXT4dH2118NXXzTUa0OWD1m4yPnA0K9lD0HRcnSLX3UB9PhdBDromVEakPxIZ6E9HKJ3ziayLmPaLJN+THeQ3FtLO9Wi/lr+1Zrf+4IMgbEkxEfmJbewxSTUQR2wxi/yXgPsjPflDCb2Ly2QzGOOCJMcbLbBsjs23MOGHTJveddii70RaHObM5sUltmUTN3yb23L7Ic0h5UuLPBSAmYm6b7xG1AROzVgoiuDq8YVWNCRUIB/rhvfe/hJiIjBjua8WPmRpZu7yhRgxG53E//zd9vWuhQzh1Pn0KtBht7aazSLs9GyvY6hoZoyGG+cqVt/lYzIdv5NUuPnPIeIQ/7gnywAJ9i46pEY+f2QJgBPzQlL2gTUY/LPXxYntEO8zEJvaJWSx1g8ETTfjN7+m7nw2pHyDiT1sgzbve/KPSO6gBg7WLWhZa3N1q6RpGcbkEGt6w6aDfo8peQ9YEp+kDoei04YBnKgOj6oJvFGe7ddV9B9r4b724E1D0+/nWKO4OAYeO/M4lLxkzoKHcj7LDNQpSz6uMPW3ji2A7qEkUaOLi/wyKCWlD/KMOu0yU0YDeuC8oX8iL2FY7utA7VoFpEFrZxvkeYvCFcohtOsXyTrY5CeLrrLyLYD428Sb1/GZjVP+bWAzl25q6Nh/6VESMVg4WbYBbjKCh8IHbjB14IVPRjofp+csBFx8ARq4esBqfvUjYJg/0ez6x9rK9Mdivpw+uI9Ig+6O8A9nexpQIc+1OC5/zvBo0xyjvTUSAEq02fnVqo7bbm6zt5V9mebsSBckZC5anrBDx8aDQV/NvGdmfxqsWXp4GgHcYZcSguYkM2gkJbwzyaI9IdpCHWrtBg9qey0TiHaZrFJs1GY/7X5dTFvLqzx68Dimr01+XMb7mX1uWyEUjb3+cWOmpyAMsbm3BZ1X+sEePPZH0hgdW0tvmsUod5vX0klh+Iz427XE/rNy3XQvyxmdN9cNK24jHMYMc1uHckvAnd1yiQbZj6JUb4skd99DTQZD/PNnEoa/sytc6X8MfcRNx7No/awlk3PMQTygJo/Y3Ulce/DQWGQpkMHiCkL0rwaLhhwOWciGBbc4rGlfC5+yDH7eQoSxTRo7JIL5BPGkSOEbRVUP1dfyIs/1vyEusKKhdjdX5TvyTjNU1vWjdRs762OJBLmpF8Lfb0kWcfVxYv+bxEdRI+lhI1EOjr+HHVS6+8BNp5KXH9bKIW94PWWcacaXUFlV/LpSFXv9QSYhyyN2MyVqs4sLdbA8QvPjN2PDflDQ7Tpbn+ghiXBPheVBn9gIUdiPaMFbmzZ3necA2Put8l/IJ0+3js6JxrvJw7wYGjofz9zREPADLJWN/aNiAGRquXBzSGJGYswTSH0A2fVxinmUn1LbItXxbHW2EeAiY8ww6ScQzsn5p3ep9lYSRzt4sX0Ztw9biU/0ouuj4GRbz9nso7GEYCAwoOrxLTdyKIG2qPZxT2+QbRowZHvrmSiD5tidGhdkw+9yG4NlO7tvx+yWMSZE/9G2KaQ/fHYUYWzz/zOThnA4Gtx3ZCjEhXJ6YzGt+E8TKN3AldZ3ZW3tHWdO8tcOYYaITNz4ENTwKLXgIYdttt3Ebmjs8IscHscizqKCf9nARx8em5SF/+4IMs5UViYBmRfMtP3PmbFOCqdRg/lYrHP+o5QrUvObtDVYhPfFOMDqitAVAV6PTvz4Wt2C45aJG8lrLOmtjfJELPgurEwl/GtmR/YJ3Kn7qpss3CKPqopbVd6bHXn3ISkwceCuegdCNRrf3p+U9HlPbZKAyXvhQ1zY2gcizAAv9R1c1GluNfsbHHnvs6WOGvmNcMglJ15r/XNGkPXNt0s+bY4uLDXpeO/K13aAjACe1wYhDUbbHfIGKj4qxcDAWOWXi4YcYJ2YHe5ZnwcIeuvgNDu3hhgEeuJh4tEFETCDs6e0MtU3EpGyj1kCNqeGd6P5Q1xXgWEH09bSYdF7sfzgk6NK7VcB8IhBG/hsGPhnbe06+JwCYpw2Q5emyPybQLFZlQH8xoCHyxIaUfolu8M7cchBHFFahnG5X8zbF0Ucf5Xsqc7YpJWt5o6yPIc9g9vdjOYcbwRZ7b5/INondXfuDHk5d2sf1wlYg6lav7vo5iW5wrz2/reH6DIxHJlzuB9lT3m9fTAUuzMyaZSuL9THzi86MDkeWvK2MNvv5vIDfmJ2wXe3MGWU2v75qKxH7yZkcvtjxs3/OwvdCW4F85SPlmD8a5sTlPotBHAljvfHVeG3T83y/k3/Rhukg9PyhEO3RwPJV3jzkHId3Ryea0w0WSOLCNj+hxrkP2w70OEiVzwg7vlcp7F24wS0ijlZnqvwzE6hs9HKxzi+YmEeY6BEsJuc/MmM5+KjYaeddyhH84lMj5/fvqGr04UH2jr3YLbfe4gq54Ivd+OfqPB4x2ZzF7w8u2m6xxcP2dMaArvA3Um+DlWoMMdjxkc8v+idVjAG/J1MAEQ6S+cEcxZpFkAnIXlD9w06hb+fQgJHYCTmEITo6drN2ouugkezuQzl7OwLnvylnzOT9USsMNudmnGMyKWPiby0Ckfb8NWMRnCbYXhfbSvtpmujU8b9I9p8+4HCLQ1K/OGWDgMMwJiArLkRf0C8soAxGziVDh5DzCR3t1b8AwzFirBIB0ckUA9gXB9vGd3w96KCD/TcndGirgRrjxWAGejZNkOdG+UQj55YqS0l218psYtuCxMvEPb38cYd6Ej1oLHGtYdXtq33B8HKTqqnR5BOd3+VYvN127rMmG3mfG9YnLB6kgD4Bal9vImKYwl7DEwiWfwXZOjv4OD/gqYB4E5nve8RHfIsdW8c3PuDj4g6Hitr9AjqAXTjN2mLYyhaRJg1EG0iNzI4vGJQ3ZI7ECqiyhv8eBfNXiyDnVvw+oV+AsHy+dM5g0KEpgJ/B4U+R2OCg3d4vdIWTxWLa3TI5eE1XDwXjgkUBHzk3fNjDHuaHjhqD+KkxwzZ5Us4NscivAl/7+2ubI7NoQLAz7fin0tjDshPZddddPT6020EcexvG29hTysTh2Vdtt8BWO6Z5miv6YW7ZziYiYxxQD6ktIrWPfiEPDTw0FYMzNR3uvzlgRph8fgHGJiITkvro2DG/khWdzzdGog7gAKs1zrIaU7+lCA34D5kdBhL/er7bwafZ56tdlLe9Y38k5gj+3sTuQnPyP7D+bgRtoR/4jAPnPDQqBliU89KrLgIAXTSYsNWYq4z0Qzw73Byi2jyNwzsj3ckfqb3oaHJNirpREIsx42pOOeaYY8oDH/hA970esPSf943BFxTL82/5smVl2ZIl/ed31gASp+Yf7nObQl9liz0oE9usV/qB7BI73i3Ux6C6QDljnPgiA7F3RyeEDoi4M2dYaOgHJiFlEKDd4yhBGEYd00J+FUlXkixdvHg7b8h2223fC5h/Ccs6FX6UeuPMAfQRNAziKJM0npJvfg3I2s2KvjWAH4TJO9b+c64avwgbV3xpPJeP8dltO7/98xWNwxQF2VLfHWj7DwGVL4TMiPtotIsPFnEfjfjSD7zpzmNinA4ABgF9Q7/SJ20cYrBp/DXJtIH+GCMxVtiDDBq0NRgnPOzBW/aPfexjyk477eSLPT7yyXtIv4OB74C90x02MZgct956a1lhe8XJC3r0oZ+d+kMnnBrd6TsRfvuQcYqf2CYGjHvNAWzJHjx8ZY7zu7YbIsNemAWEvR9HhSyC6GCPSxu0CGqyaV7VtuCl70jHKdSMxjgBRUiXWsljiButO+20s3c4QOmKFcs9jT3cnWYgzlFixscxsmY9DpPHThxOWLOYFANoKvR4fUVsrgbaPzXU29XQTNt7Y9f1+qgLmegs0vYwyLHJmGq629D44SbtD/9tkWFVZxL5lT9rI5+35LyEp0joN/qBCzE6FGWwkp+wmNMPsRhyY7l5z49zRCYke8Iw5n+D+vtiEGHHB1lz/w07Pf87oTrkY0/w13/9N+U+97mPD1z0scdQH5JnkNI27Gni84IvH7v2V6b6FnT0N31q/LpBzxXT7bZbbLTQ5FmY4hYFOwb098aL2YUoo11MRGyyYMX4iZQ7A4x1xZoHz3noAJ1MMH7bQwugbldAADssMvSj7Poc8toGKKUBAIOAxvBEOYr32uve/j1JTmLpYE5O6WACgMPI0hD4OWRlGz4u1DAx2SvikB4bisB1EX+H/3Me0+85+0NQfdCyHZEL6kPsCSLHCGTv3KTegaav0TmZ4l9sbR1Ip/4Bb4cBP7wxlnIhhg6mw+hwLWQTFvP4ebJ4MJk4MymQZWFiIJCnT9i70Pag2JuxiGFDbW5caMDGIOKv9qr4EnqxOQy9IyLjZww897nP9b0hL/gyTgbB/TNymL98P5Svag+050c2XMM0H42F37TYZZedfQJoRxI+N1mDYiMwyfneKosFFyGxxV6VzzASZ+LHohaL0QafvHHoG0eLTEoWEnTStrzA0I/MG6XontSSCFQ0HmNynO9i7r333r77RUHcr4sVCtAGZj8GcYZt5HkygXIaBm/73towROCHkv0L1kgVQt9qyiYjuFo9DWuT9umfRMHjl+Rtxd0aVNvIdTYsvJNY7IglHe17NfZoRvBzJEKM6XTOCxkYtJEyX2XpYCPlGRDx3df4EBhNj8FHjo3INVsDEAMY+75leVfRB2lpCTscNuMLY+T4448vz3rWs/3+IeAiHzweBxsfGoc1MHv99Tf4JBkEYhd+QhzGLyi72yTBdpwjS3+cUwdfP3H7x38vw+I21/yN++DxuJrfArE8xN4XXRy18KvG9EXMjzj6ix1VfCEBWUA5edn2vvSaCnQke0CICceKy+53hx12aH6Jh3PDuDhAYOIKqjXSnBB/GA0jOItjkAcAIWgAvOtcbjjZnxAwWEmTqdI+pDKXJ01Zy3RTw9OjLp4tI/vTuBV7MwYre0Ir8R/9UTkxZxJxmd+yVIe85XmKyQ+Tmr7Roki/SDd7URZQHb75HDLeRpUR/4bAx7j6teaM8RCktsHOV//sUNAGK3t29oIveMELyr777uMLjA4v4QP4362f2xoT/kM23LroRKMjGmH+2OH39tttX/a6914eC2IY8Wh1y24GF2rY8/J4Jj7CovEb/LFgEGPaxhEHv71PneYC84gJGPL9bWM72+2biDBgjI7WxGEvxhvTrCoLttm23O+wwyJ4PpvtUKOZZDQaoxyD4yQNVmOJZy+wpE3NIBoZNKRpTOhuykBqJGDgCRGA/nqH9HVU3eUwu8SPwxcG6wxbdf2ii5XTNjrV22jgqMIHFIPCBjHl9MEdzREH7aPDGRDwIct2Jg+X/fGQqcFRGNSAXCbQG0ApTq5LcpR7HM03+8dRBOfqO+60U3ni8U8sL3nJS8p9DzrIJwZ1Lme8GpyZXJ2l0n37qtvLpZde6r9FOBhhG2JCcCFo7332sVjYRLQxOwzEBhl+No6jOPaEmMY+E07xY2fDgsaRCP7xecc4bYsvI2gBpI7JCtSGXpwawONeoRjAgBIFAAUMjpXW+A12brLd9juUffbdrxx+5FEW2PllnR0rj88wh2zVYRBgPBycsIas9D2qaXVCtwfUVI9CFrGpyfS5q+ilcV7U1AFvcDSaz0iwNkA6rOgHwlQ6Q78dWJtfKel9o2QrExNvnk3AeXYegk0GKE8nkecJpQ3WqbxNQgO4OU2PzfSVlr1nfO5+JR8uMj4mn+JN/5FCTEyPD7AEHU3P+98u1H5Khrwpc382mY9cm+Q1Jeejysrxn3Zwf3PPve5dXnHGGeVlp55adttjdy+P9phvxsfCDvAP/0k1YJWC6667zg5NrzP5rr0mxumsdiLjxwH3uU+51y73Ml50clgYH6NCVhNPxPhnEnKhhomouRHjJc73SIk3NNtiz+LJA+uctmETHtpA7LFByrZsyq62sTuuK6XsihFgNWYCkrLnwwjwL2AZH08nPPjBD3ZhrvyQogxHqWePyNPz5o8b70I4QzqYpgt0gjVc3raFY7UFEZ/v4KrVGt0LYk+B7QjuHw5iktAxnL9FfOKKpAaCtdA6mFjH5xuILcQFMOexgHN4xHkKewA+NcjFCV0cYFHkXN3PP+kcs4nOgA1Q+xt2o29GAX4wVriXCZHn1grgF3nZW+xuk+55z39eOfM9Z5YnPelJ8QOgC+JtBI6yeG2IMcZiQjuYBIxFztHoP4gxyqDnfPK888+zSXKdtwFSv4PI5u1NfgvrsPvdz7+BGhdLdGWUh1Piw9mZmIg33XRTufzyy31sozRs2MLY2OOqK7LsLbl2Qj8QcyYjurmtwQ+qspfULRjK0a1TPhF9Qj/7j9AwgWKmt78priAzGdlmdYCX+qOPPrrsvvvuHgjqSHlK3d90sMbE5HR1vYBBQB0d6WBiwkxFcesCXawuIbfOGoUPXN6HyLM44BMu6PAi7MQKGTS1T0Gj8vUTUByiDD2tLsYPg83PpYyHgUIHt7JxTsgm51RcRPBDIztSgYc2QfSbVmvy9B95+hi4KfuTyTT4Hsr3auQT1byZABeOGGQMNg6Techj5112Lg8/7uG293tZef/731+e+9y/tIG6i/nB1d24B+fjbD6vNRnZZGQvj07GIQMWYoCKqOO+4Xe/+72yfPmynn2SoNYvxsL6dVwV5mHy7e1cdH/zMV7nmz2bSc9k5L3B+AK4JiHEGOciDReDaBd7c9Pqtmhf9ANXpIk9v5HBlc9ZZSdb+Og32qUFEHnIT+W8v+K0D1IbRb0Xg+k04IUmpPMLCGCE1YmUVffJT36yT9QY6PFD/UyICJBoEDLP5hN/PZq+GWlM9xbqGICPcJAqP32ErtERNrR4aIFjD0CMmSTEmIVCcY/OWtfIsAeLPoi+ioUEtdGG6DMWSg1YQe2EcnlkGbRNfIw02IC22pJuIGva3Rd8WrxocTnxhSeWN73pTeWVr3xlOeGEE/ziHhdLGIzyIXyyAW2TknO2GODRFgHezE+eHzb9/TXX9HYabrjPU2RyOlaOPfY4/8FRP/Qljj2KxTdi2hLgQhAPDDC2Y6/oxe4DbmpOwE87Fi1aaKds+/qkoz+z3zXUrmyTbf99RBQzQMSAAsoiYJGPPUpcsWPGP/GJTyz777+/ByUUYhzDk43frXCfSRvqIQq8rqlo86KtjbAXMYzDTw5nWEEj5jyjyCo9yy+yMPlAr3OaAcoCF08mxa0J3X6Aj1VZefrCB04D+IeDPhNtHvATcabuQhuQJ/zZCeUxj35M2Xe//fwpLNqpMea8jn6/rJX+T/X4Ld8po2208Stf+UpZZQsOZVEPf9aFXJOzlPjy6ByHjajGx01WznTjp9f4zmmcTsVPiKOTPSK/wcHC5hPefQq/uNgT8yQmkMY+D7pwD5E2bi5cUo2OwRF7RgxAgHrKRfCxV/yzP/szP/YOmVgtGlX/u1DsIn6G/oLwMRyVz3el38Qv3mKPp4uYcHrigj1c7BVjkcOviHPcb2PQRXmckxF7TT50cI7iYyUBe+pT5XMZqGWmhxDOEydunfAC+Bya4ODQkL0e9cFrFcwEB2lyonWtB01C4sSV0u9+97t+7h/tCIHcppT1mPJI2yGHHGqHv/G17piEcfqy1g4tb1+9xic256Ps/bDFBPztb+OL435U2Ozh6DftjNiWD5z2cN6rz/9D/T61ecWrC+Mol2I6ngagjA6HKCfl2Jd68lLI4emjHvUoPz9ADsjB/y3gWyb6OvKkcIRvKT53IcIuE4ird3Quh/eAOEFcgGEvBw/ne8SeSYjPbGvycQik2DNomIjRdyyW3jCHt7kDEQPqElWsLU+brwkhEvLR1y2sRU3O0PD0k0s3DP1AVjGpsXz58vLJT37S7+vpOdrwIxb/yYgro1xUZE/FDfiwOubvFt62kq9xb/BDYl2Zpm8gJiHniOgm3sQ4XmyIm+86veB3+ekHHljZZ5+9/eLMIP+nAjL+qQwMRmfHpGP2Q0wujnsxTF715MX/d3/3d+WRj3ykrx4RGMobCxWoV3pXEuc8Ii7n+1A1n8ixInqdDfg+OQtw3/ZWIjrc719ZvNiO+M30w3udNzEA6GAGDHkmJoei7YPJs61svU3i2IsiozjmFGjVBqTKa0Xva2czmGuaFJtOcgMWy3jXUdh4p/ls/zRmnMYtP86tE67w4ose8CANYtGRv7KBH+jmTfyvfe1rjZ3RBjqxZEfBVVNsAWK8asVKv5qLbi7abLNgoaXBg/6LLrrIb5Fw9ZbFDj1MflJOIZh8q1bd7rGkf+hHfr2YHRVthmiD5of1jrdFZb2YJKLcH/qOc5e4SIAhOUXKrprOxwC8IiYoe0KOv30y/smfmA4Ovdobz3cn1IkEngfUtzHf8I+89tjxNTDr9GagZYzqseyMSsQtOoPzPGIYl/kZlIo7PHSq7sHqggx5+DiUpQ8gEDq7ByQDhEMt+g1iD0y/xpsCuo8YNLmb2rpAtKHdjkkfe2GzZf75T23b4Rm3HCB+ARgZ3o/0K6OMF0vJM2bQxRs9HFZnYgHCd2JDfyHHIOeiyVlnneV7ReIxCnh3lheNjzrqSD+05PCdRYy4MIlikvPbGfP9lsN2i7fzQ0v8+NnPfuZxpg30Af7yC8zMB+pZEGm/xs9B971v2XvvfXzc4TN8uu0SbYs9LTqJv+aOiG2/qkqjKWCg0lAmIgHBCVIUk0dJnAMEETAIRXvttVf5y7/4y/Kwhx3rjnM7YKN/E5WOi22I3VL4r87dMuKvwzftj9Fs88nvaVmb8G92k2qP1NsjmIgI+HhLugfT9BADOVZjJpgGMsXEnAsK+MfldOo5V5xo+oG4r1kT99EAe0l8QFdgsj/IaEElhSijj30CNyJNuMj1SGWafFEfZRnNGHS9vIYlfyG+IYM8tzE0Rjg3njOXcRMfD+YoRQ9OQ/iIDmKDj/jKGGMA85uJ3//+98Ogob1l1RQk6FYOE+xPn/q0ssgmmB8VmU8TNoH4iNj69WttsbjdFhA7ErR2zeaCme3tsMstC/a+8oXxjw/ersZXygEJ7T/k0EPs8Hd3H2/0J21BRqQFlHLigh3NIS3CvldUBqYYJO2xP4YA287MLrQhbVPHZDz00EPL8573/PLwhz/S7wuxkrvT+E3i/sfkQf3WoBaxckMMZPvj52RjNnDdR8r6+M0f23aXErLuQWR/p0W9dtsmE0gDT4OPOLIn5NCHbXgZAKqPskD0SwS09adB03eiKGr7M2JjsWh8CUQ+b7dlkQ8CSkHYb7JBAnmrox80TlhAfBuhno9k+33VeIJo9xVXXFG+9KUv+WEiMUFXIBsUGKOMuVLuteu9yuMe/3hblOc6J5Mx9NtEsDjzHucGjjLsPI+LLSyMjPVzzz3XbZGHP/qBBS0erM9Q+x7ykIf4RSHmkdqTCV3SB9QPmbwMBWxkRCe0qLdBXcZkPPLII8orX3lGeejDHuq/tOrP6VFpvM4vuguA/kGqPQYRB2NsUm03gKcOYhdNH8jFgqag06laKekkBhATL1ZcOi4OnURdfnTRIPTVe5AiCDrEiir+tBOMVNTyt6SyyaBcJFjf2L/JYpN5Na44tPviF79Yfv7zn/ukJHbEahAQYy+7/fbblcc+9nHlwAMP9MkhfaR6k4Kxii4dFhN3JuD555/vdmUnxybSALrwZ/fd9/AdEPcRaV+uI81Uo+4vk2n2XIYugYxhilnVF267sOxjx8tvfOMb7dDgqXbsvbh/FaSBlQNbhOHutr5iO4aBB4wyL5Ff0yIG73So+ITj6ijvszE4dIjDCk892zwWyICLw6uauvyoKLfXkOvq7ZainEze3hxqQYTjEFr+uEsQbEZtt6kCnphoEJPh61//evnGN77hV0o1RkmT8CRga//9DyjPfMYzXI/zJ7DNT7BxuAziaCQukHGRhiumPL3jP0XY+NK2L9qoNiF33HHHxmtcHP2lekG8mUB/vALuqYxl5oxh5QKDaI3t6nFw2222LS996cnl1a95jX+PhPs2fogFf4eezQXNudPUbTKykMXVUY+Z/+m1yzvPEi7UAG/PsB7dqsCX9kNEXKlbuHCRP4eo9wkhLtYwUDY3PIP6CHSXB7/X+X/yTdVmgIHo/zz2A2yO2bmxf3ex2U4IOQb/RPn1pb8q73rXO/wt/FGB/E477Vge85jH+IMmNdRWYswYZQJxAYt+IP6f+tSnfAHABw/JGPMhfNI4CrIiIybxox/9aJcfhCzXGY8Ef7IGAnI2IwZHHE7lFQLStuS4KghYcfjQ6p/8yZ+Ut/7Lv5S3/eu/liMOP9yvLMEvnSJ6RikwFqdBoMonnRFy6MQ/95HBgBqrJI78vjkXaIB/HsLq2Mu4JeoaCm13LfAvrmbGVU32lKy+HFJF+6M9mdzhEcCRh86hGGhQ1qN2ohKaBC9rbYq/jc3k+PgbFqIxO8UxAiHTIutCf5wv4ge9KIpzsCVLby1vecubyrXXXmPjK+71DQOm0Mkh/IMf/JDy5Cc/yeOgdpNXXOSXfGabycfDAhdccIHVxC2UGDixtDsZH/rR42PHfOKVJ3YyXHTx7wSl+SG4LgO25BP1mQR/+wJij8VVHC4zx2X/eGpcl/4ZNDity+IQ2ziAMz0Zo222jY//7LjjDmXPPfYoxz/pSeW1r31teekpp9ju/Liyww47ui0ciZvYNALHaAgNMGoc7ALuG7fLc0GG+zwKGx+ExbdVyUfOA/CTwQnYE/nkDEV3C5o+8bbiS3Sc2j3YCclNBV2QoI1xFbb97gsDgRgwUKK9DNKsu9/IqDZ5q54XZ7GhcaPzL+Iu4ub3HXdw9Zd7oPGNF76vw60cDte33dbk5s8rt9x6c3nPe95Vzj33h2XtujUxCQfGhvZGSiy5cf/4xz/OL5yssoVO/c7YxT/8yuMaf/GT1524IMRtknj/E6VBEQbsxOiCn8nEUc1xxz3cr4GwN6VdzCHO87GHLd26Ucoc8aNG8wnf8jxibvUmogaqOjGnKMcgAjXR+Uwq/+4pDzKbQd6t4zYCctyz4zsfRx19dHn2s55VTjvttPLCF76wPO1pTysPechDywEHHOBv/tMp2GfQMDCs+a67k+yf/7dI0TgTYtOCxEuwunRvRLpuvadcKaONPGRM3le2NOBMbb+Nu4VGtTm6b7osTkrfQQwe+opYwWPamjYj49kmje2sTxQgbQm99Bm2GCtB87wae5z38oU3v5Rv2/SJaXP/5BvE9YWlS5eUr371v/0JGgZqz+QAUO8TxBYyFlbe+j/cjrowTp+H/Tt8DPb7F4RdJtYll1xSvvOd7/jYaB92iB0CvoYtGyuWZ+GkzYsXL/KHWJBh8nGfUjsz7El/JsqpD/6YcxB+UuaPuOEQDsQk6AdlKscJbUNsA9W739GC2PS9Tuz14OQmL1eznvXnf+57yLe+9a3+lP7f/M3f2Gr2hPLABz6o3O/QQ31y7rPPvkb7lL322ruP+G4OF4SoI+XNa/J777WX37ynweGXkaW40myVuQxSO3zmxn4g9gwBOqBx/24jdXwc+gyi4OmSz2R/DLlvMlGviSj+EAn9/Sn1NU0uZy8M4msNjS3X0NTjf8Or+39wcGiqfoL46tk3v/lNf2dxxYrbevoHIepjD2UKbEzsVZ7xjGf4888sxv51O2OCZCMj2hmPznHLgidpdLQUkzt4nM9txdygPfh98MEHlyOOOMLzjO08hwTZzX0hni4au+WWWzbBpMPSdiAHyLM35KkEb3gFZrvLMRnlRyPPvZrVt6/2Nwu4RE8nWJwc/h4XK7ft5mk5k5YVTIczvN9IA52wa87Sjbx4SsfTQH4xljIAH98M8S9BU27s1DAALFT+6z4/Pu/H5b1nvrf86Nwf+XF9GzaDbRCQeyrYKxxpRx1nn322nxYQA3UyE5Crj9wcP/klJ5Wbb7rRJGJgMCkATY9u03YdC3Q12QZHHHlEeY0tqH/yJ48yWS3iY374RV/SbeiMix4xmBkvHD2Nj/P8552+xzz7C2eXd7/7neWSiy/2Q1b8DZhw9ZHjcXTx32dL8dOg17zm1eUJT3iiH3nRbnzhqxGAJ2eYZPWYZrwQK17Z4n4lynxyN9+6FT9jll8SQwcLz+677V5OOukl5c9tZ6I9LjH0A1mzy1xgD9yTb1LaFHv68EvQtsUmAqiC2mFAXS7vAtI2neJCSUNM29i2TrfEdv42qezQYcJ26RvY4oQZWZs81qB5C7bxz3HssutuZU/b++1x773LnkZ77b1vufde+5Td97x32Xe/A2xFOtQfYTrovgeVgw68r9Phhx1WtjV5/MRff5QNcs9s8logjz3uEeW1//D6csLTn2Hb8VNz7gMXj00O2anJ1N3DQDz6yZtbtSsaJp7pIut28d5AENptnrJiYE7YGDj77C+Ut7/tHeXSS39jg1oPNWSgjNET5AuwGSDlvJKvwfHmP6c2YZsxBm8/cpuYhJwTfvnLXypXXnmFjYOJZgLiITuMmPy237aUI4y4zUQ532B90IMeZH7ypbx2gqNfeZBjCpTHNgsgKW0lpW48Cyify6bClDJWZt3TCwSrivNaIPPhiTF6va7EsaqJL/NTB9Fp7OVYqSC/ImrAjg4BlJoCNPtKxWHvqaeeVl7+8peXne1QRockALap6A8WQ3xT7MEgts1qmweFTKu/BraTeUP0N0dgPFL2kY98pFxzzTXDVPRBbaEvOc158YteVPj0BuNlsq1+RH2MP+5T/vSnP/VPejA+h9mHn7HE7Q7e6ODbNAIhqG3Cn1Fvy48M3x1qcFPJDM3ErI1DmJgImgwo1yDWgIfIS5Zt+EQg66n5lScFkiGVHHnqM0kPJF7SmgBXzLjCxqHF61//+nKY7Ukpu6eD9tFuYpDjr3hSB21NcMuEf+15bPQDZX4KYYdssmlVPtjFx0WKCy+80F854mKFl/f46CsjT/sBH6c5XBc49dRT/c34GE+MD/rdmdwuh8HwEwONY4iJ/5nPfMb3ink8A40VK8EDJ0DZYYfdzy/ScGgdNUGIig97siPKez7Zk03l/bcvcJhJhYCu5GTiHJEViMuwmZBFCTwcL9dy6MOwrlRJBnvI5SuxkqeMxuAPvLrULKK8voIrWeSQgQ85kY7ZaRvnL8hzQ5dDmpe+9KX+vCDvk92ToQFXx5RtoNj5qOmBSdHkmnQ6kE32KrLJlVFOF6Pvoh/8I1Hz7NzJ+p1+YOLRDzzNQooOdMVMbAa4p5PBwOaizFOf+tRy5JFH2Thih8AtirhiC+Ux6v6ZPXzjHI1H2T73uc/5wwLcdnCktrt1bBu5B1bHQsOYfcQjHlF4wYFDVf9B3obm0T6LL+MM/xR73aqAGHu6DpPHJtuU+0SE6CQ5nC+tqjMxIl4aiAKcY6Ix4TCaCTmCgBy8mdCROyQTZTSGiZptQthDDn/QXxNyyMAHZTkADzZolwbsAx7wAJ+MT3jCE8rOO8dVN+DjInUQ2JzBeneBttMmxUbxpB+JGXGnw2N4t3uwINrWTsrBgKElDXJuD7X24gt+vHExb15cmCFVHiCDn/6ir+nAv6lg3nnKd3Ge8pSnODFmeb2JdqGbizULeO1tm/gdey3axICUe3YXX3yxHw6HbTuaSnvzaBdo8vYfz5A/+OBDfKww0bl3yudERf6al00qxlqeiKSQ7ONnPTYhn4i+WzQCTCgUicI582eKHiKQOZjwS176xVOT+IVsU/nMS0q5toXMn/NAhwN0jHyhnjwTl/tPp59+ejn55Jf4eQD8PHKWgbrQ61tN/g+HMnK8GOgZcIZMpGrL5rSpb6zEpTjXE/YtayBlO8cdfiYjj4fRJ/K1BnyAel7mpV8e+7jHlhNOeLq/P8ihKPrCXrOA+sRqL9ZQD4gDz5EyCflcIpMjt7mYnFOwe4pXEBP8Oc95dnzJm8Nt3uo3BlotdjhpC5BNEL51ty/XhfcJqqypRjaW0SXTa2yFzCv+Oh2ELJd5B/k1FfjuyDOe8czy3ve+t+xr5x3sQe5pUBzquHTHP7a92Ot9c7Nh1vxfPJliE6Hv8bUW2Rc+y8meaxCYeKjk0Jer4DyVxUvo/BgSE4+JShND3/AGsDfkniEfoGIRCER8BJ/MpouU2KEXH444/Ah/+IQfy4nFIe4C1BZZipicoO4D6VPba/QmIgwSGgXizcpluIuA+CQzTE7lNWpZUMuKRgW8rGbsDY899mHlAx/4QHnUox7t96A4fDGOYPwjRffQmB56MTdluY9yP2UwwI866ij/Pi5HJXDVcuzF2MPxVg9XK0952Sn+jCeymJLN1kTT96m/0MOR3i9/+cvyzne+s3fUR+o37xtb4o2HFKzM/5qfNi5e8Pd/73vF9p5r8MuKJLIu+SbKZTUo69sjdjENg/izAxmqn65egMx05HIANg8WDDvU4Vj/fvc7zB/F+8u//Av/oRQebbonQbGo+2TzYzMYMWQbmPp6O82Jnn1SzpO4YPbiF7/Yr1zznmANDmc5fD36/kf77ab999u/zLFJK7Tt6W9ntokOLsxw855DUiYhcWEyk/b563ltx+91PPzhD7c991H+jCoP56NPEzLDJdFXxVyYKvb+gWFWHlKM4GAmHcP76tQYIYVfjaK+Jp0TZP2kWpGA+LIttkG2gZyI8ghG6FcqyrwidMhPbECyRwrCjtGE+WZ8Bx18cPnbv31eed7z/0851Camf1bPOflLUD30FPSDqruTGljre3HxbWuDtmm7qNPnjC4bRi5lOkXop4xnd/VTcdzX9XjCz7maqNnzEGP5BHGRgjcY/t72OFwsO/DA+/oLAdva5NvJThW4QMJFmZeefEp50AN502GO9YONEdG47RmNeEjE/vvejJv5+bEzHp/joe7vfe97fuEkmhHj0i/v9hppPm+KPKeYfJWcve+zn/0cWzC2c1vx6BzXUpqxxQP8/uA+49RSK/N4WAzURvKQbDL+89iUn2OrVq2yGEUnIaCJJ1DOMTWp6sQvPpUJqq/LALwiOStID44prQFPTjPwXxM921ZggGwrLzsKiEAdZTzax+8g8GwsL45O+KcT+L2D0BMyoc/78W6Gn5KRWvuOOPKo8l//9V9+fqs2CvjMfbsT/9/fl5tuvKHnuy5ygFH9l83Djzjc3znl3pribb3uz/L2+gCdm2KxBKT0hfjpG3zjWzHczuDjTXyEilsUvP0OcWEGcIWRPhF6Ni3NhA2IK5W85f+2t73Nf9hUvDkF4ndYuXlbdthxh/KMpz+jnP6KV/gzzLDrw2NqG/GCF6hd0tXTZ4AXGXyv7YtvzALgJQSEZxRZpTIQ4AoTl2OlCGGlugSbJymAlwATjBw8gMPYgZADksVhJpOIbdUDZDinwF+BOgg/WfUkgz75yUUBDofqiQ+47E775LtAPW1Djo7853/+5/Kdb3+r+YZKeh7S9w3mfxv7uw2aFCRMRC5GcDinttEm+oGb11y6P+lFL7RDtBu9njhtyUQ88ugjbYF6nb93qjiTruHSfTNeNBEBfUY864VCg5S+I2WbfiJVnyBDH6pvBepZLJHVRKCMscMCetJJJ3nfUY5u6cv2gbZ5f5Wntnj7/vX/8Ho/MuIrbt4O0894ZrzwkSxrcfNQQ4D26TZRDd0+wa/aNn4bhfMoIQ9wNhP1kBpR1+cyIH2aLApe5gE5PwhyGl7pkZ+5Tsj57HcXqaNrngx4qN9vv/3KW97yFjtc/VtfrQN0bv1s5P8O1LVd7VDe2+u5rQMOO9HJ4Zls+hsXG8kzBnj0MH5eQH2VEfztQst4YcAyWFk8tJDDJ3nSmtCvRR1eFmQ+m8+bPddff334aJMw82d5SOADxPyE3NNOOKHc95CD/VbFhO0JJ0xH9pWIMwq74i7KkM06FfmIzgX1dl2uVHkwyHguV13elp4uEmo56mgEBDK/UvFKNuvrwlT16GHF5SrqC/7+BX6YevjhR3jHx2IzXP5ugbVBMamhuCkeWwtZW3cM27K6PveN6jQBBY58tHfp1h+QDiYKfbJkyRI/emFPyKSM8YI8iyp2mVDQ5HiwR3vc4x7nT9HoKE/UF7+Ur+M6Spxrnkk9lw2LVK50KuoChmVcKbyjOg0RaK1KINsaZndrgAEB7bzTzt5Rr3rVq8rxxz+x98oRnT0DH8yee4Ldu4H4Zxks9kHxUOxELtOKw9FSrhhC/LNM5L0MPdjr7wMuelAtZJ/IZ5J/xFhl9DVlWmDcVgc0LqArr7yyfOhDH/J7hhwKIhNfQtDEyzrwA/n4JS7w0Ic+1N/oyI88yh9h2LZ8JB1GNbqX0IRhDoB6uwu1A0olO0xHdjrrECRb11Eu2lKgQ+eyjLXtd9je7ze+7GWnlqc//en+0SLer+SwDGtuEV/uJhoUEyHXR46/Qa2aXmYkqm1Gq3utD7YmHQVMBGKsCZGh9ky2GVA/83Nqn//858uXv/xlP49nD4sM/xpvjLmdkPzj1MI/q2+HrjxI/ld/9Vd+GiI/cizJuz4j2czQtvwc5C+o6/w1KIyS5pUlkzMaTxcJg+SAnK7lcCbzsy1So7Ich4FdftZy2Y4IiEdyBD9fHOiiLntcFeSwiQeAeU6Vzttll3v5RR3ZMc89f3cCX3P7RIDYeXt8a+sAe5NtRh/IXhD5xn5XPI0AMpqM5EWSUV9lwjY8vG3PvUKuGnNhSr61sD7xw1IoJiO1yHIeygPYz372s/3BAS4KDfIz+rZdOOSj2gYUj7ovxAPlvNOaNWtcM0KZhD7mhkDmIS/DKodPx9jUSQ7Ak/WIVEaKoxniyXltS052OLyRPDwKBHXalrxsqQ6Qh/AfXp23UFY2bfSvEcBLB2CL+1Z8b+Xtb3+7fwNFE/zuBPfTjjzqaB+ILAjuq0FtJOUDuv/PznG7b1+0/Tk10L2pHH7EEeWMV72yHHfscbatgWixI9/c3gGtL8Q9+iK2+20ST5Vp7BBH9mzqM3gyKOOqKU9D8UlELs5Q1qfbJqBFwPQ12w2CZcwm4Tb+qRZuc/CQgS4QYVOEL3lM0e/4ktsimWwbOW2Tr0kyM97whje8To3mggSDTgNJBKMu4+MA/CLqkOOkOMtgAMfZcyAHL44rlRxBhiQHkJN+2UMGQi8+Yk+ykscWq5lub2R71OsqHPxK0QcP7UNONiH8kBzk/L6t36KIiUi65557+LOTtInzFPi7EH3SLjpbC0wo9socKhNb/MZf8tgiLtyr+/KXvugDV4Ng+n4wgCLH/T0+YchjaixG0Q82SHk7YS5jhZv89EGQ3sBXv+OjCD+JvfqO2GscqP+QyzIQt5343s273/1uf3KmE+YvPtctRS/6ebLnX/7lX/0jZmwD9bns4C9jBjCeaz/JA8alxorkSIm15hA2MrkOAqAOIRXYzp2FgDqNsswrHjkFqVyp7Ajk1UiVSz+gLPNnDCoHsp2R9ZKH1Akqk98Krvjkh+p5GmOcX22yhdDGXBmbMavw7Rx+DPOggw8tp7zstPL3/++Fdh65k5WPlw3GyC3iWbPnwuxPgLBt04Pp6PaHI/yYkpKuXA76+g5q2tRPlLc0HO248FgRlwZ8I0i+cLGG9lpR6LQ/9TgQVKY45zZo2+PfAD0i9oQ8QUOe8UQah59GvRutHAFY3l3Df/trRxFc/X7Na17rP63G5JJN/EGP/Mrl8oVUdWxrMub2iWeqsl7LciFgW2UISljI2/DV9Vl+GDKP8kprnUKXXsqiAwYDni5ZMKh8Etwn+ZVSK+cXgfawDv2rv/7r8spXvcq/q8Ozqzwet95WU57K8EHbp2MqjOaXtazXvpr64zhIH+WZBgN1prblYqOBWfR/bWULirJfgvL4KV9zHuR2aIKw5+F+4WWXXeZ7S5U7Nf8aqy7HI2pk2WLvfOB9DvTHGHnBmCObbA9Il1DXg1zWVS951eU08/vFmozauPJdDklZrWMQpsuX9WfZ7EvGoPJB6GpbF6jPPDmvyS8fWVX5psmf/umflpe85CX+G+48MCz/OVQBbE9lV4DPb5QPIfnYNxiNNhdZRyarsbSpr2x5fWWSVudedx5D7k9BZV11kgPUK3684Msb8DqyirqGMcPK/Hu2loWPhzKe9axn+WfzOWwfBdluBmUZdX293YWBe8QM6gYZl3M5r+0ag/TU5cP0wJfraxoFmyuX/ezKo0eHKFyFo5N54Zgn+LkvpUPhjEbFQEi3LnQMonoCQluCWlc/NXbh65p5NVJZHfdMdX2GtvNhKvFkT4ZPOqUITHYCHsrZEzLxuELKp1J4DzWfoqiN8iFTjdDZQts1b96uZQQ/RxTRGDVIJCdQkHkhlSFDYzK/5MVDmgkeZLI9yQKlAjLsTUiRE+nCCnsi2ash+0A2IPjRQT77KFAG4JGPIvwGWS7n4cEvvjR2xhlnlOc///l+cYMTdqA9o7WsJxOY3OGjQG0a1Ie9GMhMr5lkehtTQm56/Iz0JT3Z4qKMRcUfkJZmJi050uCJmNeEf/ip87xM1BNP2QHws8BxpVN1g2AWvJ7f7nzmM55Z/uIv/sLPC7PdLnuDYgnVcvQp9ZlX27RZ/KSZaO/YihUrPLQI1IOZlHIY8yFVBvwAh1UnOYzqUnDWKyfrfAa84gfk0QevgqNyQQERcp2ggZqBjAfDdEOyTTl2NHBULhATSL6oHfKRK2QAPbxRwKfdefSKh5HBpjs34qTxRxy48kheeoSudtQYG5tRjjjqKL+XpkPhLMeVUt5s4O2LG2/g9oWb9nRzgO4jjjzS377gcTC/XWH/JqwNzL7oC9mPlDYq9nX/kRLL3A9AecmSqm0Qh6W8q8hbFtzEZ/LwK8Z+pciADHw8D8uEPeGEE8orXvGKMn8e31zi20nxcDlAL/bhR0/2Iafqd7ZFADnsyWYGNlSW68gjP85E0WVaBhyEExATU3kUYRz+TFkuy5MCZNBfy8lp6ZcMgcYWPJyAc3ka0u0K5LItka54wScZyZNSx8SAsk2IOnyEVx9BIk8ZkG+k2BHhv3ytCXiArT3I8Zwqn3p417ve5T8dxnZ0SAyoeOk0+DcLNhY0WNUu+Uk5cXG/3GZAr3KlopGBnL416/ZmWoz4zRMj9nzc4lm7lg91rTaKPiCeyMGPnGKqPqROY0xjRimABznFlTzPhrJ3491BHjeEl3cCpZPPbLBIcN7+lCc/pZz6slPLjjvsWBZvt9j7Dr+IjQh7WgwUR+kS0V/iR15tQ079nceJ9MiexqfGJm32n2UT1MCaBBRByIiQEYG8rTKQ7Qg1L7byNpAcKbZB5pGPWSbXQ/KTjqttQCD7l8uFzK+6Ot8FlWOb+1T3v//9fUXmft+97dCIJ06My9KYEOFHt65RIJ9EQO3X9mRM7ptRgLZsy/9ZqnNIzEVd/16sx9+Q+kSoxxiUkWWJK4f/r7E9M5/F5JyP9kiOPR9v9j/zmc8sLz7pxWWXe8VHpfkYVR47oLaV7YgAPMoLmhvSKb2QtiWX6yDK/apppi7AWAcnA8VToZZVKpu1H9lGloEyXw2VZZ4uvhqZZxQZ6uVPja46yhg07JH5ahyvUz3XVvKDDrqvrZbx5rf4rKWxMU10+QIo72oP7ANEtgjR9vYUAduyLx+7/WkX20GQLsmTcmGMq9NcpX7e857nb/XzjiT0zP/vmf4YIh+d4nP57LmB7EhP+Dw5GNlWF4/qhLwtWRGQfF028nFQl5O5TEpHQXZG6XTkMzZXbjqQf122uuKS0VXPoQjPqT73uX9RTjzxheWQQw71z0MwUTlPbKJjaRD5qSkwqJ+6/aQsyqdoRidCOv7VQF9XOdjSPqv7g0nFXu5IO2d9wQteUN761n8pb3zTm8qb3vTm8pY3v7X8f3/+52Wve+9lUWK4N7YH+FDrFlSmOHbxDMMwXnT2TcTuzgpkJ0izQxmqyzzDID7tcUk51hZyg7OtrDuXZ35B27KVSZCcDhtUVkN8yCovvjoP4FPbBOpoI79k9PgnHl/+5W1vL8c8+CFljh1Gjc2wvaN1ix3YNU/hyAZygykDe7Ipkj8wexbdjUvhW39cpk0ozMCv+BOUUMsOQ7S9VSCZHFOdm1HGORl7yF3vtVvZY489/YLMjHGuPXB+yXkoQ94OE22HKNPoR74+ZMwkKF/Xi0aFeJWO68SSFUUdmEkNZ7WGslEpgY9VPhMnzcihVye8yCul0dTXcgSVcnTDK5IO5MQnGWxle7UMKcgymdS+Lln8EF/dTuSyDckqTplXPpIH0o1OvqP65je/2S86cGVPQM90gC7aKJJtgH8+0HyLadcO6s2GybpNO9+a2GBtnLD2bZzwiyOKB4Ofw0G2ISC/RMQFf4lHjmMm6tQmxRGijDi19mJssU0KciyUl7263yHkcixrOenPNqVHY0T9LV9Jkcv2JE/ae/tCDUVRDSmooYGEXFeHUo8spO3c+chCWbbmF5SvZVTONj4OkgHwKC/AI3sgywNk6vaJh5RA1nXoQ4bgZ33kM8Gnevh5SoRfKfrgBz/ov9lHGVfmZrbuDYat9IcdfoS/j6fXeATiwmD48Y9/XF54Yty+wGX8hi3Sln9UHHbE4eVVr3q1Xw32GJgKa5Xbi5jSTuLf6qdNEKht1mOM+ixH39Uy2KFcsRThTx4nSoXMD3IMJKdU5aS5zzIogzfLCeJnrGS+jHFdYlVncRlWpEu0KGbW6vI/pCfJcYwgda0CyKFXNtChvAIIL7ZqOeozP3lfOawh8GR7kkdOK0xNoPZRJD9rGexiDx7ikGNDGcHsklHAs41MyMlPUgg5LrHzWUG+qcrTOMSYOutK938UqC8g+QmwRUxrXdV4mBaQxR57Qm/b+ug/rgTz6cPot+g/xQXkWED4iR71eU3IEbNaDltdcoqpJnbX+KQMIAtv+BryyGlsdsnRt/BlGdmTXCbGDqnkJCtiu7fW0lCMQCirqQb8kPKSzaR6HBBpu0sm2+uSlTz1klFnQINkoEE+Ik8dPHSK+JUHsiffJAvEL1JZ5qtJ9khFgJQnRXg59cQTTyxPfOITfXJyawO5uEGOHIOrjVV+1hQ+2qS4kMKDPdoUdvyvU8iF7UhHJ/64ffNF3xNlG10WjSYe/XGlXnEQRRtijGVeEeiSE4knp8orJplkz/00vtomGGQvj5ea0COeWg6KGA+QpUKOZWYIwATk+JYSIEWfBonKpkvyO/uWkXm7KMvWqMuIQy6Tji7K/shGpsyTQRkx4dCSd+R4TvUZT3+636xmL8MtAXiYmC6fJqAI1GUQ/N6Xvt0va4UUezod6ulGeBPjJBYJlbW6E29qdy6fipCTbKauMasU5LpMwqBt2apt1v7XkJ+13FTUt0cEmqGagKNAsqNCxmWjtjmq7Swn2lx0ycpPQTwqm47NUfikj07kMIenb170ohfZoerL/XYHhzFadVFXR72Oa4Z0A9w3zr62bR5MH/8b3UHV4S+23K9IgfwYFWrXdPwVby2bbefyLmSZ2ue6LG8P0zkIvYe+u4SzcvFB2tWyemuvJh3DKOtQmfQrBV38WQ5k3wTq5BuUZSQ3CNmGKOsRsKlDGSDdIskOsoeceIHyUK5DB5ORK5DHP+n48p73vLs84hGP7J0v2f9earmejGx30VaHhYDHyXI/WK+YLYvnRvPHiDf2nSaI5+C4UC7/axomM0hOdTVUNkhO1CULpLceY5LZXPJnTSGU0vE60RX5YLBAM+HyxQpdvMABBibUZUCUHcYWQKbLJuXwYVP+QfmkXoS8dOAn9ZkfIo8P8Ne2OFEGtS0RfmQfs110yka2leUkqxRZ5OCpZaEsBw+HpHNmzyn77bd/+Yd/eF153vP+tu833IGp8z/1JO8CNWnebBF4+0KxUHzIe/smrH20ccN6v7VBSnuA2pcJPeo7LfC5T0Adf8l1jRW263GWiTKAr8grbjl2yue2QfDX/Ya9Ll2jEH6OLVu2zPIxSCHydGhe5SjDAKg7m23JaVspZQqieGiI6tCpgEhOyPYA/LKBjHRA5MUnuS7IliBZgJzyQq0fqv0C8NSgXuXiVYoO6mp/gOxRJ59mzrC8lfMw+nXXXlf+53++XT72sY/5LQ7q+VEUcORRR/nPUnNDm3J0yQdk+WmyF7/oxHL9ddeZbsoh2gWHUiFvoCfSDN72eOUrX1WOe/hxVqU2xkTM56DeFr+Dbv1tbRkE+QrIK15AegS1T6j7nXE2CMhG3NqrrgI6IU06lXWlNdBDnfRnPnTxgDd+ii/rH8cZCAYqNPszoTTvaSQDAeR0SZaUbYyxUvD6DR961R4UZ9AhRzIhowZAtU1S+dlFIPsmQo831vRnfrUPZFuZQJaRHCk64cm2JEed9EtGeSDeLAsB+cntIT8v9Hf+uOw9u+y62252qPrkcuILX1QedMyDy4JttvVPcVjgerLYUX8QT57y5zWsGHT4DacGSfegQp3I/noZcpko5cIRX7XDXxGTcEPTPt3aYK84YfaB4iBiG7+JWR0PCL9ph3g1xqSnSw6byIG630XqP8Ym41JEGfZ0qw5e6ejyE37tGeHRrT31H/4iwzzQmz3ZHnK9Q9M8EWUwUx6oCNZy8JCHT/dNMM42xsgDOV7bUx49QLK5sRBl8Ig/y2vByPzKo09yNVEuvmyPNE98+GQTArKTCTnsZd5sD8hGTcjJVhco5wdVH//4x/feOOCFYzpdbQf4rX4AauMs8yUWOy9uUO8NR4QJaYKI/Iqu7fkmaA9P2qidTR7AV8cG//AZnprUhtZG24/kiZn4sgzxAJlfMhGDdq9dU65HJvuJXm9TIsrgBZLTfICYfExIyiDxiHpfcYOGISuVsixLngAw43GMbYF6BYhy6RFodA3pVCpiuwsKnPTXMllfrUMy8lHy4qv5pQMaZEuEXyKBcvEOkgVdctiDGBQHHHCAf/qfl115NE5P1NAGFj90as8IkGObtz2k1m1EdtrQGxY5Ov7DNGaHR916sTG+3MZBEE9NOSY5L4hHsRFJfhCQqW1kyqjrJJdlM+gDXlpmL0hf0Df0g8ZX5ifvy64UDSOhzkM4w+RjT4kxGdRgYJsUByQnSF6UdSovGsav8rwt5LJBslDNC3XxicRfI/MMsrW1iAcA+AwHE5LfEtRpgA6H9AIqZfQD/cShbOxJ8Namof0Pfe6+I9uwrSh0aNuI/318FFl7NzHQmknqdfQ72y0vpNjk+CjfynZTlhOv0swj5PLpUvYvI/OI4GUeEHMWOQ5T6Qv1Q56EkgF9e8Scr0nQCg0vnUoHM+nY1ipEJwMcIE89ctTLEekk9VW50cs2OkTSKZkukpz2xCqXDtUD7OjQBFAuG12y5OVfTYNAnfQIeVuyspHtA9VLRiQe4gmxV6ScCcYjcfwWIJ/JoIxYkNJWDqvYZmH0cjMTLySjc3J8uZAjWyJ/CMBpsk98zQ1duT62Y0KGfJSr/4HiCKlPxJdtIzNIjjJiIblMyIofdPHUIKYQkP3MK50AvarHPyaa6lVOvP0csJkHkMqYO/Cgx+qjo9igMhMCEEaohxDEiAzRuSgUcEayjQHnA6SZ4EM3zinYkPiB7KIHIi+ZumHiyQS/9OBzbQ9Z7KkDZCtvKwaZKEOfOi1D/sOX/czb2T/5CNCJbrVJxDaQf6TEHZ3kmYCcK3IIpCMREf5wDumy3i6+/M1KHUcq8Ygc2pXShpr6+06EPO1Zv4GLcUaWck9/5kxrn9kZG+8/NweD4gnEB6mdyisuiiGELBBfJsrwT3I5nhD+w5NJMVO7MqkfkAPwICP/IWLPdi7Xzko+AdmjXb7N7QsyKJeRzCygRIrlCPUYoFwXC3CWFRrj2iMiSx5eTXp0QNQrL1AGwZd9oOHwoSfziw8b4s/1gG38I4XER5ptqU71yEhOZQLbCi71GbIjn4Hk2VYcahBf+SM5UtkCtB8+da74KVPs0Y/f8Cj2fIj3jFecXq679lq0Gv+E8epCGm1Ge+tjP/r7CBx+5JH+09bHHXus1/k/S3u/pW9gm1saag9+QPhcA54cl9oe7dPgF9Cj9oNcBy9AT+4HAVtZFuBb+ByTEuQUfsnhD+MdXrbFRx6iH6QL0A/wqM8A88bjQcdpAKMYYe3lRDACGZQjGEEWHm5TKMjSwUCAl+NkBQF+jCNPI+DL9pBXg+HFv0z4gFxN2V6WwxYpEJ9sKa/gZDny6JI9+SmijDbJRn3JGv/h4wgh24PQKRu1TdmDv07V0bSTvOyoTBcH8FuXyeFDLx9Wgt+ctv/Nas+7g2ZPk2+64JB0o+lx/9gbrrM9xvrYs6ldigfbxBh/FAtSEWNPfY7/uR9JaZ9kFEfJgbrfZQ+5WgbCZ9ou/0RsI4te4pf7DxnZo+81/iGAD9hbsWKF88m2xjR8HLnowo38JPWHvmsCpAhDmlwECmMYyXwAHsppiJwlr4ZykxlCHhAECP0Zsiuwnanmj4EUEI+Qt+s6gbIuH7JcFyQn3ppP9V3oklGe9khWRIcSXyYaA4MBRhzpE+mRL0oBA4888Ve84y0J02fEJIob+6NCkzYIM1wR1U93+017A/kuUt1UqOVEqsuoeVRfbwu5XPHNZZlHUF59Qx/QH8SVFFKdJiN9Q545wwTWhGVbfSEZqDcRAU4xcWCWsrwCoBCjKGSbeviYYMjJITkgY5LPhiGQAwHgYaBlvi6SnIIpAuLJ+a5tCP+VryEbXXWC6jMB+SK/BvHlvMA2MsST+NPxpFoIiQ9x0vuKbAP1Af2i1RYZyaHDyXh4q74y2wf13XBqmE1PXzvtH5NSbZsO1aAsx09lKled0OdHIqAU34kH6OIVX877Xr8Z78QVHZQRW4AeQHz5xCNHJNRrLCMrXTmGwqQ9IsLajTMASDGGcaBOxyEGghxEFsXk4aWhaiQp/KR1w0HeHkSSG8aP/a7ymrp05LLaT0Hbg8pEtWydV5rzuX3EqjdpjLT4MdHgoU8AeeKtyYcOJiB9Qh38xIRteHxiWz72hAycsLclwA6U/Uetymvy6o7ymtAnYnsQVNclk+tyXiCfees61dMHxJCUMuaAxjPjXHyUaV5AxBvkuSBoIsrOuIQBKR2qjoQR45SRlwOAbaAyjGJMpNVYTmaCnzQ7BuSU6sSn7UyZP5N4s5zykORyvQKS+UQC9cNokBxQrIBsQSDnkfPJ0sScVGCFpU4LIX0EvxZIYq2+U9zgpVzbuY9kc3TEHjCT+97c6uCoFJV+BZZD10122tFsD+rvDPkHr2IiEuptQfElrWMtdOnBJvZE8lF1+ENMFTdSiHoWOU0w4qw8/H0/G25EH6nfBMqVQj4REWLvR4ECAWgICnRoBMSvRmuyAQyyIlMmwzinRtYEpEcE5Ac8WZZySLzYEWGvy478JZ/tZDl0Zv5MlMGXZTOhW/preXRD8EkHqdon/SJirImkdtLBahudTCpQrwmJXnhJWY2zz2qfZCL1v54fHfBnagcUtyx4vM3t+eSzNvHmfvPWvtoLFBMRIIWPWMJHXn6zTTltyu0SyQfSLgKZH1Ce/RJhR5NPZfDKZ/pIcwV5CJ8oly3AXNCpA/XIyx5pbX/s97///SYyrLhczUEIJ8TIxNLhKfU4CWEEwMfqAB+Oyojq0N0FeHOHCLJLKgLwKE/jgOTUOfhd2xewBV8XFJAuIIO9rEs+I4PNQaAz5CNQHhko1wEmFeXIYQ+/yMs/ytQOePGLcvRohVZevkmGwcNPd59x+svLtddea3xY7LffVTYMhx1+eDn1tFPLQx/6UNuymNhEJGUCRrzUZ/39AFGe2882PtPWLiCjuAClU/UdNuo4IwshKz0CZcQWYI8YogfCDoQM4x/e3I/UMQ90SqB2Sgf8UN1uMI5RZrMUYpwORYkUUgYfl8a1anO7gjx1GCdVHieRRQfOwc/k1bkneRwQfyZksKmAaOKLKEe3bED4q0EIT7ajbdqHbtmRLESQqM/82U90I6M2QujCl8zfJVcTcuoc+BR/8lwVVWfSPsUCHynDHvqRRYfsIU8bWCiRQwZb8hndLLTI8M+qDf2Dc3PAHnCm6Y++MJo9t8yepVtFNk7WMVZoW1x3oK34hl91PPEX/2iLxpjiQ0xoH/EQf5ZXXHRNI8cFoFu8ENv4AdQPkiFOyGGLuBNT+LGPLHbxE1v4hbx8xQ/dnkAWHchqrKI3+wepjX6xBiP6BSGUkWLEO85IQEiBVKMAPMhBWUb5XCbUdZDkB9VDdV1tFxJyWRefKPNmSKaWVR50yeVt1Q8jYkqn0WHElM7VZKMf6ED1B7apQ0Z9ocFRk+wD+hgdaec0CVRNh3wQMpDMv9p2JrjbvG2lOlEdY2gQb01CV10XAWKH/8QWuwL9QDyJFxMFHsogZAB1TB5NWCYbE42rpdTJRhfqOvk09tvf/tZrUIZynJBBHJQTt9xyi6dyEpBqxpNKTsBRVhgFWICPAadDYcnBw2DR4IMkBw955LRoCN4Q28Z/9irZFmAbv7FHG0CWxw5yuUMAcloV1WaBOhYmVkYh68RPOiaXaTJxZAGRhw8b4sOO4q7YqMO1ipIn3shKRu3LQD82terecMMN5bwf/6is6cWIfrDDfGzHZs8P6nmVKfhaUB/fpSllx512LA865piy9977UONlXLRZa/aw2aIZbCa7YMF897UGA55YkoJsl/bRNtor/wRihRwxIp/riRG2kMv9R0yII2MTP5GjD+RXtDHGGzqIN9ualPQd8aQOUj+R5nvluQ3U804ofmZfFJex3/zmN5uogFCAU+Q1aACMGMcJOaVytgkSsmxn43VwBfgIDnLkpQ9gH34aig9sA+lGrp6IwnQmVJaXHPZyueQ0oXI8yNOJdKjKgeTxM09EfFIsGAB0Cr6gH16IWBJHUvmJnDoP/+QjNuED1OnwJwMe+LErPzesiyeQ0Iue2XNml5muJ/oBd0O/HQFZH0xs4GJQ2z7T6n/5bum8+fPKfBt45OHvya3laScOz43R9OltfZ49nW8y9USkTvGh31WGPqD2IacyAT4dTqrfxUMsNRFVBg826Dv6nLgAeDXZsScCyCKHLaBFRvEH8MCfJ2INTuewLb1A7RxHqSaKOpOO0mDQBFOaISVysIacr1OB7RriA+LPVPuQQb3STELOZ2Cni8Rf66rz8GqSaJCrTqkmLSnbdDgxJfaUkyrO6kj4ILbzZIUox5Z4ZJe8oL4R+UCxRYwfvOGRN9JFixaXHXbYyfZuO5UddtzR89tvv0PZrvkl3kWLt/OvyS1saNuFi8o22y4si7fbzreZhBluq5gf9o8nbjZunOi9FqU4ZWR/gXxVXqj5BMVagC/HgVREOfFn4mrMqx/oAxYC+aeYA8kTP2KvhUR2oK74Z4gPgi8TZeMaBBhhVRFg0GQkxbGuSUAZvOiAcAjSCiV5pSK25Qj8kofkMFAqsC1+bEDKU47e7Cf52l62KzlBtiHpoR5+yrIs27U9ygTpxj8teNTTwUwEFj58kz7y1JOXnPwX2IaH/qCcbXwAORak6ADiId1oeyd2cJs4vGxoEzpt10X5RtM9YZkNPHljZZDtynq8Y5afOcv2TP7JDfoef8P/IAY4scMykyTyLm4pbVUcciwhfFS7yOfUfTceZDPRVnSpjfCiA2LbvWjswK+9Idv0g47m0IEuILtAsujP5V1ABzbwExm1K/spPlGvby655JJNzHD2hKwIOKfDgxwIqAsYxAgGayCDblIMyhEgR5WqTvZIBzUa/7IuQbZArlcn4if2VAYPpI6jTFC9fBTEQx15ta0GMoojea22tIk9DHHWwFA5hzXkKYeQo1+yLfjIi+DJfmpbPiGjtqkMwAMkAwGVA+JZ94F0ZB+BbMJP23I/ZJ3w46vKRcip/6QTyB5lTKAayCEDdbUROYg8/c8pFsBHTh2wqX5AP6c96FI/UK5DfsWe+jouABm1TZBPg+Qox7+xq6++ehNOsaHzKygDZ3GwyzjOa5ApqAADyNFYrTgC+mkke+PsPDKaFMiSqvHSjSzH2lkfYJs9TH2BBFCHnxB2syy8BBq5un3YQgY/ycsPAC/+MXlqOdnjEAjQPmLEQKAz+OYM9tAJLyk68EN+qo5y2aReg1VthA/96KZtUPYVeeIC5bhIp9oHKJMcKXsLbGY5QRcssAWkj5jQNg3eDHh1CJh9JEVOp0Y14CWW2Kt9IRb4qZioHr2QjvjII6+xQxzpB+wRO8lqLsCbx6XaqXjKT+oF+LGHPpXLH+SIC/prIGf10dESlkHyeRuoLFMNNQigW40YJpOh+syf5WtdEFB5V30mIP9AF09N6BTlMiHz1gSwp1gwKFjwGBBMgtzZIMuB2i5QPhOQjty+2ucsUxPoKh9GAHvZf6VdJChf+9rlo5DzgG3xa1skiAdiEjDhiTnE5GZRyPwgt0Xyyg+j3BaBctmv+UXAf7q7iyljFEeEensQatm6EYN04AvI9crnNNOgMqEOfObJvHU+82SqywArNsQ2i56I9miSUse24l0jl5GHujp/KnTpyQTkB+jiyXbZzpD/NQHl1V4h89RQ3VRUQ2Wkag97QvZmTEQdfbD3A/JJcpqwag9QfeYDeXtQ+wfTpvL/AzBXTjKjFCwoAAAAAElFTkSuQmCC;" vertex="1" parent="1">
          <mxGeometry x="726" y="417.36" width="82" height="77.64" as="geometry" />
        </mxCell>
      </root>
    </mxGraphModel>
  </diagram>
</mxfile>
